<svg width="39" height="39" viewBox="0 0 39 39" fill="none" xmlns="http://www.w3.org/2000/svg">
<path d="M19.5 39C30.2696 39 39 30.2696 39 19.5C39 8.73045 30.2696 0 19.5 0C8.73045 0 0 8.73045 0 19.5C0 30.2696 8.73045 39 19.5 39Z" fill="white"/>
<path d="M15.1504 15.1C15.1504 12.7021 17.1025 10.75 19.5004 10.75C21.8983 10.75 23.8504 12.7021 23.8504 15.1C23.8504 17.4979 21.8983 19.45 19.5004 19.45C17.1025 19.45 15.1504 17.4979 15.1504 15.1Z" stroke="#0000FF" stroke-width="1.5"/>
<path d="M13.689 23.9992L13.689 23.9992C14.9463 22.7225 16.6057 22.0244 18.3667 22.0244H20.6333C22.3944 22.0244 24.0537 22.7225 25.311 23.9992C26.5198 25.2265 27.2019 26.8287 27.2475 28.5333H11.7525C11.7981 26.8287 12.4802 25.2265 13.689 23.9992Z" stroke="#0000FF" stroke-width="1.5"/>
</svg>
