<svg width="38" height="38" viewBox="0 0 38 38" fill="none" xmlns="http://www.w3.org/2000/svg">
<path d="M19 0C8.52276 0 0 8.52358 0 19C0 29.4764 8.52276 38 19 38C29.4772 38 38 29.4764 38 19C38 8.52358 29.4772 0 19 0ZM19 36.4167C9.39639 36.4167 1.58331 28.6036 1.58331 19C1.58331 9.39639 9.39639 1.58331 19 1.58331C28.6036 1.58331 36.4167 9.39639 36.4167 19C36.4167 28.6036 28.6036 36.4167 19 36.4167Z" fill="white"/>
<path d="M15.1504 14.1C15.1504 11.7021 17.1025 9.75 19.5004 9.75C21.8983 9.75 23.8504 11.7021 23.8504 14.1C23.8504 16.4979 21.8983 18.45 19.5004 18.45C17.1025 18.45 15.1504 16.4979 15.1504 14.1Z" stroke="white" stroke-width="1.5"/>
<path d="M13.689 22.9992L13.689 22.9992C14.9463 21.7225 16.6057 21.0244 18.3667 21.0244H20.6333C22.3944 21.0244 24.0537 21.7225 25.311 22.9992C26.5198 24.2265 27.2019 25.8287 27.2475 27.5333H11.7525C11.7981 25.8287 12.4802 24.2265 13.689 22.9992Z" stroke="white" stroke-width="1.5"/>
</svg>
