<svg width="38" height="38" viewBox="0 0 38 38" fill="none" xmlns="http://www.w3.org/2000/svg">
<path d="M19 0C8.52276 0 0 8.52358 0 19C0 29.4764 8.52276 38 19 38C29.4772 38 38 29.4764 38 19C38 8.52358 29.4772 0 19 0ZM19 36.4167C9.39639 36.4167 1.58331 28.6036 1.58331 19C1.58331 9.39639 9.39639 1.58331 19 1.58331C28.6036 1.58331 36.4167 9.39639 36.4167 19C36.4167 28.6036 28.6036 36.4167 19 36.4167Z" fill="white"/>
<path d="M24.966 12H12.5224C11.1315 12 10 13.1315 10 14.5224V23.9391C10 25.33 11.1315 26.4615 12.5224 26.4615H24.966C26.3568 26.4615 27.4883 25.33 27.4883 23.9391V14.5224C27.4883 13.1315 26.3568 12 24.966 12ZM26.4794 20.7442H22.78C21.9455 20.7442 21.2665 20.0653 21.2665 19.2307C21.2665 18.3962 21.9454 17.7173 22.78 17.7173H26.4794V20.7442ZM26.4794 16.7084H22.78C21.3891 16.7084 20.2576 17.8399 20.2576 19.2307C20.2576 20.6216 21.3891 21.7531 22.78 21.7531H26.4794V23.9391C26.4794 24.7736 25.8005 25.4526 24.966 25.4526H12.5224C11.6879 25.4526 11.0089 24.7737 11.0089 23.9391V14.5224C11.0089 13.6879 11.6878 13.0089 12.5224 13.0089H24.966C25.8005 13.0089 26.4794 13.6878 26.4794 14.5224V16.7084Z" fill="white"/>
<path d="M23.4525 18.7266H22.7799C22.5012 18.7266 22.2754 18.9524 22.2754 19.231C22.2754 19.5096 22.5013 19.7355 22.7799 19.7355H23.4525C23.7311 19.7355 23.9569 19.5096 23.9569 19.231C23.9569 18.9524 23.7311 18.7266 23.4525 18.7266Z" fill="white"/>
</svg>
