<svg width="107" height="107" viewBox="0 0 107 107" fill="none" xmlns="http://www.w3.org/2000/svg">
<path d="M33.2029 2.91253V0.78962C33.2029 0.349504 32.8534 0 32.4262 0H30.3033C29.8761 0 29.5137 0.349504 29.5137 0.78962V3.68921H33.2029V2.89959V2.91253Z" fill="#191919"/>
<path d="M39.7917 0H37.6817C37.2456 0 36.8921 0.353525 36.8921 0.78962V2.89959C36.8921 3.33568 37.2456 3.68921 37.6817 3.68921H39.7917C40.2278 3.68921 40.5813 3.33568 40.5813 2.89959V0.78962C40.5813 0.353525 40.2278 0 39.7917 0Z" fill="#191919"/>
<path d="M47.183 0H45.0601C44.633 0 44.2705 0.349504 44.2705 0.78962V2.91253C44.2705 3.3397 44.62 3.70215 45.0601 3.70215H47.9597V0H47.1701H47.183Z" fill="#191919"/>
<path d="M51.6489 0H47.9597V3.68921H51.6489V0Z" fill="#191919"/>
<path d="M54.5615 0C54.9886 0 55.3511 0.349504 55.3511 0.78962V3.68921H51.6619V0H54.5615Z" fill="#191919"/>
<path d="M56.1278 3.68903C55.7006 3.68903 55.3381 3.33953 55.3381 2.89941V3.68903H56.1278Z" fill="#191919"/>
<path d="M76.6838 0H74.5738C74.1377 0 73.7842 0.353525 73.7842 0.78962V2.89959C73.7842 3.33568 74.1377 3.68921 74.5738 3.68921H76.6838C77.1199 3.68921 77.4734 3.33568 77.4734 2.89959V0.78962C77.4734 0.353525 77.1199 0 76.6838 0Z" fill="#191919"/>
<path d="M33.2029 3.68896H29.5137V7.37817H33.2029V3.68896Z" fill="#191919"/>
<path d="M33.9925 7.37849C33.5653 7.37849 33.2029 7.02898 33.2029 6.58887V7.37849H33.9925Z" fill="#191919"/>
<path d="M51.649 4.47859V3.68896H50.8594C51.2865 3.68896 51.649 4.03847 51.649 4.47859Z" fill="#191919"/>
<path d="M51.6489 6.6015C51.6489 7.02867 51.9984 7.39112 52.4385 7.39112H55.3381V3.68896H51.6489V6.58855V6.6015Z" fill="#191919"/>
<path d="M56.1278 7.37842H58.2507C58.6778 7.37842 59.0403 7.02892 59.0403 6.5888V4.46589C59.0403 4.03872 58.6908 3.67627 58.2507 3.67627H55.3511V7.36548H56.1407L56.1278 7.37842Z" fill="#191919"/>
<path d="M65.6161 3.68896H63.5062C63.0701 3.68896 62.7166 4.04249 62.7166 4.47859V6.58855C62.7166 7.02465 63.0701 7.37817 63.5062 7.37817H65.6161C66.0522 7.37817 66.4058 7.02465 66.4058 6.58855V4.47859C66.4058 4.04249 66.0522 3.68896 65.6161 3.68896Z" fill="#191919"/>
<path d="M29.5137 10.2907C29.5137 10.7179 29.8632 11.0803 30.3033 11.0803H33.2029V7.39111H29.5137V10.2907Z" fill="#191919"/>
<path d="M33.9925 11.0674H36.1154C36.5426 11.0674 36.905 10.7179 36.905 10.2778V8.15485C36.905 7.72768 36.5555 7.36523 36.1154 7.36523H33.2158V11.0544H34.0054L33.9925 11.0674Z" fill="#191919"/>
<path d="M39.8047 11.0675C40.2319 11.0675 40.5943 10.7179 40.5943 10.2778V11.0675H39.8047Z" fill="#191919"/>
<path d="M41.3709 7.37842C40.9437 7.37842 40.5813 7.72792 40.5813 8.16804V11.0676H44.2705V7.37842H41.3709Z" fill="#191919"/>
<path d="M47.9597 7.37842H44.2705V11.0676H47.9597V7.37842Z" fill="#191919"/>
<path d="M50.8722 7.37842C51.2994 7.37842 51.6619 7.72792 51.6619 8.16804V11.0676H47.9727V7.37842H50.8722Z" fill="#191919"/>
<path d="M52.4385 11.0675C52.0114 11.0675 51.6489 10.7179 51.6489 10.2778V11.0675H52.4385Z" fill="#191919"/>
<path d="M73.0075 7.37842H70.8846C70.4574 7.37842 70.095 7.72792 70.095 8.16804V10.291C70.095 10.7181 70.4445 11.0806 70.8846 11.0806H73.7842V7.39136H72.9946L73.0075 7.37842Z" fill="#191919"/>
<path d="M76.6967 7.37842C77.1239 7.37842 77.4863 7.72792 77.4863 8.16804V11.0676H73.7971V7.37842H76.6967Z" fill="#191919"/>
<path d="M37.6817 11.0674C37.2545 11.0674 36.8921 11.4169 36.8921 11.857V14.7566H40.5813V11.0674H37.6817Z" fill="#191919"/>
<path d="M44.2705 13.9802C44.2705 14.4073 43.921 14.7698 43.4809 14.7698H40.5813V11.0806H44.2705V13.9802Z" fill="#191919"/>
<path d="M45.0601 11.0674H44.2705V11.857C44.2705 11.4298 44.62 11.0674 45.0601 11.0674Z" fill="#191919"/>
<path d="M47.9598 11.857V11.0674H47.1702C47.5973 11.0674 47.9598 11.4169 47.9598 11.857Z" fill="#191919"/>
<path d="M47.1831 14.7564C47.6103 14.7564 47.9727 14.4069 47.9727 13.9668V14.7564H47.1831Z" fill="#191919"/>
<path d="M51.6489 11.0674H47.9597V14.7566H51.6489V11.0674Z" fill="#191919"/>
<path d="M55.3381 11.0674H51.6489V14.7566H55.3381V11.0674Z" fill="#191919"/>
<path d="M56.1278 14.7568H58.2507C58.6778 14.7568 59.0403 14.4073 59.0403 13.9672V11.8443C59.0403 11.4171 58.6908 11.0547 58.2507 11.0547H55.3511V14.7439H56.1407L56.1278 14.7568Z" fill="#191919"/>
<path d="M65.6291 11.0674H63.5062C63.079 11.0674 62.7166 11.4169 62.7166 11.857V13.9799C62.7166 14.4071 63.0661 14.7695 63.5062 14.7695H66.4058V11.0803H65.6161L65.6291 11.0674Z" fill="#191919"/>
<path d="M69.3183 11.0674C69.7455 11.0674 70.1079 11.4169 70.1079 11.857V14.7566H66.4187V11.0674H69.3183Z" fill="#191919"/>
<path d="M73.7842 11.857V11.0674H72.9946C73.4218 11.0674 73.7842 11.4169 73.7842 11.857Z" fill="#191919"/>
<path d="M73.7842 13.9802C73.7842 14.4073 74.1337 14.7698 74.5738 14.7698H76.6967C77.1239 14.7698 77.4863 14.4203 77.4863 13.9802V11.0806H73.7971V13.9802H73.7842Z" fill="#191919"/>
<path d="M36.8921 17.6691C36.8921 18.0963 37.2416 18.4587 37.6817 18.4587H39.8046C40.2318 18.4587 40.5942 18.1092 40.5942 17.6691V14.7695H36.905V17.6691H36.8921Z" fill="#191919"/>
<path d="M41.3709 14.7568H40.5813V15.5465C40.5813 15.1193 40.9308 14.7568 41.3709 14.7568Z" fill="#191919"/>
<path d="M45.0601 14.7568C44.633 14.7568 44.2705 15.1063 44.2705 15.5465V18.446H47.9597V14.7568H45.0601Z" fill="#191919"/>
<path d="M51.6489 14.7568H47.9597V18.446H51.6489V14.7568Z" fill="#191919"/>
<path d="M52.4385 14.7568H51.6489V15.5465C51.6489 15.1193 51.9984 14.7568 52.4385 14.7568Z" fill="#191919"/>
<path d="M52.4385 18.4459C52.0114 18.4459 51.6489 18.0964 51.6489 17.6562V18.4459H52.4385Z" fill="#191919"/>
<path d="M66.4058 15.5465V14.7568H65.6162C66.0434 14.7568 66.4058 15.1063 66.4058 15.5465Z" fill="#191919"/>
<path d="M70.095 14.7568H66.4058V18.446H70.095V14.7568Z" fill="#191919"/>
<path d="M30.3033 18.4458C29.8761 18.4458 29.5137 18.7953 29.5137 19.2354V22.135H33.2029V18.4458H30.3033Z" fill="#191919"/>
<path d="M33.9925 22.1348H36.1154C36.5426 22.1348 36.905 21.7853 36.905 21.3452V19.2222C36.905 18.7951 36.5555 18.4326 36.1154 18.4326H33.2158V22.1218H34.0054L33.9925 22.1348Z" fill="#191919"/>
<path d="M47.9597 18.4458H44.2705V22.135H47.9597V18.4458Z" fill="#191919"/>
<path d="M51.6489 18.4458H47.9597V22.135H51.6489V18.4458Z" fill="#191919"/>
<path d="M55.3381 18.4458H51.6489V22.135H55.3381V18.4458Z" fill="#191919"/>
<path d="M56.1278 22.1348H58.2507C58.6778 22.1348 59.0403 21.7853 59.0403 21.3452V19.2222C59.0403 18.7951 58.6908 18.4326 58.2507 18.4326H55.3511V22.1218H56.1407L56.1278 22.1348Z" fill="#191919"/>
<path d="M70.095 18.4458H66.4058V22.135H70.095V18.4458Z" fill="#191919"/>
<path d="M77.4731 21.3583V19.2354C77.4731 18.8082 77.1236 18.4458 76.6835 18.4458H74.5606C74.1334 18.4458 73.771 18.7953 73.771 19.2354V22.135H77.4602V21.3454L77.4731 21.3583Z" fill="#191919"/>
<path d="M33.2029 22.1353H29.5137V25.8245H33.2029V22.1353Z" fill="#191919"/>
<path d="M33.9925 22.1353H33.2029V22.9249C33.2029 22.4977 33.5524 22.1353 33.9925 22.1353Z" fill="#191919"/>
<path d="M36.1152 25.8243C36.5424 25.8243 36.9049 25.4748 36.9049 25.0347V25.8243H36.1152Z" fill="#191919"/>
<path d="M33.9925 25.8243C33.5653 25.8243 33.2029 25.4748 33.2029 25.0347V25.8243H33.9925Z" fill="#191919"/>
<path d="M40.5813 25.0478V22.9249C40.5813 22.4977 40.2318 22.1353 39.7917 22.1353H37.6688C37.2416 22.1353 36.8792 22.4848 36.8792 22.9249V25.8245H40.5684V25.0348L40.5813 25.0478Z" fill="#191919"/>
<path d="M44.2705 25.0475C44.2705 25.4747 44.62 25.8372 45.0601 25.8372H47.183C47.6102 25.8372 47.9727 25.4877 47.9727 25.0475V22.1479H44.2835V25.0475H44.2705Z" fill="#191919"/>
<path d="M48.7493 22.1353H47.9597V22.9249C47.9597 22.4977 48.3092 22.1353 48.7493 22.1353Z" fill="#191919"/>
<path d="M51.649 22.9249V22.1353H50.8594C51.2865 22.1353 51.649 22.4848 51.649 22.9249Z" fill="#191919"/>
<path d="M51.6489 25.0475C51.6489 25.4747 51.9984 25.8372 52.4385 25.8372H54.5615C54.9886 25.8372 55.3511 25.4877 55.3511 25.0475V22.1479H51.6619V25.0475H51.6489Z" fill="#191919"/>
<path d="M56.1278 22.1353H55.3381V22.9249C55.3381 22.4977 55.6876 22.1353 56.1278 22.1353Z" fill="#191919"/>
<path d="M58.2507 25.8243C58.6779 25.8243 59.0404 25.4748 59.0404 25.0347V25.8243H58.2507Z" fill="#191919"/>
<path d="M62.7166 25.0478V22.9249C62.7166 22.4977 62.3671 22.1353 61.9269 22.1353H59.804C59.3769 22.1353 59.0144 22.4848 59.0144 22.9249V25.8245H62.7036V25.0348L62.7166 25.0478Z" fill="#191919"/>
<path d="M70.095 22.1353H66.4058V25.8245H70.095V22.1353Z" fill="#191919"/>
<path d="M73.0073 25.8243C73.4345 25.8243 73.7969 25.4748 73.7969 25.0347V25.8243H73.0073Z" fill="#191919"/>
<path d="M70.8846 25.8243C70.4574 25.8243 70.095 25.4748 70.095 25.0347V25.8243H70.8846Z" fill="#191919"/>
<path d="M77.4734 22.1353H73.7842V25.8245H77.4734V22.1353Z" fill="#191919"/>
<path d="M33.2029 25.8247H29.5137V29.5139H33.2029V25.8247Z" fill="#191919"/>
<path d="M36.8921 25.8247H33.2029V29.5139H36.8921V25.8247Z" fill="#191919"/>
<path d="M40.5813 28.737C40.5813 29.1642 40.2318 29.5266 39.7917 29.5266H36.8921V25.8374H40.5813V28.737Z" fill="#191919"/>
<path d="M51.6489 28.7372V26.6143C51.6489 26.1872 51.2994 25.8247 50.8593 25.8247H48.7364C48.3092 25.8247 47.9468 26.1742 47.9468 26.6143V29.5139H51.636V28.7243L51.6489 28.7372Z" fill="#191919"/>
<path d="M52.4385 29.5137C52.0114 29.5137 51.6489 29.1642 51.6489 28.7241V29.5137H52.4385Z" fill="#191919"/>
<path d="M58.2507 25.8247H56.1278C55.7006 25.8247 55.3381 26.1742 55.3381 26.6143V28.7372C55.3381 29.1644 55.6876 29.5269 56.1278 29.5269H59.0273V25.8376H58.2377L58.2507 25.8247Z" fill="#191919"/>
<path d="M62.7166 25.8247H59.0273V29.5139H62.7166V25.8247Z" fill="#191919"/>
<path d="M70.095 25.8247H66.4058V29.5139H70.095V25.8247Z" fill="#191919"/>
<path d="M73.7842 25.8247H70.095V29.5139H73.7842V25.8247Z" fill="#191919"/>
<path d="M77.4734 25.8247H73.7842V29.5139H77.4734V25.8247Z" fill="#191919"/>
<path d="M78.263 29.5137C77.8358 29.5137 77.4734 29.1642 77.4734 28.7241V29.5137H78.263Z" fill="#191919"/>
<path d="M8.16804 29.5132C7.74087 29.5132 7.37842 29.8627 7.37842 30.3028V33.2024H11.0676V29.5132H8.16804Z" fill="#191919"/>
<path d="M14.7568 29.5132H11.0676V33.2024H14.7568V29.5132Z" fill="#191919"/>
<path d="M17.6694 29.5132C18.0965 29.5132 18.459 29.8627 18.459 30.3028V33.2024H14.7698V29.5132H17.6694Z" fill="#191919"/>
<path d="M19.2357 33.2027C18.8085 33.2027 18.446 32.8532 18.446 32.4131V33.2027H19.2357Z" fill="#191919"/>
<path d="M25.0348 29.5132H22.9249C22.4888 29.5132 22.1353 29.8667 22.1353 30.3028V32.4128C22.1353 32.8489 22.4888 33.2024 22.9249 33.2024H25.0348C25.4709 33.2024 25.8245 32.8489 25.8245 32.4128V30.3028C25.8245 29.8667 25.4709 29.5132 25.0348 29.5132Z" fill="#191919"/>
<path d="M33.2029 29.5132H29.5137V33.2024H33.2029V29.5132Z" fill="#191919"/>
<path d="M33.9925 29.5132H33.2029V30.3028C33.2029 29.8756 33.5524 29.5132 33.9925 29.5132Z" fill="#191919"/>
<path d="M43.4809 29.5132H41.3709C40.9348 29.5132 40.5813 29.8667 40.5813 30.3028V32.4128C40.5813 32.8489 40.9348 33.2024 41.3709 33.2024H43.4809C43.917 33.2024 44.2705 32.8489 44.2705 32.4128V30.3028C44.2705 29.8667 43.917 29.5132 43.4809 29.5132Z" fill="#191919"/>
<path d="M47.9597 32.426C47.9597 32.8531 48.3092 33.2156 48.7493 33.2156H51.6489V29.5264H47.9597V32.426Z" fill="#191919"/>
<path d="M52.4385 33.2026H54.5615C54.9886 33.2026 55.3511 32.8531 55.3511 32.413V30.2901C55.3511 29.8629 55.0016 29.5005 54.5615 29.5005H51.6619V33.1897H52.4515L52.4385 33.2026Z" fill="#191919"/>
<path d="M59.0274 30.3028V29.5132H58.2378C58.665 29.5132 59.0274 29.8627 59.0274 30.3028Z" fill="#191919"/>
<path d="M59.0273 32.426C59.0273 32.8531 59.3768 33.2156 59.817 33.2156H61.9399C62.367 33.2156 62.7295 32.8661 62.7295 32.426V29.5264H59.0403V32.426H59.0273Z" fill="#191919"/>
<path d="M66.4058 32.426C66.4058 32.8531 66.7553 33.2156 67.1954 33.2156H69.3183C69.7455 33.2156 70.1079 32.8661 70.1079 32.426V29.5264H66.4187V32.426H66.4058Z" fill="#191919"/>
<path d="M70.8846 29.5132H70.095V30.3028C70.095 29.8756 70.4445 29.5132 70.8846 29.5132Z" fill="#191919"/>
<path d="M73.7842 30.3028V29.5132H72.9946C73.4218 29.5132 73.7842 29.8627 73.7842 30.3028Z" fill="#191919"/>
<path d="M73.7842 32.426C73.7842 32.8531 74.1337 33.2156 74.5738 33.2156H77.4734V29.5264H73.7842V32.426Z" fill="#191919"/>
<path d="M81.1626 29.5132H77.4734V33.2024H81.1626V29.5132Z" fill="#191919"/>
<path d="M84.8518 29.5132H81.1626V33.2024H84.8518V29.5132Z" fill="#191919"/>
<path d="M85.6414 33.2026H87.7643C88.1915 33.2026 88.554 32.8531 88.554 32.413V30.2901C88.554 29.8629 88.2045 29.5005 87.7643 29.5005H84.8647V33.1897H85.6544L85.6414 33.2026Z" fill="#191919"/>
<path d="M98.832 29.5132H96.7091C96.2819 29.5132 95.9194 29.8627 95.9194 30.3028V32.4257C95.9194 32.8529 96.2689 33.2153 96.7091 33.2153H99.6086V29.5261H98.819L98.832 29.5132Z" fill="#191919"/>
<path d="M103.298 29.5132H99.6086V33.2024H103.298V29.5132Z" fill="#191919"/>
<path d="M106.21 29.5132C106.638 29.5132 107 29.8627 107 30.3028V33.2024H103.311V29.5132H106.21Z" fill="#191919"/>
<path d="M2.89959 33.2026H0.78962C0.353525 33.2026 0 33.5562 0 33.9923V36.1022C0 36.5383 0.353525 36.8918 0.78962 36.8918H2.89959C3.33568 36.8918 3.68921 36.5383 3.68921 36.1022V33.9923C3.68921 33.5562 3.33568 33.2026 2.89959 33.2026Z" fill="#191919"/>
<path d="M7.37842 36.1154C7.37842 36.5426 7.72792 36.905 8.16804 36.905H10.291C10.7181 36.905 11.0806 36.5555 11.0806 36.1154V33.2158H7.39136V36.1154H7.37842Z" fill="#191919"/>
<path d="M11.8572 33.2026H11.0676V33.9923C11.0676 33.5651 11.4171 33.2026 11.8572 33.2026Z" fill="#191919"/>
<path d="M14.7569 33.9923V33.2026H13.9673C14.3945 33.2026 14.7569 33.5521 14.7569 33.9923Z" fill="#191919"/>
<path d="M18.446 33.2026H14.7568V36.8918H18.446V33.2026Z" fill="#191919"/>
<path d="M21.3586 33.2026C21.7857 33.2026 22.1482 33.5521 22.1482 33.9923V36.8918H18.459V33.2026H21.3586Z" fill="#191919"/>
<path d="M22.9249 36.8917C22.4977 36.8917 22.1353 36.5422 22.1353 36.1021V36.8917H22.9249Z" fill="#191919"/>
<path d="M29.5137 36.1154C29.5137 36.5426 29.8632 36.905 30.3033 36.905H32.4262C32.8534 36.905 33.2158 36.5555 33.2158 36.1154V33.2158H29.5266V36.1154H29.5137Z" fill="#191919"/>
<path d="M77.4735 33.9923V33.2026H76.6838C77.111 33.2026 77.4735 33.5521 77.4735 33.9923Z" fill="#191919"/>
<path d="M77.4734 36.1154C77.4734 36.5426 77.8229 36.905 78.263 36.905H81.1626V33.2158H77.4734V36.1154Z" fill="#191919"/>
<path d="M84.8518 36.1154C84.8518 36.5426 84.5023 36.905 84.0622 36.905H81.1626V33.2158H84.8518V36.1154Z" fill="#191919"/>
<path d="M85.6412 33.2026H84.8516V33.9923C84.8516 33.5651 85.2011 33.2026 85.6412 33.2026Z" fill="#191919"/>
<path d="M91.4406 33.2026H89.3306C88.8945 33.2026 88.541 33.5562 88.541 33.9923V36.1022C88.541 36.5383 88.8945 36.8918 89.3306 36.8918H91.4406C91.8767 36.8918 92.2302 36.5383 92.2302 36.1022V33.9923C92.2302 33.5562 91.8767 33.2026 91.4406 33.2026Z" fill="#191919"/>
<path d="M99.6085 33.9923V33.2026H98.8188C99.246 33.2026 99.6085 33.5521 99.6085 33.9923Z" fill="#191919"/>
<path d="M99.6086 36.1154C99.6086 36.5426 99.9581 36.905 100.398 36.905H103.298V33.2158H99.6086V36.1154Z" fill="#191919"/>
<path d="M106.987 36.1154C106.987 36.5426 106.638 36.905 106.197 36.905H103.298V33.2158H106.987V36.1154Z" fill="#191919"/>
<path d="M6.5888 36.8921H4.47883C4.04273 36.8921 3.68921 37.2456 3.68921 37.6817V39.7917C3.68921 40.2278 4.04273 40.5813 4.47883 40.5813H6.5888C7.02489 40.5813 7.37842 40.2278 7.37842 39.7917V37.6817C7.37842 37.2456 7.02489 36.8921 6.5888 36.8921Z" fill="#191919"/>
<path d="M18.446 36.8921H14.7568V40.5813H18.446V36.8921Z" fill="#191919"/>
<path d="M22.1353 36.8921H18.446V40.5813H22.1353V36.8921Z" fill="#191919"/>
<path d="M25.8245 36.8921H22.1353V40.5813H25.8245V36.8921Z" fill="#191919"/>
<path d="M26.6141 40.5811H28.737C29.1642 40.5811 29.5266 40.2316 29.5266 39.7914V37.6685C29.5266 37.2414 29.1771 36.8789 28.737 36.8789H25.8374V40.5681H26.627L26.6141 40.5811Z" fill="#191919"/>
<path d="M95.1428 40.5811C95.57 40.5811 95.9324 40.2316 95.9324 39.7915V40.5811H95.1428Z" fill="#191919"/>
<path d="M99.6086 39.8046V37.6817C99.6086 37.2545 99.2591 36.8921 98.819 36.8921H96.6961C96.2689 36.8921 95.9065 37.2416 95.9065 37.6817V40.5813H99.5957V39.7917L99.6086 39.8046Z" fill="#191919"/>
<path d="M14.7568 43.4933C14.7568 43.9205 15.1063 44.283 15.5465 44.283H18.446V40.5938H14.7568V43.4933Z" fill="#191919"/>
<path d="M22.1353 40.5811H18.446V44.2703H22.1353V40.5811Z" fill="#191919"/>
<path d="M22.9249 40.5811H22.1353V41.3707C22.1353 40.9435 22.4848 40.5811 22.9249 40.5811Z" fill="#191919"/>
<path d="M22.9249 44.2706C22.4977 44.2706 22.1353 43.9211 22.1353 43.481V44.2706H22.9249Z" fill="#191919"/>
<path d="M32.4133 40.5811H30.3033C29.8672 40.5811 29.5137 40.9346 29.5137 41.3707V43.4806C29.5137 43.9167 29.8672 44.2703 30.3033 44.2703H32.4133C32.8494 44.2703 33.2029 43.9167 33.2029 43.4806V41.3707C33.2029 40.9346 32.8494 40.5811 32.4133 40.5811Z" fill="#191919"/>
<path d="M77.4731 43.4936V41.3707C77.4731 40.9435 77.1236 40.5811 76.6835 40.5811H74.5606C74.1334 40.5811 73.771 40.9306 73.771 41.3707V44.2703H77.4602V43.4806L77.4731 43.4936Z" fill="#191919"/>
<path d="M78.263 44.2706C77.8358 44.2706 77.4734 43.9211 77.4734 43.481V44.2706H78.263Z" fill="#191919"/>
<path d="M84.0751 40.5811H81.9522C81.525 40.5811 81.1626 40.9306 81.1626 41.3707V43.4936C81.1626 43.9208 81.5121 44.2832 81.9522 44.2832H84.8518V40.594H84.0622L84.0751 40.5811Z" fill="#191919"/>
<path d="M88.5408 40.5811H84.8516V44.2703H88.5408V40.5811Z" fill="#191919"/>
<path d="M92.2302 40.5811H88.541V44.2703H92.2302V40.5811Z" fill="#191919"/>
<path d="M95.9194 40.5811H92.2302V44.2703H95.9194V40.5811Z" fill="#191919"/>
<path d="M99.6086 40.5811H95.9194V44.2703H99.6086V40.5811Z" fill="#191919"/>
<path d="M100.398 44.2706C99.9711 44.2706 99.6086 43.9211 99.6086 43.481V44.2706H100.398Z" fill="#191919"/>
<path d="M2.91253 44.2705H0.78962C0.362449 44.2705 0 44.62 0 45.0601V47.183C0 47.6102 0.349504 47.9727 0.78962 47.9727H3.68921V44.2835H2.89959L2.91253 44.2705Z" fill="#191919"/>
<path d="M7.37842 44.2705H3.68921V47.9597H7.37842V44.2705Z" fill="#191919"/>
<path d="M8.16803 47.9595H10.2909C10.7181 47.9595 11.0806 47.61 11.0806 47.1699V45.0469C11.0806 44.6198 10.7311 44.2573 10.2909 44.2573H7.39136V47.9465H8.18098L8.16803 47.9595Z" fill="#191919"/>
<path d="M18.4459 45.0601V44.2705H17.6562C18.0834 44.2705 18.4459 44.62 18.4459 45.0601Z" fill="#191919"/>
<path d="M18.446 47.1828C18.446 47.61 18.7955 47.9724 19.2357 47.9724H22.1353V44.2832H18.446V47.1828Z" fill="#191919"/>
<path d="M22.9249 47.9595H25.0478C25.475 47.9595 25.8374 47.61 25.8374 47.1699V45.0469C25.8374 44.6198 25.4879 44.2573 25.0478 44.2573H22.1482V47.9465H22.9378L22.9249 47.9595Z" fill="#191919"/>
<path d="M77.4734 44.2705H73.7842V47.9597H77.4734V44.2705Z" fill="#191919"/>
<path d="M78.263 47.9595H80.3859C80.8131 47.9595 81.1755 47.61 81.1755 47.1699V45.0469C81.1755 44.6198 80.826 44.2573 80.3859 44.2573H77.4863V47.9465H78.2759L78.263 47.9595Z" fill="#191919"/>
<path d="M88.5411 45.0601V44.2705H87.7515C88.1786 44.2705 88.5411 44.62 88.5411 45.0601Z" fill="#191919"/>
<path d="M92.2302 44.2705H88.541V47.9597H92.2302V44.2705Z" fill="#191919"/>
<path d="M93.0198 44.2705H92.2302V45.0601C92.2302 44.633 92.5797 44.2705 93.0198 44.2705Z" fill="#191919"/>
<path d="M95.9195 45.0601V44.2705H95.1299C95.5571 44.2705 95.9195 44.62 95.9195 45.0601Z" fill="#191919"/>
<path d="M93.0198 47.9595C92.5927 47.9595 92.2302 47.61 92.2302 47.1699V47.9595H93.0198Z" fill="#191919"/>
<path d="M95.9194 47.1828C95.9194 47.61 96.2689 47.9724 96.7091 47.9724H99.6086V44.2832H95.9194V47.1828Z" fill="#191919"/>
<path d="M100.398 47.9595H102.521C102.948 47.9595 103.311 47.61 103.311 47.1699V45.0469C103.311 44.6198 102.961 44.2573 102.521 44.2573H99.6216V47.9465H100.411L100.398 47.9595Z" fill="#191919"/>
<path d="M13.9802 51.6485C14.4074 51.6485 14.7698 51.299 14.7698 50.8589V51.6485H13.9802Z" fill="#191919"/>
<path d="M18.446 50.872V48.7491C18.446 48.3219 18.0965 47.9595 17.6564 47.9595H15.5335C15.1063 47.9595 14.7439 48.309 14.7439 48.7491V51.6487H18.4331V50.8591L18.446 50.872Z" fill="#191919"/>
<path d="M25.0479 51.6485C25.475 51.6485 25.8375 51.299 25.8375 50.8589V51.6485H25.0479Z" fill="#191919"/>
<path d="M26.6141 47.9595C26.1869 47.9595 25.8245 48.309 25.8245 48.7491V51.6487H29.5137V47.9595H26.6141Z" fill="#191919"/>
<path d="M32.4262 47.9595C32.8534 47.9595 33.2158 48.309 33.2158 48.7491V51.6487H29.5266V47.9595H32.4262Z" fill="#191919"/>
<path d="M73.7842 50.8722C73.7842 51.2994 74.1337 51.6619 74.5738 51.6619H76.6967C77.1239 51.6619 77.4863 51.3124 77.4863 50.8722V47.9727H73.7971V50.8722H73.7842Z" fill="#191919"/>
<path d="M78.263 47.9595H77.4734V48.7491C77.4734 48.3219 77.8229 47.9595 78.263 47.9595Z" fill="#191919"/>
<path d="M84.0622 47.9595H81.9522C81.5161 47.9595 81.1626 48.313 81.1626 48.7491V50.8591C81.1626 51.2952 81.5161 51.6487 81.9522 51.6487H84.0622C84.4983 51.6487 84.8518 51.2952 84.8518 50.8591V48.7491C84.8518 48.313 84.4983 47.9595 84.0622 47.9595Z" fill="#191919"/>
<path d="M88.541 50.8722C88.541 51.2994 88.8905 51.6619 89.3306 51.6619H92.2302V47.9727H88.541V50.8722Z" fill="#191919"/>
<path d="M93.0198 51.6489H95.1427C95.5699 51.6489 95.9324 51.2994 95.9324 50.8593V48.7364C95.9324 48.3092 95.5829 47.9468 95.1427 47.9468H92.2432V51.636H93.0328L93.0198 51.6489Z" fill="#191919"/>
<path d="M106.987 50.872V48.7491C106.987 48.3219 106.638 47.9595 106.197 47.9595H104.075C103.647 47.9595 103.285 48.309 103.285 48.7491V51.6487H106.974V50.8591L106.987 50.872Z" fill="#191919"/>
<path d="M13.9802 51.6489H11.8572C11.4301 51.6489 11.0676 51.9984 11.0676 52.4385V54.5615C11.0676 54.9886 11.4171 55.3511 11.8572 55.3511H14.7568V51.6619H13.9672L13.9802 51.6489Z" fill="#191919"/>
<path d="M18.446 54.5612C18.446 54.9884 18.0965 55.3508 17.6564 55.3508H14.7568V51.6616H18.446V54.5612Z" fill="#191919"/>
<path d="M25.0478 51.6489H22.9249C22.4977 51.6489 22.1353 51.9984 22.1353 52.4385V54.5615C22.1353 54.9886 22.4848 55.3511 22.9249 55.3511H25.8245V51.6619H25.0348L25.0478 51.6489Z" fill="#191919"/>
<path d="M29.5137 51.6489H25.8245V55.3381H29.5137V51.6489Z" fill="#191919"/>
<path d="M33.2029 54.5612C33.2029 54.9884 32.8534 55.3508 32.4133 55.3508H29.5137V51.6616H33.2029V54.5612Z" fill="#191919"/>
<path d="M84.0752 55.338C84.5024 55.338 84.8648 54.9885 84.8648 54.5483V55.338H84.0752Z" fill="#191919"/>
<path d="M88.541 54.5615V52.4385C88.541 52.0114 88.1915 51.6489 87.7514 51.6489H85.6285C85.2013 51.6489 84.8389 51.9984 84.8389 52.4385V55.3381H88.5281V54.5485L88.541 54.5615Z" fill="#191919"/>
<path d="M89.3306 55.338C88.9035 55.338 88.541 54.9885 88.541 54.5483V55.338H89.3306Z" fill="#191919"/>
<path d="M99.6086 54.5615V52.4385C99.6086 52.0114 99.2591 51.6489 98.819 51.6489H96.6961C96.2689 51.6489 95.9065 51.9984 95.9065 52.4385V55.3381H99.5957V54.5485L99.6086 54.5615Z" fill="#191919"/>
<path d="M102.521 55.338C102.948 55.338 103.311 54.9885 103.311 54.5483V55.338H102.521Z" fill="#191919"/>
<path d="M100.398 55.338C99.9711 55.338 99.6086 54.9885 99.6086 54.5483V55.338H100.398Z" fill="#191919"/>
<path d="M106.987 51.6489H103.298V55.3381H106.987V51.6489Z" fill="#191919"/>
<path d="M4.47883 55.3379C4.05166 55.3379 3.68921 55.6874 3.68921 56.1275V59.0271H7.37842V55.3379H4.47883Z" fill="#191919"/>
<path d="M8.16803 59.0269H10.2909C10.7181 59.0269 11.0806 58.6774 11.0806 58.2372V56.1143C11.0806 55.6872 10.7311 55.3247 10.2909 55.3247H7.39136V59.0139H8.18098L8.16803 59.0269Z" fill="#191919"/>
<path d="M22.1353 58.2504V56.1275C22.1353 55.7003 21.7858 55.3379 21.3456 55.3379H19.2227C18.7956 55.3379 18.4331 55.6874 18.4331 56.1275V59.0271H22.1223V58.2375L22.1353 58.2504Z" fill="#191919"/>
<path d="M25.8243 56.1275V55.3379H25.0347C25.4618 55.3379 25.8243 55.6874 25.8243 56.1275Z" fill="#191919"/>
<path d="M25.0479 59.0274C25.475 59.0274 25.8375 58.6779 25.8375 58.2378V59.0274H25.0479Z" fill="#191919"/>
<path d="M22.9249 59.0274C22.4977 59.0274 22.1353 58.6779 22.1353 58.2378V59.0274H22.9249Z" fill="#191919"/>
<path d="M29.5137 55.3379H25.8245V59.0271H29.5137V55.3379Z" fill="#191919"/>
<path d="M30.3033 55.3379H29.5137V56.1275C29.5137 55.7003 29.8632 55.3379 30.3033 55.3379Z" fill="#191919"/>
<path d="M80.3859 55.3379H78.263C77.8358 55.3379 77.4734 55.6874 77.4734 56.1275V58.2504C77.4734 58.6776 77.8229 59.04 78.263 59.04H81.1626V55.3508H80.373L80.3859 55.3379Z" fill="#191919"/>
<path d="M84.8518 55.3379H81.1626V59.0271H84.8518V55.3379Z" fill="#191919"/>
<path d="M88.5408 55.3379H84.8516V59.0271H88.5408V55.3379Z" fill="#191919"/>
<path d="M89.3306 59.0269H91.4535C91.8807 59.0269 92.2432 58.6774 92.2432 58.2372V56.1143C92.2432 55.6872 91.8937 55.3247 91.4535 55.3247H88.554V59.0139H89.3436L89.3306 59.0269Z" fill="#191919"/>
<path d="M95.9194 58.2507C95.9194 58.6778 96.2689 59.0403 96.7091 59.0403H99.6086V55.3511H95.9194V58.2507Z" fill="#191919"/>
<path d="M103.298 55.3379H99.6086V59.0271H103.298V55.3379Z" fill="#191919"/>
<path d="M106.987 58.2507C106.987 58.6778 106.638 59.0403 106.197 59.0403H103.298V55.3511H106.987V58.2507Z" fill="#191919"/>
<path d="M3.68921 61.9396C3.68921 62.3668 4.03871 62.7292 4.47883 62.7292H6.60174C7.02891 62.7292 7.39136 62.3797 7.39136 61.9396V59.04H3.68921V61.9396Z" fill="#191919"/>
<path d="M8.16804 59.0273H7.37842V59.817C7.37842 59.3898 7.72792 59.0273 8.16804 59.0273Z" fill="#191919"/>
<path d="M22.1353 59.0273H18.446V62.7166H22.1353V59.0273Z" fill="#191919"/>
<path d="M25.8245 59.0273H22.1353V62.7166H25.8245V59.0273Z" fill="#191919"/>
<path d="M29.5137 61.9396C29.5137 62.3668 29.1642 62.7292 28.7241 62.7292H25.8245V59.04H29.5137V61.9396Z" fill="#191919"/>
<path d="M84.8519 59.817V59.0273H84.0623C84.4894 59.0273 84.8519 59.3768 84.8519 59.817Z" fill="#191919"/>
<path d="M88.5408 59.0273H84.8516V62.7166H88.5408V59.0273Z" fill="#191919"/>
<path d="M89.3306 59.0273H88.541V59.817C88.541 59.3898 88.8905 59.0273 89.3306 59.0273Z" fill="#191919"/>
<path d="M3.68921 65.6293V63.5064C3.68921 63.0792 3.3397 62.7168 2.89959 62.7168H0.78962C0.362449 62.7168 0 63.0663 0 63.5064V66.406H3.68921V65.6164V65.6293Z" fill="#191919"/>
<path d="M13.9672 62.7168H11.8572C11.4212 62.7168 11.0676 63.0703 11.0676 63.5064V65.6164C11.0676 66.0525 11.4212 66.406 11.8572 66.406H13.9672C14.4033 66.406 14.7568 66.0525 14.7568 65.6164V63.5064C14.7568 63.0703 14.4033 62.7168 13.9672 62.7168Z" fill="#191919"/>
<path d="M18.446 65.6291C18.446 66.0563 18.7955 66.4187 19.2357 66.4187H21.3586C21.7857 66.4187 22.1482 66.0692 22.1482 65.6291V62.7295H18.459V65.6291H18.446Z" fill="#191919"/>
<path d="M22.9249 62.7168H22.1353V63.5064C22.1353 63.0792 22.4848 62.7168 22.9249 62.7168Z" fill="#191919"/>
<path d="M33.2029 65.6293V63.5064C33.2029 63.0792 32.8534 62.7168 32.4133 62.7168H30.2904C29.8632 62.7168 29.5007 63.0663 29.5007 63.5064V66.406H33.1899V65.6164L33.2029 65.6293Z" fill="#191919"/>
<path d="M76.6967 62.7168H74.5738C74.1466 62.7168 73.7842 63.0663 73.7842 63.5064V65.6293C73.7842 66.0565 74.1337 66.419 74.5738 66.419H77.4734V62.7297H76.6838L76.6967 62.7168Z" fill="#191919"/>
<path d="M80.3859 62.7168C80.8131 62.7168 81.1755 63.0663 81.1755 63.5064V66.406H77.4863V62.7168H80.3859Z" fill="#191919"/>
<path d="M84.8516 65.6291C84.8516 66.0563 85.2011 66.4187 85.6412 66.4187H87.7641C88.1913 66.4187 88.5537 66.0692 88.5537 65.6291V62.7295H84.8645V65.6291H84.8516Z" fill="#191919"/>
<path d="M95.1298 62.7168H93.0198C92.5838 62.7168 92.2302 63.0703 92.2302 63.5064V65.6164C92.2302 66.0525 92.5838 66.406 93.0198 66.406H95.1298C95.5659 66.406 95.9194 66.0525 95.9194 65.6164V63.5064C95.9194 63.0703 95.5659 62.7168 95.1298 62.7168Z" fill="#191919"/>
<path d="M102.508 62.7168H100.398C99.9622 62.7168 99.6086 63.0703 99.6086 63.5064V65.6164C99.6086 66.0525 99.9622 66.406 100.398 66.406H102.508C102.944 66.406 103.298 66.0525 103.298 65.6164V63.5064C103.298 63.0703 102.944 62.7168 102.508 62.7168Z" fill="#191919"/>
<path d="M3.68921 66.4053H0V70.0945H3.68921V66.4053Z" fill="#191919"/>
<path d="M17.6564 66.4053H15.5465C15.1104 66.4053 14.7568 66.7588 14.7568 67.1949V69.3049C14.7568 69.741 15.1104 70.0945 15.5465 70.0945H17.6564C18.0925 70.0945 18.446 69.741 18.446 69.3049V67.1949C18.446 66.7588 18.0925 66.4053 17.6564 66.4053Z" fill="#191919"/>
<path d="M25.0348 66.4053H22.9249C22.4888 66.4053 22.1353 66.7588 22.1353 67.1949V69.3049C22.1353 69.741 22.4888 70.0945 22.9249 70.0945H25.0348C25.4709 70.0945 25.8245 69.741 25.8245 69.3049V67.1949C25.8245 66.7588 25.4709 66.4053 25.0348 66.4053Z" fill="#191919"/>
<path d="M29.5137 69.318C29.5137 69.7452 29.8632 70.1077 30.3033 70.1077H32.4262C32.8534 70.1077 33.2158 69.7582 33.2158 69.318V66.4185H29.5266V69.318H29.5137Z" fill="#191919"/>
<path d="M77.4735 67.1949V66.4053H76.6838C77.111 66.4053 77.4735 66.7548 77.4735 67.1949Z" fill="#191919"/>
<path d="M77.4734 69.318C77.4734 69.7452 77.8229 70.1077 78.263 70.1077H80.3859C80.8131 70.1077 81.1755 69.7582 81.1755 69.318V66.4185H77.4863V69.318H77.4734Z" fill="#191919"/>
<path d="M98.819 66.4053H96.7091C96.273 66.4053 95.9194 66.7588 95.9194 67.1949V69.3049C95.9194 69.741 96.273 70.0945 96.7091 70.0945H98.819C99.2551 70.0945 99.6086 69.741 99.6086 69.3049V67.1949C99.6086 66.7588 99.2551 66.4053 98.819 66.4053Z" fill="#191919"/>
<path d="M3.68921 70.0947H0V73.7839H3.68921V70.0947Z" fill="#191919"/>
<path d="M10.291 70.0947H8.16804C7.74087 70.0947 7.37842 70.4442 7.37842 70.8843V73.0073C7.37842 73.4344 7.72792 73.7969 8.16804 73.7969H11.0676V70.1077H10.278L10.291 70.0947Z" fill="#191919"/>
<path d="M13.9802 70.0947C14.4073 70.0947 14.7698 70.4442 14.7698 70.8843V73.7839H11.0806V70.0947H13.9802Z" fill="#191919"/>
<path d="M21.3456 70.0947H19.2357C18.7996 70.0947 18.446 70.4482 18.446 70.8843V72.9943C18.446 73.4304 18.7996 73.7839 19.2357 73.7839H21.3456C21.7817 73.7839 22.1353 73.4304 22.1353 72.9943V70.8843C22.1353 70.4482 21.7817 70.0947 21.3456 70.0947Z" fill="#191919"/>
<path d="M77.4731 73.0073V70.8843C77.4731 70.4572 77.1236 70.0947 76.6835 70.0947H74.5606C74.1334 70.0947 73.771 70.4442 73.771 70.8843V73.7839H77.4602V72.9943L77.4731 73.0073Z" fill="#191919"/>
<path d="M80.386 73.7838C80.8132 73.7838 81.1756 73.4343 81.1756 72.9941V73.7838H80.386Z" fill="#191919"/>
<path d="M78.263 73.7838C77.8358 73.7838 77.4734 73.4343 77.4734 72.9941V73.7838H78.263Z" fill="#191919"/>
<path d="M84.8518 73.0073V70.8843C84.8518 70.4572 84.5023 70.0947 84.0622 70.0947H81.9393C81.5121 70.0947 81.1497 70.4442 81.1497 70.8843V73.7839H84.8389V72.9943L84.8518 73.0073Z" fill="#191919"/>
<path d="M87.7644 73.7838C88.1916 73.7838 88.554 73.4343 88.554 72.9941V73.7838H87.7644Z" fill="#191919"/>
<path d="M85.6412 73.7838C85.214 73.7838 84.8516 73.4343 84.8516 72.9941V73.7838H85.6412Z" fill="#191919"/>
<path d="M89.3306 70.0947C88.9035 70.0947 88.541 70.4442 88.541 70.8843V73.7839H92.2302V70.0947H89.3306Z" fill="#191919"/>
<path d="M93.0198 73.7842H95.1427C95.5699 73.7842 95.9324 73.4347 95.9324 72.9946V70.8717C95.9324 70.4445 95.5829 70.082 95.1427 70.082H92.2432V73.7712H93.0328L93.0198 73.7842Z" fill="#191919"/>
<path d="M100.398 70.0947C99.9711 70.0947 99.6086 70.4442 99.6086 70.8843V73.7839H103.298V70.0947H100.398Z" fill="#191919"/>
<path d="M106.21 70.0947C106.638 70.0947 107 70.4442 107 70.8843V73.7839H103.311V70.0947H106.21Z" fill="#191919"/>
<path d="M0 76.697C0 77.1241 0.349504 77.4866 0.78962 77.4866H2.91253C3.3397 77.4866 3.70215 77.1371 3.70215 76.697V73.7974H0V76.697Z" fill="#191919"/>
<path d="M11.0677 74.5738V73.7842H10.2781C10.7052 73.7842 11.0677 74.1337 11.0677 74.5738Z" fill="#191919"/>
<path d="M11.0676 76.697C11.0676 77.1241 11.4171 77.4866 11.8572 77.4866H13.9802C14.4073 77.4866 14.7698 77.1371 14.7698 76.697V73.7974H11.0806V76.697H11.0676Z" fill="#191919"/>
<path d="M25.0478 73.7842H22.9249C22.4977 73.7842 22.1353 74.1337 22.1353 74.5738V76.6967C22.1353 77.1239 22.4848 77.4863 22.9249 77.4863H25.8245V73.7971H25.0348L25.0478 73.7842Z" fill="#191919"/>
<path d="M26.6141 77.4731H28.737C29.1642 77.4731 29.5266 77.1236 29.5266 76.6835V74.5606C29.5266 74.1334 29.1771 73.771 28.737 73.771H25.8374V77.4602H26.627L26.6141 77.4731Z" fill="#191919"/>
<path d="M45.0601 73.7842C44.633 73.7842 44.2705 74.1337 44.2705 74.5738V77.4734H47.9597V73.7842H45.0601Z" fill="#191919"/>
<path d="M48.7493 77.4731H50.8722C51.2994 77.4731 51.6619 77.1236 51.6619 76.6835V74.5606C51.6619 74.1334 51.3124 73.771 50.8722 73.771H47.9727V77.4602H48.7623L48.7493 77.4731Z" fill="#191919"/>
<path d="M54.5613 77.4732C54.9885 77.4732 55.3509 77.1237 55.3509 76.6836V77.4732H54.5613Z" fill="#191919"/>
<path d="M59.0273 76.6967V74.5738C59.0273 74.1466 58.6778 73.7842 58.2377 73.7842H56.1148C55.6876 73.7842 55.3252 74.1337 55.3252 74.5738V77.4734H59.0144V76.6838L59.0273 76.6967Z" fill="#191919"/>
<path d="M59.817 77.4732C59.3898 77.4732 59.0273 77.1237 59.0273 76.6836V77.4732H59.817Z" fill="#191919"/>
<path d="M65.6292 77.4732C66.0563 77.4732 66.4188 77.1237 66.4188 76.6836V77.4732H65.6292Z" fill="#191919"/>
<path d="M70.095 76.6967V74.5738C70.095 74.1466 69.7455 73.7842 69.3054 73.7842H67.1824C66.7553 73.7842 66.3928 74.1337 66.3928 74.5738V77.4734H70.082V76.6838L70.095 76.6967Z" fill="#191919"/>
<path d="M73.0073 77.4732C73.4345 77.4732 73.7969 77.1237 73.7969 76.6836V77.4732H73.0073Z" fill="#191919"/>
<path d="M70.8846 77.4732C70.4574 77.4732 70.095 77.1237 70.095 76.6836V77.4732H70.8846Z" fill="#191919"/>
<path d="M77.4734 73.7842H73.7842V77.4734H77.4734V73.7842Z" fill="#191919"/>
<path d="M81.1626 73.7842H77.4734V77.4734H81.1626V73.7842Z" fill="#191919"/>
<path d="M84.8518 73.7842H81.1626V77.4734H84.8518V73.7842Z" fill="#191919"/>
<path d="M88.5408 73.7842H84.8516V77.4734H88.5408V73.7842Z" fill="#191919"/>
<path d="M92.2302 73.7842H88.541V77.4734H92.2302V73.7842Z" fill="#191919"/>
<path d="M93.0198 73.7842H92.2302V74.5738C92.2302 74.1466 92.5797 73.7842 93.0198 73.7842Z" fill="#191919"/>
<path d="M93.0198 77.4732C92.5927 77.4732 92.2302 77.1237 92.2302 76.6836V77.4732H93.0198Z" fill="#191919"/>
<path d="M99.6086 76.697C99.6086 77.1241 99.9581 77.4866 100.398 77.4866H103.298V73.7974H99.6086V76.697Z" fill="#191919"/>
<path d="M106.987 73.7842H103.298V77.4734H106.987V73.7842Z" fill="#191919"/>
<path d="M32.4262 77.4731H30.3033C29.8761 77.4731 29.5137 77.8226 29.5137 78.2628V80.3857C29.5137 80.8128 29.8632 81.1753 30.3033 81.1753H33.2029V77.4861H32.4133L32.4262 77.4731Z" fill="#191919"/>
<path d="M36.1154 77.4731C36.5426 77.4731 36.905 77.8226 36.905 78.2628V81.1624H33.2158V77.4731H36.1154Z" fill="#191919"/>
<path d="M44.2705 80.3854C44.2705 80.8126 44.62 81.175 45.0601 81.175H47.183C47.6102 81.175 47.9727 80.8255 47.9727 80.3854V77.4858H44.2835V80.3854H44.2705Z" fill="#191919"/>
<path d="M48.7493 77.4731H47.9597V78.2628C47.9597 77.8356 48.3092 77.4731 48.7493 77.4731Z" fill="#191919"/>
<path d="M54.5615 77.4731H52.4385C52.0114 77.4731 51.6489 77.8226 51.6489 78.2628V80.3857C51.6489 80.8128 51.9984 81.1753 52.4385 81.1753H55.3381V77.4861H54.5485L54.5615 77.4731Z" fill="#191919"/>
<path d="M59.0273 77.4731H55.3381V81.1624H59.0273V77.4731Z" fill="#191919"/>
<path d="M62.7166 77.4731H59.0273V81.1624H62.7166V77.4731Z" fill="#191919"/>
<path d="M66.4058 77.4731H62.7166V81.1624H66.4058V77.4731Z" fill="#191919"/>
<path d="M70.095 77.4731H66.4058V81.1624H70.095V77.4731Z" fill="#191919"/>
<path d="M73.7842 77.4731H70.095V81.1624H73.7842V77.4731Z" fill="#191919"/>
<path d="M77.4734 77.4731H73.7842V81.1624H77.4734V77.4731Z" fill="#191919"/>
<path d="M78.263 77.4731H77.4734V78.2628C77.4734 77.8356 77.8229 77.4731 78.263 77.4731Z" fill="#191919"/>
<path d="M88.5411 78.2628V77.4731H87.7515C88.1786 77.4731 88.5411 77.8226 88.5411 78.2628Z" fill="#191919"/>
<path d="M92.2302 77.4731H88.541V81.1624H92.2302V77.4731Z" fill="#191919"/>
<path d="M95.1427 77.4731C95.5699 77.4731 95.9324 77.8226 95.9324 78.2628V81.1624H92.2432V77.4731H95.1427Z" fill="#191919"/>
<path d="M96.7091 81.1627C96.2819 81.1627 95.9194 80.8132 95.9194 80.373V81.1627H96.7091Z" fill="#191919"/>
<path d="M103.298 78.2628V77.4731H102.508C102.935 77.4731 103.298 77.8226 103.298 78.2628Z" fill="#191919"/>
<path d="M103.298 80.3854C103.298 80.8126 103.647 81.175 104.087 81.175H106.21C106.638 81.175 107 80.8255 107 80.3854V77.4858H103.311V80.3854H103.298Z" fill="#191919"/>
<path d="M33.2029 81.9522V81.1626H32.4133C32.8405 81.1626 33.2029 81.5121 33.2029 81.9522Z" fill="#191919"/>
<path d="M33.2029 84.0749C33.2029 84.5021 33.5524 84.8645 33.9925 84.8645H36.1154C36.5426 84.8645 36.905 84.515 36.905 84.0749V81.1753H33.2158V84.0749H33.2029Z" fill="#191919"/>
<path d="M51.6489 84.0751V81.9522C51.6489 81.525 51.2994 81.1626 50.8593 81.1626H48.7364C48.3092 81.1626 47.9468 81.5121 47.9468 81.9522V84.8518H51.636V84.0622L51.6489 84.0751Z" fill="#191919"/>
<path d="M62.7164 81.9522V81.1626H61.9268C62.3539 81.1626 62.7164 81.5121 62.7164 81.9522Z" fill="#191919"/>
<path d="M66.4058 81.1626H62.7166V84.8518H66.4058V81.1626Z" fill="#191919"/>
<path d="M67.1954 81.1626H66.4058V81.9522C66.4058 81.525 66.7553 81.1626 67.1954 81.1626Z" fill="#191919"/>
<path d="M70.095 81.9522V81.1626H69.3054C69.7326 81.1626 70.095 81.5121 70.095 81.9522Z" fill="#191919"/>
<path d="M73.7842 81.1626H70.095V84.8518H73.7842V81.1626Z" fill="#191919"/>
<path d="M77.4734 81.1626H73.7842V84.8518H77.4734V81.1626Z" fill="#191919"/>
<path d="M84.0622 81.1626H81.9522C81.5161 81.1626 81.1626 81.5161 81.1626 81.9522V84.0622C81.1626 84.4983 81.5161 84.8518 81.9522 84.8518H84.0622C84.4983 84.8518 84.8518 84.4983 84.8518 84.0622V81.9522C84.8518 81.5161 84.4983 81.1626 84.0622 81.1626Z" fill="#191919"/>
<path d="M92.2302 81.1626H88.541V84.8518H92.2302V81.1626Z" fill="#191919"/>
<path d="M95.9194 81.1626H92.2302V84.8518H95.9194V81.1626Z" fill="#191919"/>
<path d="M99.6086 81.1626H95.9194V84.8518H99.6086V81.1626Z" fill="#191919"/>
<path d="M102.521 81.1626C102.948 81.1626 103.311 81.5121 103.311 81.9522V84.8518H99.6216V81.1626H102.521Z" fill="#191919"/>
<path d="M104.087 84.8516C103.66 84.8516 103.298 84.5021 103.298 84.062V84.8516H104.087Z" fill="#191919"/>
<path d="M51.6489 84.8516H47.9597V88.5408H51.6489V84.8516Z" fill="#191919"/>
<path d="M52.4385 88.5406C52.0114 88.5406 51.6489 88.1911 51.6489 87.751V88.5406H52.4385Z" fill="#191919"/>
<path d="M66.4058 84.8516H62.7166V88.5408H66.4058V84.8516Z" fill="#191919"/>
<path d="M69.3184 88.5406C69.7455 88.5406 70.108 88.1911 70.108 87.751V88.5406H69.3184Z" fill="#191919"/>
<path d="M67.1954 88.5406C66.7682 88.5406 66.4058 88.1911 66.4058 87.751V88.5406H67.1954Z" fill="#191919"/>
<path d="M73.7842 84.8516H70.095V88.5408H73.7842V84.8516Z" fill="#191919"/>
<path d="M77.4734 84.8516H73.7842V88.5408H77.4734V84.8516Z" fill="#191919"/>
<path d="M78.263 88.5406C77.8358 88.5406 77.4734 88.1911 77.4734 87.751V88.5406H78.263Z" fill="#191919"/>
<path d="M87.7644 88.5406C88.1916 88.5406 88.554 88.1911 88.554 87.751V88.5406H87.7644Z" fill="#191919"/>
<path d="M92.2302 84.8516H88.541V88.5408H92.2302V84.8516Z" fill="#191919"/>
<path d="M95.9194 87.7643C95.9194 88.1915 95.5699 88.554 95.1298 88.554H92.2302V84.8647H95.9194V87.7643Z" fill="#191919"/>
<path d="M96.7091 84.8516H95.9194V85.6412C95.9194 85.214 96.2689 84.8516 96.7091 84.8516Z" fill="#191919"/>
<path d="M99.6085 85.6412V84.8516H98.8188C99.246 84.8516 99.6085 85.2011 99.6085 85.6412Z" fill="#191919"/>
<path d="M99.6086 87.7643C99.6086 88.1915 99.9581 88.554 100.398 88.554H103.298V84.8647H99.6086V87.7643Z" fill="#191919"/>
<path d="M104.087 88.541H106.21C106.638 88.541 107 88.1915 107 87.7514V85.6285C107 85.2013 106.651 84.8389 106.21 84.8389H103.311V88.5281H104.1L104.087 88.541Z" fill="#191919"/>
<path d="M33.2029 91.4535V89.3306C33.2029 88.9035 32.8534 88.541 32.4133 88.541H30.2904C29.8632 88.541 29.5007 88.8905 29.5007 89.3306V92.2302H33.1899V91.4406L33.2029 91.4535Z" fill="#191919"/>
<path d="M33.9925 92.2301C33.5653 92.2301 33.2029 91.8805 33.2029 91.4404V92.2301H33.9925Z" fill="#191919"/>
<path d="M39.8046 88.541H37.6817C37.2545 88.541 36.8921 88.8905 36.8921 89.3306V91.4535C36.8921 91.8807 37.2416 92.2432 37.6817 92.2432H40.5813V88.554H39.7917L39.8046 88.541Z" fill="#191919"/>
<path d="M41.3709 92.23H43.4938C43.921 92.23 44.2834 91.8805 44.2834 91.4404V89.3175C44.2834 88.8903 43.9339 88.5278 43.4938 88.5278H40.5942V92.217H41.3839L41.3709 92.23Z" fill="#191919"/>
<path d="M47.1831 92.2301C47.6103 92.2301 47.9727 91.8805 47.9727 91.4404V92.2301H47.1831Z" fill="#191919"/>
<path d="M51.6489 88.541H47.9597V92.2302H51.6489V88.541Z" fill="#191919"/>
<path d="M55.3381 88.541H51.6489V92.2302H55.3381V88.541Z" fill="#191919"/>
<path d="M58.2507 88.541C58.6778 88.541 59.0403 88.8905 59.0403 89.3306V92.2302H55.3511V88.541H58.2507Z" fill="#191919"/>
<path d="M61.9399 92.2301C62.3671 92.2301 62.7296 91.8805 62.7296 91.4404V92.2301H61.9399Z" fill="#191919"/>
<path d="M59.817 92.2301C59.3898 92.2301 59.0273 91.8805 59.0273 91.4404V92.2301H59.817Z" fill="#191919"/>
<path d="M66.4058 88.541H62.7166V92.2302H66.4058V88.541Z" fill="#191919"/>
<path d="M70.095 88.541H66.4058V92.2302H70.095V88.541Z" fill="#191919"/>
<path d="M73.7842 88.541H70.095V92.2302H73.7842V88.541Z" fill="#191919"/>
<path d="M77.4734 88.541H73.7842V92.2302H77.4734V88.541Z" fill="#191919"/>
<path d="M81.1626 88.541H77.4734V92.2302H81.1626V88.541Z" fill="#191919"/>
<path d="M84.8518 88.541H81.1626V92.2302H84.8518V88.541Z" fill="#191919"/>
<path d="M88.5408 88.541H84.8516V92.2302H88.5408V88.541Z" fill="#191919"/>
<path d="M92.2302 88.541H88.541V92.2302H92.2302V88.541Z" fill="#191919"/>
<path d="M93.0198 88.541H92.2302V89.3306C92.2302 88.9035 92.5797 88.541 93.0198 88.541Z" fill="#191919"/>
<path d="M93.0198 92.2301C92.5927 92.2301 92.2302 91.8805 92.2302 91.4404V92.2301H93.0198Z" fill="#191919"/>
<path d="M33.2029 92.23H29.5137V95.9192H33.2029V92.23Z" fill="#191919"/>
<path d="M36.1154 92.23C36.5426 92.23 36.905 92.5795 36.905 93.0196V95.9192H33.2158V92.23H36.1154Z" fill="#191919"/>
<path d="M43.4939 95.9195C43.9211 95.9195 44.2835 95.57 44.2835 95.1299V95.9195H43.4939Z" fill="#191919"/>
<path d="M45.0601 92.23C44.633 92.23 44.2705 92.5795 44.2705 93.0196V95.9192H47.9597V92.23H45.0601Z" fill="#191919"/>
<path d="M51.6489 92.23H47.9597V95.9192H51.6489V92.23Z" fill="#191919"/>
<path d="M55.3381 92.23H51.6489V95.9192H55.3381V92.23Z" fill="#191919"/>
<path d="M59.0273 92.23H55.3381V95.9192H59.0273V92.23Z" fill="#191919"/>
<path d="M62.7166 92.23H59.0273V95.9192H62.7166V92.23Z" fill="#191919"/>
<path d="M66.4058 92.23H62.7166V95.9192H66.4058V92.23Z" fill="#191919"/>
<path d="M67.1954 92.23H66.4058V93.0196C66.4058 92.5924 66.7553 92.23 67.1954 92.23Z" fill="#191919"/>
<path d="M67.1954 95.9195C66.7682 95.9195 66.4058 95.57 66.4058 95.1299V95.9195H67.1954Z" fill="#191919"/>
<path d="M73.7842 93.0196V92.23H72.9946C73.4218 92.23 73.7842 92.5795 73.7842 93.0196Z" fill="#191919"/>
<path d="M73.7842 95.1427C73.7842 95.5699 74.1337 95.9324 74.5738 95.9324H77.4734V92.2432H73.7842V95.1427Z" fill="#191919"/>
<path d="M81.1626 92.23H77.4734V95.9192H81.1626V92.23Z" fill="#191919"/>
<path d="M84.8518 92.23H81.1626V95.9192H84.8518V92.23Z" fill="#191919"/>
<path d="M85.6412 92.23H84.8516V93.0196C84.8516 92.5924 85.2011 92.23 85.6412 92.23Z" fill="#191919"/>
<path d="M88.5411 93.0196V92.23H87.7515C88.1786 92.23 88.5411 92.5795 88.5411 93.0196Z" fill="#191919"/>
<path d="M87.7644 95.9195C88.1916 95.9195 88.554 95.57 88.554 95.1299V95.9195H87.7644Z" fill="#191919"/>
<path d="M85.6412 95.9195C85.214 95.9195 84.8516 95.57 84.8516 95.1299V95.9195H85.6412Z" fill="#191919"/>
<path d="M92.2302 92.23H88.541V95.9192H92.2302V92.23Z" fill="#191919"/>
<path d="M93.0198 95.919H95.1427C95.5699 95.919 95.9324 95.5694 95.9324 95.1293V93.0064C95.9324 92.5792 95.5829 92.2168 95.1427 92.2168H92.2432V95.906H93.0328L93.0198 95.919Z" fill="#191919"/>
<path d="M29.5137 98.8317C29.5137 99.2589 29.8632 99.6213 30.3033 99.6213H33.2029V95.9321H29.5137V98.8317Z" fill="#191919"/>
<path d="M36.8921 95.9194H33.2029V99.6086H36.8921V95.9194Z" fill="#191919"/>
<path d="M43.4938 95.9194H41.3709C40.9437 95.9194 40.5813 96.2689 40.5813 96.7091V98.832C40.5813 99.2591 40.9308 99.6216 41.3709 99.6216H44.2705V95.9324H43.4809L43.4938 95.9194Z" fill="#191919"/>
<path d="M47.9597 95.9194H44.2705V99.6086H47.9597V95.9194Z" fill="#191919"/>
<path d="M51.6489 95.9194H47.9597V99.6086H51.6489V95.9194Z" fill="#191919"/>
<path d="M55.3381 95.9194H51.6489V99.6086H55.3381V95.9194Z" fill="#191919"/>
<path d="M56.1278 95.9194H55.3381V96.7091C55.3381 96.2819 55.6876 95.9194 56.1278 95.9194Z" fill="#191919"/>
<path d="M59.0274 96.7091V95.9194H58.2378C58.665 95.9194 59.0274 96.2689 59.0274 96.7091Z" fill="#191919"/>
<path d="M59.0273 98.8317C59.0273 99.2589 59.3768 99.6213 59.817 99.6213H62.7166V95.9321H59.0273V98.8317Z" fill="#191919"/>
<path d="M66.4058 95.9194H62.7166V99.6086H66.4058V95.9194Z" fill="#191919"/>
<path d="M69.3183 95.9194C69.7455 95.9194 70.1079 96.2689 70.1079 96.7091V99.6086H66.4187V95.9194H69.3183Z" fill="#191919"/>
<path d="M70.8846 99.6085C70.4574 99.6085 70.095 99.259 70.095 98.8188V99.6085H70.8846Z" fill="#191919"/>
<path d="M77.4735 96.7091V95.9194H76.6838C77.111 95.9194 77.4735 96.2689 77.4735 96.7091Z" fill="#191919"/>
<path d="M77.4734 98.8317C77.4734 99.2589 77.8229 99.6213 78.263 99.6213H81.1626V95.9321H77.4734V98.8317Z" fill="#191919"/>
<path d="M84.8518 95.9194H81.1626V99.6086H84.8518V95.9194Z" fill="#191919"/>
<path d="M88.5408 95.9194H84.8516V99.6086H88.5408V95.9194Z" fill="#191919"/>
<path d="M92.2302 98.8317C92.2302 99.2589 91.8807 99.6213 91.4406 99.6213H88.541V95.9321H92.2302V98.8317Z" fill="#191919"/>
<path d="M93.0198 95.9194H92.2302V96.7091C92.2302 96.2819 92.5797 95.9194 93.0198 95.9194Z" fill="#191919"/>
<path d="M98.832 95.9194H96.7091C96.2819 95.9194 95.9194 96.2689 95.9194 96.7091V98.832C95.9194 99.2591 96.2689 99.6216 96.7091 99.6216H99.6086V95.9324H98.819L98.832 95.9194Z" fill="#191919"/>
<path d="M100.398 99.6084H102.521C102.948 99.6084 103.311 99.2589 103.311 98.8188V96.6959C103.311 96.2687 102.961 95.9062 102.521 95.9062H99.6216V99.5955H100.411L100.398 99.6084Z" fill="#191919"/>
<path d="M33.2029 100.399V99.6089H32.4133C32.8405 99.6089 33.2029 99.9584 33.2029 100.399Z" fill="#191919"/>
<path d="M33.2029 102.521C33.2029 102.948 33.5524 103.311 33.9925 103.311H36.1154C36.5426 103.311 36.905 102.961 36.905 102.521V99.6216H33.2158V102.521H33.2029Z" fill="#191919"/>
<path d="M44.2703 100.399V99.6089H43.4807C43.9079 99.6089 44.2703 99.9584 44.2703 100.399Z" fill="#191919"/>
<path d="M44.2705 102.521C44.2705 102.948 44.62 103.311 45.0601 103.311H47.183C47.6102 103.311 47.9727 102.961 47.9727 102.521V99.6216H44.2835V102.521H44.2705Z" fill="#191919"/>
<path d="M48.7493 99.6089H47.9597V100.399C47.9597 99.9713 48.3092 99.6089 48.7493 99.6089Z" fill="#191919"/>
<path d="M51.649 100.399V99.6089H50.8594C51.2865 99.6089 51.649 99.9584 51.649 100.399Z" fill="#191919"/>
<path d="M55.3381 99.6089H51.6489V103.298H55.3381V99.6089Z" fill="#191919"/>
<path d="M62.7164 100.399V99.6089H61.9268C62.3539 99.6089 62.7164 99.9584 62.7164 100.399Z" fill="#191919"/>
<path d="M66.4058 99.6089H62.7166V103.298H66.4058V99.6089Z" fill="#191919"/>
<path d="M70.095 99.6089H66.4058V103.298H70.095V99.6089Z" fill="#191919"/>
<path d="M70.8846 103.298H73.0075C73.4347 103.298 73.7971 102.948 73.7971 102.508V100.385C73.7971 99.9582 73.4476 99.5957 73.0075 99.5957H70.1079V103.285H70.8975L70.8846 103.298Z" fill="#191919"/>
<path d="M84.8519 100.399V99.6089H84.0623C84.4894 99.6089 84.8519 99.9584 84.8519 100.399Z" fill="#191919"/>
<path d="M88.5408 99.6089H84.8516V103.298H88.5408V99.6089Z" fill="#191919"/>
<path d="M89.3306 99.6089H88.541V100.399C88.541 99.9713 88.8905 99.6089 89.3306 99.6089Z" fill="#191919"/>
<path d="M91.4534 103.297C91.8805 103.297 92.243 102.948 92.243 102.508V103.297H91.4534Z" fill="#191919"/>
<path d="M89.3306 103.297C88.9035 103.297 88.541 102.948 88.541 102.508V103.297H89.3306Z" fill="#191919"/>
<path d="M95.9194 102.521V100.399C95.9194 99.9713 95.5699 99.6089 95.1298 99.6089H93.0069C92.5797 99.6089 92.2173 99.9584 92.2173 100.399V103.298H95.9065V102.508L95.9194 102.521Z" fill="#191919"/>
<path d="M106.197 99.6089H104.087C103.651 99.6089 103.298 99.9624 103.298 100.399V102.508C103.298 102.945 103.651 103.298 104.087 103.298H106.197C106.634 103.298 106.987 102.945 106.987 102.508V100.399C106.987 99.9624 106.634 99.6089 106.197 99.6089Z" fill="#191919"/>
<path d="M39.7917 103.297H37.6817C37.2456 103.297 36.8921 103.651 36.8921 104.087V106.197C36.8921 106.633 37.2456 106.987 37.6817 106.987H39.7917C40.2278 106.987 40.5813 106.633 40.5813 106.197V104.087C40.5813 103.651 40.2278 103.297 39.7917 103.297Z" fill="#191919"/>
<path d="M51.6489 106.21C51.6489 106.637 51.9984 107 52.4385 107H54.5615C54.9886 107 55.3511 106.65 55.3511 106.21V103.311H51.6619V106.21H51.6489Z" fill="#191919"/>
<path d="M62.7166 106.21C62.7166 106.637 63.0661 107 63.5062 107H66.4058V103.311H62.7166V106.21Z" fill="#191919"/>
<path d="M70.095 106.21C70.095 106.637 69.7455 107 69.3054 107H66.4058V103.311H70.095V106.21Z" fill="#191919"/>
<path d="M70.8846 103.297H70.095V104.087C70.095 103.66 70.4445 103.297 70.8846 103.297Z" fill="#191919"/>
<path d="M80.373 103.297H78.263C77.8269 103.297 77.4734 103.651 77.4734 104.087V106.197C77.4734 106.633 77.8269 106.987 78.263 106.987H80.373C80.8091 106.987 81.1626 106.633 81.1626 106.197V104.087C81.1626 103.651 80.8091 103.297 80.373 103.297Z" fill="#191919"/>
<path d="M84.8516 106.21C84.8516 106.637 85.2011 107 85.6412 107H88.5408V103.311H84.8516V106.21Z" fill="#191919"/>
<path d="M92.2302 103.297H88.541V106.987H92.2302V103.297Z" fill="#191919"/>
<path d="M95.9194 106.21C95.9194 106.637 95.5699 107 95.1298 107H92.2302V103.311H95.9194V106.21Z" fill="#191919"/>
<path d="M0.78962 0C0.349504 0 0 0.349504 0 0.78962V25.0478C0 25.475 0.349504 25.8374 0.78962 25.8374H25.0478C25.475 25.8374 25.8374 25.4879 25.8374 25.0478V0.78962C25.8374 0.349504 25.475 0 25.0478 0H0.78962ZM22.1353 7.37842V21.6822C22.1353 21.9281 21.9281 22.1353 21.6822 22.1353H4.14227C3.89632 22.1353 3.68921 21.9281 3.68921 21.6822V4.14227C3.68921 3.89632 3.89632 3.68921 4.14227 3.68921H21.6822C21.9281 3.68921 22.1353 3.89632 22.1353 4.14227V7.37842Z" fill="#191919"/>
<path d="M18.446 14.7568V8.16804C18.446 7.74087 18.0965 7.37842 17.6564 7.37842H8.16804C7.74087 7.37842 7.37842 7.72792 7.37842 8.16804V17.6694C7.37842 18.0965 7.72792 18.459 8.16804 18.459H17.6694C18.0965 18.459 18.459 18.1095 18.459 17.6694V14.7568H18.446Z" fill="#191919"/>
<path d="M81.9522 0C81.525 0 81.1626 0.349504 81.1626 0.78962V25.0478C81.1626 25.475 81.5121 25.8374 81.9522 25.8374H106.21C106.638 25.8374 107 25.4879 107 25.0478V0.78962C107 0.349504 106.638 0 106.21 0H81.9522ZM103.311 7.37842V21.6822C103.311 21.9281 103.104 22.1353 102.858 22.1353H85.3178C85.0719 22.1353 84.8647 21.9281 84.8647 21.6822V4.14227C84.8647 3.89632 85.0719 3.68921 85.3178 3.68921H102.858C103.104 3.68921 103.311 3.89632 103.311 4.14227V7.37842Z" fill="#191919"/>
<path d="M99.6086 14.7568V8.16804C99.6086 7.74087 99.2591 7.37842 98.819 7.37842H89.3177C88.8905 7.37842 88.5281 7.72792 88.5281 8.16804V17.6694C88.5281 18.0965 88.8776 18.459 89.3177 18.459H98.819C99.2462 18.459 99.6086 18.1095 99.6086 17.6694V14.7568Z" fill="#191919"/>
<path d="M0.78962 81.1626C0.362449 81.1626 0 81.5121 0 81.9522V106.21C0 106.638 0.349504 107 0.78962 107H25.0478C25.475 107 25.8374 106.651 25.8374 106.21V81.9522C25.8374 81.525 25.4879 81.1626 25.0478 81.1626H0.78962ZM22.1482 88.541V102.845C22.1482 103.091 21.9411 103.298 21.6951 103.298H4.14227C3.89632 103.298 3.68921 103.091 3.68921 102.845V85.3049C3.68921 85.0589 3.89632 84.8518 4.14227 84.8518H21.6822C21.9281 84.8518 22.1353 85.0589 22.1353 85.3049V88.541H22.1482Z" fill="#191919"/>
<path d="M18.446 95.9192V89.3175C18.446 88.8903 18.0965 88.5278 17.6564 88.5278H8.16804C7.74087 88.5278 7.37842 88.8773 7.37842 89.3175V98.8188C7.37842 99.246 7.72792 99.6084 8.16804 99.6084H17.6694C18.0965 99.6084 18.459 99.2589 18.459 98.8188V95.9062L18.446 95.9192Z" fill="#191919"/>
<path d="M50.4709 65.383L53.5 67.2729L64.6712 60.3087V56.3994L50.4709 65.383Z" fill="#191919"/>
<path d="M59.4028 43.4028L42.3289 54.2116V58.7551L63.0273 45.6681L59.4028 43.4028Z" fill="#191919"/>
<path d="M64.6711 48.2441L43.9727 61.3311L47.5971 63.5835L64.6711 52.7877V48.2441Z" fill="#191919"/>
<path d="M53.5 39.7271L42.3289 46.6912V50.5876L56.5291 41.617L53.5 39.7271Z" fill="#191919"/>
</svg>
