<svg width="41" height="41" viewBox="0 0 41 41" fill="none" xmlns="http://www.w3.org/2000/svg">
<path d="M14.9995 24.4277C14.9995 25.7272 16.0567 26.7843 17.3561 26.7843C18.3891 26.7843 19.2784 26.1217 19.5916 25.1683L15.0618 23.8879C15.0203 24.0557 14.9978 24.2357 14.9978 24.426L14.9995 24.4277Z" fill="white"/>
<path d="M20.5 0C9.17725 0 0 9.17725 0 20.5C0 31.8228 9.17725 41 20.5 41C31.8228 41 41 31.8228 41 20.5C41 9.17725 31.821 0 20.5 0ZM29.9281 13.4285V27.9643C29.9281 28.1806 29.7516 28.3571 29.5354 28.3571C29.3191 28.3571 29.1426 28.1806 29.1426 27.9643V27.8691L20.3495 25.3845C19.9411 26.6735 18.7473 27.5715 17.3561 27.5715C15.6224 27.5715 14.214 26.1614 14.214 24.4294C14.214 24.1647 14.2486 23.9138 14.3074 23.6767L11.8349 22.9777C11.783 23.1352 11.6377 23.2494 11.4629 23.2494C11.2466 23.2494 11.0701 23.0729 11.0701 22.8566V18.1417C11.0701 17.9254 11.2466 17.7489 11.4629 17.7489C11.6515 17.7489 11.809 17.8821 11.847 18.0603L13.2883 17.7783L29.1426 13.1326V13.034C29.1426 12.8177 29.3191 12.6412 29.5354 12.6412C29.7516 12.6412 29.9281 12.8177 29.9281 13.034V13.4267V13.4285Z" fill="white"/>
</svg>
