<svg width="27" height="20" viewBox="0 0 27 20" fill="none" xmlns="http://www.w3.org/2000/svg">
<path d="M0.140009 11.8313C0.326622 11.6413 0.606541 11.6413 0.793154 11.8313L7.25463 18.409L7.25463 2.21405C7.25463 1.95285 7.46457 1.73913 7.72116 1.73913C7.97776 1.73913 8.1877 1.95285 8.1877 2.21405L8.16437 18.3853L14.8591 11.6176C14.9524 11.5226 15.0691 11.4751 15.1857 11.4751C15.3023 11.4751 15.419 11.5226 15.5123 11.6176C15.6989 11.8075 15.6989 12.0925 15.5123 12.2825L8.07106 19.8575C8.04774 19.8813 8.02441 19.905 8.00109 19.905C7.97776 19.905 7.97776 19.9288 7.95443 19.9288C7.93111 19.9525 7.90778 19.9525 7.86113 19.9763C7.81447 20 7.76782 20 7.72117 20C7.60453 20 7.4879 19.9525 7.39459 19.8575L0.140009 12.4724C-0.0466039 12.3066 -0.0466039 11.9975 0.140009 11.8313Z" fill="white"/>
<path d="M26.8165 8.16871C26.6299 8.35868 26.35 8.35868 26.1634 8.16871L19.7019 1.591L19.7019 17.7859C19.7019 18.0472 19.492 18.2609 19.2354 18.2609C18.9788 18.2609 18.7688 18.0472 18.7688 17.7859L18.7922 1.61475L12.0974 8.38243C12.0041 8.47741 11.8875 8.52491 11.7709 8.52491C11.6542 8.52491 11.5376 8.47741 11.4443 8.38243C11.2577 8.19246 11.2577 7.9075 11.4443 7.71753L18.8855 0.142478C18.9088 0.118731 18.9321 0.094985 18.9555 0.094985C18.9788 0.094985 18.9788 0.0712388 19.0021 0.0712388C19.0254 0.0474925 19.0488 0.0474925 19.0954 0.0237463C19.1421 0 19.1887 0 19.2354 0C19.352 0 19.4686 0.0474925 19.562 0.142478L26.8165 7.52756C27.0031 7.69336 27.0031 8.00249 26.8165 8.16871Z" fill="white"/>
</svg>
