<svg width="42" height="42" viewBox="0 0 42 42" fill="none" xmlns="http://www.w3.org/2000/svg">
<path d="M35.8495 6.15048C31.8818 2.1828 26.6092 0 21 0C15.3908 0 10.1182 2.18573 6.15048 6.15048C2.18573 10.1182 0 15.3908 0 21C0 26.6092 2.18573 31.8818 6.15048 35.8495C10.1182 39.8172 15.3908 42 21 42C26.6092 42 31.8818 39.8143 35.8495 35.8495C39.8143 31.8818 42 26.6092 42 21C42 15.3908 39.8143 10.1182 35.8495 6.15048ZM21 39.5392C16.0082 39.5392 11.4729 37.5554 8.13724 34.3368C9.94259 28.8154 15.1333 25.0203 21 25.0203C26.8667 25.0203 32.0574 28.8183 33.8628 34.3368C30.5271 37.5554 25.9918 39.5392 21 39.5392ZM14.8466 16.4062C14.8466 13.0149 17.6058 10.2528 21 10.2528C24.3942 10.2528 27.1534 13.012 27.1534 16.4062C27.1534 19.8003 24.3942 22.5596 21 22.5596C17.6058 22.5596 14.8466 19.8003 14.8466 16.4062ZM35.7091 32.2681C33.8979 28.0312 30.3428 24.8155 26.0474 23.3789C28.2038 21.8134 29.6113 19.2707 29.6113 16.4062C29.6113 11.6572 25.746 7.79197 20.9971 7.79197C16.2482 7.79197 12.3829 11.6572 12.3829 16.4062C12.3829 19.2707 13.7874 21.8134 15.9468 23.3789C11.6514 24.8126 8.09628 28.0312 6.28508 32.2681C3.88575 29.1431 2.45785 25.2369 2.45785 21C2.45785 10.7765 10.7736 2.46077 20.9971 2.46077C31.2206 2.46077 39.5363 10.7765 39.5363 21C39.5363 25.2339 38.1084 29.1431 35.7091 32.2681Z" fill="#0B24FA"/>
</svg>
