<svg width="42" height="42" viewBox="0 0 42 42" fill="none" xmlns="http://www.w3.org/2000/svg">
<path d="M35.8495 6.15048C31.8818 2.18281 26.6092 0 21 0C15.3908 0 10.1182 2.18573 6.15048 6.15048C2.18573 10.1182 0 15.3908 0 21C0 26.6092 2.18573 31.8818 6.15048 35.8495C10.1182 39.8172 15.3908 42 21 42C26.6092 42 31.8818 39.8143 35.8495 35.8495C39.8143 31.8818 42 26.6092 42 21C42 15.3908 39.8143 10.1182 35.8495 6.15048ZM35.712 32.2652C33.9008 28.0283 30.3457 24.8126 26.0503 23.3759C28.2068 21.8105 29.6142 19.2678 29.6142 16.4032C29.6142 11.6543 25.7489 7.78905 21 7.78905C16.2511 7.78905 12.3858 11.6543 12.3858 16.4032C12.3858 19.2678 13.7903 21.8105 15.9497 23.3759C11.6543 24.8097 8.09921 28.0283 6.288 32.2652C3.88867 29.1402 2.46078 25.2339 2.46078 20.9971C2.46078 10.7736 10.7765 2.45785 21 2.45785C31.2235 2.45785 39.5392 10.7736 39.5392 20.9971C39.5392 25.231 38.1113 29.1402 35.712 32.2652Z" fill="#0B24FA"/>
</svg>
