<svg width="155" height="22" viewBox="0 0 155 22" fill="none" xmlns="http://www.w3.org/2000/svg">
<path d="M6.50585 20.495L8.92231 22L17.8446 16.4415V13.3205L6.50585 20.495Z" fill="#0000FF"/>
<path d="M13.6383 2.93814L0 11.5667V15.2003L16.5315 4.74299L13.6383 2.93814Z" fill="#0000FF"/>
<path d="M17.8446 6.79968L1.31317 17.26L4.20632 19.0619L17.8446 10.4334V6.79968Z" fill="#0000FF"/>
<path d="M8.92232 0L0 5.56146V8.67948L11.3388 1.50504L8.92232 0Z" fill="#0000FF"/>
<path d="M36.7236 17.3829V12.1902H32.0466V17.3829H28.9016V4.61707H32.0466V9.61788H36.7236V4.61707H39.8656V17.3829H36.7236Z" fill="#0000FF"/>
<path d="M46.9591 4.61707H54.9131V7.10848H50.1041V9.67785H54.6852V12.1693H50.1041V14.8915H54.973V17.3829H46.9621V4.61707H46.9591Z" fill="#0000FF"/>
<path d="M71.3576 8.66149C71.3576 9.51895 71.1178 10.2655 70.6381 10.9041C70.1584 11.5427 69.4898 12.0283 68.6353 12.3611L72.8327 17.3829H68.9621L65.4544 12.9548H64.8787V17.3829H61.7337V4.61707H65.7961C66.5876 4.61707 67.3222 4.70101 67.9997 4.86591C68.6773 5.0308 69.2649 5.28264 69.7626 5.61243C70.2603 5.94522 70.6501 6.36196 70.9319 6.86863C71.2137 7.37231 71.3546 7.97193 71.3546 8.66149H71.3576ZM68.3295 8.71846C68.3295 8.14282 68.1047 7.72009 67.658 7.44427C67.2112 7.16844 66.5846 7.03053 65.7782 7.03053H64.8787V10.6133H65.6462C66.4887 10.6133 67.1483 10.4484 67.619 10.1156C68.0927 9.78278 68.3295 9.31807 68.3295 8.71546V8.71846Z" fill="#0000FF"/>
<path d="M90.8662 11C90.8662 11.9084 90.7193 12.7599 90.4255 13.5574C90.1317 14.3549 89.7059 15.0564 89.1513 15.6561C88.5967 16.2557 87.9161 16.7324 87.1096 17.0831C86.3031 17.4339 85.3827 17.6108 84.3484 17.6108C83.314 17.6108 82.3906 17.4339 81.5781 17.0831C80.7656 16.7324 80.0821 16.2557 79.5274 15.6561C78.9728 15.0564 78.5501 14.3549 78.2622 13.5574C77.9744 12.7599 77.8305 11.9054 77.8305 11C77.8305 10.0946 77.9744 9.24013 78.2622 8.44264C78.5501 7.64515 78.9728 6.9436 79.5274 6.34398C80.0821 5.74436 80.7656 5.26766 81.5781 4.91689C82.3906 4.56611 83.311 4.38922 84.3484 4.38922C85.3857 4.38922 86.3031 4.56611 87.1096 4.91689C87.9131 5.26766 88.5937 5.74436 89.1513 6.34398C89.7059 6.9436 90.1317 7.64515 90.4255 8.44264C90.7193 9.24013 90.8662 10.0946 90.8662 11ZM84.3514 15.1194C84.9 15.1194 85.3857 15.0175 85.8084 14.8136C86.2312 14.6097 86.5849 14.3249 86.8728 13.9591C87.1606 13.5964 87.3734 13.1616 87.5143 12.655C87.6553 12.1513 87.7242 11.5966 87.7242 10.997C87.7242 10.3974 87.6523 9.84275 87.5143 9.33907C87.3734 8.83539 87.1606 8.40067 86.8728 8.0349C86.5849 7.67213 86.2312 7.38731 85.8084 7.18344C85.3857 6.97957 84.9 6.87764 84.3514 6.87764C83.8027 6.87764 83.299 6.97957 82.8853 7.18344C82.4686 7.38731 82.1178 7.67213 81.83 8.0349C81.5422 8.39767 81.3293 8.83239 81.1884 9.33907C81.0475 9.84275 80.9785 10.3974 80.9785 10.997C80.9785 11.5966 81.0475 12.1513 81.1884 12.655C81.3293 13.1616 81.5422 13.5934 81.83 13.9591C82.1178 14.3219 82.4686 14.6067 82.8853 14.8136C83.302 15.0175 83.7907 15.1194 84.3514 15.1194Z" fill="#0000FF"/>
<path d="M98.7062 7.50418H96.8234L95.9959 4.40416L95.0305 8.74539H93.2856L94.9976 1.09726H96.7305L98.0166 5.75929L100.889 1.09726H102.751L101.785 8.74539H100.04L100.592 4.46112L98.7092 7.50418H98.7062Z" fill="#0000FF"/>
<path d="M111.073 4.18531C111.073 4.76094 110.974 5.32758 110.774 5.89122C110.576 6.45486 110.288 6.95854 109.919 7.40226C109.547 7.84598 109.092 8.20275 108.552 8.47557C108.012 8.7484 107.401 8.88332 106.72 8.88332C106.144 8.88332 105.647 8.79637 105.221 8.61948C104.795 8.4426 104.445 8.20575 104.166 7.90594C103.887 7.60613 103.68 7.26435 103.545 6.87759C103.41 6.49084 103.344 6.09209 103.344 5.67836C103.344 5.01278 103.449 4.39217 103.659 3.81654C103.869 3.24091 104.166 2.74322 104.543 2.31749C104.921 1.89176 105.377 1.55898 105.911 1.31913C106.441 1.07928 107.035 0.95636 107.685 0.95636C108.261 0.95636 108.759 1.04031 109.185 1.2082C109.61 1.37609 109.961 1.60695 110.24 1.90376C110.519 2.19757 110.729 2.54235 110.866 2.9321C111.004 3.32185 111.073 3.73859 111.073 4.18531ZM106.825 7.43524C107.215 7.43524 107.56 7.3423 107.859 7.15342C108.159 6.96454 108.408 6.72169 108.612 6.41888C108.816 6.11608 108.969 5.77729 109.077 5.40253C109.185 5.02777 109.239 4.65301 109.239 4.27825C109.239 4.0324 109.209 3.79855 109.146 3.5707C109.086 3.34584 108.987 3.14497 108.852 2.97408C108.717 2.80019 108.546 2.66527 108.336 2.56034C108.126 2.4584 107.871 2.40444 107.572 2.40444C107.182 2.40444 106.837 2.50038 106.543 2.69226C106.249 2.88413 106.001 3.12998 105.797 3.43278C105.593 3.73559 105.44 4.07438 105.338 4.44914C105.236 4.8239 105.182 5.19566 105.182 5.56143C105.182 5.80727 105.212 6.04112 105.275 6.26898C105.338 6.49683 105.431 6.69471 105.563 6.8656C105.692 7.03649 105.863 7.1744 106.067 7.27934C106.27 7.38427 106.525 7.43524 106.825 7.43524Z" fill="#0000FF"/>
<path d="M111.442 8.74539L112.785 1.09726H115.54C115.84 1.09726 116.119 1.13324 116.38 1.20519C116.641 1.27715 116.869 1.38508 117.07 1.52599C117.267 1.6669 117.426 1.84378 117.54 2.05365C117.654 2.26352 117.711 2.50336 117.711 2.77019C117.711 3.03703 117.666 3.29186 117.573 3.50473C117.48 3.72059 117.357 3.90647 117.201 4.06837C117.046 4.23027 116.86 4.36818 116.644 4.4881C116.431 4.60803 116.197 4.70396 115.942 4.78191C116.38 4.91983 116.728 5.1177 116.992 5.37854C117.255 5.63937 117.387 5.97815 117.387 6.40088C117.387 6.8536 117.279 7.22836 117.061 7.53117C116.842 7.83397 116.566 8.07382 116.233 8.25371C115.9 8.43359 115.537 8.55951 115.142 8.63147C114.746 8.70342 114.371 8.7394 114.011 8.7394H111.439L111.442 8.74539ZM115.588 6.35591C115.588 6.0561 115.481 5.84324 115.262 5.71732C115.043 5.5914 114.773 5.52844 114.452 5.52844H113.82L113.499 7.36627H114.221C114.404 7.36627 114.581 7.34528 114.749 7.30331C114.917 7.26134 115.064 7.19838 115.187 7.11443C115.31 7.03048 115.406 6.92555 115.481 6.79963C115.552 6.67371 115.588 6.5268 115.588 6.35891V6.35591ZM114.623 4.16131C114.953 4.16131 115.235 4.07736 115.472 3.90947C115.708 3.74158 115.828 3.49573 115.828 3.17494C115.828 2.96207 115.75 2.79118 115.597 2.66526C115.445 2.53934 115.247 2.47638 115.001 2.47638H114.356L114.056 4.16431H114.62L114.623 4.16131Z" fill="#0000FF"/>
<path d="M119.906 8.74539H118.068L119.411 1.09726H121.249L119.906 8.74539Z" fill="#0000FF"/>
<path d="M124.637 1.09726L123.545 7.29731H126.154L125.902 8.74539H121.459L122.802 1.09726H124.64H124.637Z" fill="#0000FF"/>
<path d="M128.792 8.74539H126.954L128.297 1.09726H130.135L128.792 8.74539Z" fill="#0000FF"/>
<path d="M131.409 1.09726H136.599L136.347 2.55433L132.27 7.29731H135.646L135.415 8.74539H130.315L130.165 7.28832L134.255 2.54534H131.155L131.406 1.09726H131.409Z" fill="#0000FF"/>
<path d="M137.738 1.09726H142.331L142.08 2.53335H139.324L139.037 4.15232H141.654L141.402 5.5884H138.794L138.485 7.3123H141.276L141.024 8.74839H136.395L137.738 1.10026V1.09726Z" fill="#0000FF"/>
<path d="M148.807 3.25589C148.807 3.5617 148.759 3.84352 148.663 4.09836C148.567 4.35619 148.433 4.58705 148.262 4.79391C148.091 5.00078 147.884 5.18067 147.641 5.33357C147.398 5.48647 147.137 5.61839 146.856 5.72332L148.831 8.7424H146.697L145.033 6.04412H144.586L144.115 8.7424H142.277L143.621 1.09427H146.286C146.676 1.09427 147.029 1.14823 147.341 1.25617C147.656 1.3641 147.92 1.511 148.139 1.69689C148.358 1.88577 148.523 2.11062 148.639 2.37445C148.756 2.63829 148.81 2.9321 148.81 3.2529L148.807 3.25589ZM145.249 4.63502C145.479 4.63502 145.698 4.61403 145.908 4.57206C146.118 4.53008 146.304 4.45813 146.46 4.35919C146.616 4.26025 146.742 4.12834 146.838 3.96944C146.934 3.81054 146.981 3.60967 146.981 3.37282C146.981 3.05802 146.889 2.83616 146.7 2.70724C146.511 2.57832 146.277 2.51237 145.992 2.51237H145.21L144.832 4.63801H145.246L145.249 4.63502Z" fill="#0000FF"/>
<path d="M154.504 6.51781C154.504 6.87758 154.432 7.20438 154.291 7.49519C154.15 7.78601 153.952 8.03485 153.7 8.24172C153.448 8.44858 153.146 8.60748 152.792 8.71841C152.438 8.82934 152.054 8.88631 151.632 8.88631C151.263 8.88631 150.861 8.84133 150.426 8.75439C149.989 8.66745 149.602 8.53853 149.266 8.37063L149.656 6.95853C149.971 7.11144 150.294 7.23136 150.627 7.31531C150.96 7.39925 151.275 7.44123 151.575 7.44123C151.703 7.44123 151.832 7.42923 151.958 7.40525C152.084 7.38126 152.198 7.34229 152.303 7.28532C152.408 7.22836 152.489 7.15341 152.549 7.06047C152.609 6.96753 152.642 6.8536 152.642 6.71569C152.642 6.52381 152.567 6.34692 152.411 6.18802C152.255 6.02912 151.997 5.82525 151.632 5.57941C151.401 5.42651 151.188 5.26761 150.987 5.10271C150.786 4.93782 150.615 4.76093 150.471 4.56905C150.324 4.37718 150.213 4.17331 150.132 3.95444C150.052 3.73558 150.013 3.49274 150.013 3.22591C150.013 2.85714 150.073 2.53335 150.195 2.24853C150.318 1.96671 150.495 1.72986 150.723 1.54098C150.954 1.3521 151.23 1.21119 151.551 1.10926C151.871 1.00732 152.231 0.959351 152.63 0.959351C153.433 0.959351 154.177 1.15722 154.857 1.55597L154.48 2.9231C154.228 2.77919 153.946 2.65627 153.64 2.55434C153.334 2.4554 153.041 2.40443 152.756 2.40443C152.495 2.40443 152.279 2.44341 152.108 2.52435C151.934 2.6053 151.85 2.7672 151.85 3.01304C151.85 3.17494 151.913 3.32185 152.039 3.45376C152.165 3.58868 152.387 3.77456 152.699 4.01141C152.93 4.1883 153.152 4.36219 153.37 4.53308C153.589 4.70397 153.781 4.88985 153.946 5.09072C154.111 5.2886 154.246 5.50746 154.348 5.73831C154.45 5.97216 154.504 6.23 154.504 6.51481V6.51781Z" fill="#0000FF"/>
</svg>
