<svg width="29" height="29" viewBox="0 0 29 29" fill="none" xmlns="http://www.w3.org/2000/svg">
<path d="M14.5024 26.2094C20.9693 26.2094 26.2118 20.9669 26.2118 14.4999C26.2118 8.03301 20.9693 2.79053 14.5024 2.79053C8.03545 2.79053 2.79297 8.03301 2.79297 14.4999C2.79297 20.9669 8.03545 26.2094 14.5024 26.2094Z" fill="#0000FF"/>
<path d="M14.5 29C6.50565 29 0 22.4963 0 14.5C0 6.50375 6.50565 0 14.5 0C22.4943 0 29 6.50565 29 14.5C29 22.4943 22.4963 29 14.5 29ZM14.5 1.81274C7.50447 1.81274 1.81274 7.50447 1.81274 14.5C1.81274 21.4955 7.50447 27.1873 14.5 27.1873C21.4955 27.1873 27.1873 21.4955 27.1873 14.5C27.1873 7.50447 21.4955 1.81274 14.5 1.81274Z" fill="#0000FF"/>
<path d="M13.0977 19.9952L14.4968 20.8682L19.6605 17.6487V15.8436L13.0977 19.9952Z" fill="white"/>
<path d="M17.2254 9.83366L9.33203 14.8296V16.9321L18.9008 10.8782L17.2254 9.83366Z" fill="white"/>
<path d="M19.6626 12.0676L10.0938 18.1234L11.7692 19.1661L19.6626 14.172V12.0676Z" fill="white"/>
<path d="M14.4958 8.13147L9.33203 11.3509V13.158L15.8949 9.00448L14.4958 8.13147Z" fill="white"/>
</svg>
