<svg width="126" height="23" viewBox="0 0 126 23" fill="none" xmlns="http://www.w3.org/2000/svg">
<path d="M6.61829 20.849L9.07649 22.38L18.1529 16.7255V13.5506L6.61829 20.849Z" fill="white"/>
<path d="M13.8739 2.98889L0 11.7664V15.4629L16.817 4.82492L13.8739 2.98889Z" fill="white"/>
<path d="M18.1528 6.91711L1.33582 17.5581L4.27895 19.3911L18.1528 10.6136V6.91711Z" fill="white"/>
<path d="M9.07643 0L0 5.65752V8.82939L11.5346 1.53104L9.07643 0Z" fill="white"/>
<path d="M37.358 17.6832V12.4008H32.6002V17.6832H29.4009V4.69684H32.6002V9.78403H37.358V4.69684H40.5543V17.6832H37.358Z" fill="white"/>
<path d="M47.7703 4.69684H55.8616V7.23129H50.9696V9.84503H55.6298V12.3795H50.9696V15.1488H55.9226V17.6832H47.7733V4.69684H47.7703Z" fill="white"/>
<path d="M72.5902 8.81112C72.5902 9.68339 72.3462 10.4428 71.8582 11.0924C71.3702 11.7421 70.6901 12.2361 69.8209 12.5747L74.0907 17.6832H70.1533L66.5849 13.1785H65.9994V17.6832H62.8V4.69684H66.9326C67.7378 4.69684 68.485 4.78223 69.1743 4.94998C69.8636 5.11772 70.4613 5.37391 70.9676 5.7094C71.4739 6.04793 71.8704 6.47187 72.1571 6.9873C72.4438 7.49968 72.5871 8.10965 72.5871 8.81112H72.5902ZM69.5098 8.86907C69.5098 8.28349 69.281 7.85346 68.8266 7.57287C68.3722 7.29228 67.7347 7.15199 66.9143 7.15199H65.9994V10.7966H66.7801C67.6372 10.7966 68.3081 10.6288 68.787 10.2903C69.2688 9.95178 69.5098 9.47905 69.5098 8.86602V8.86907Z" fill="white"/>
<path d="M92.4358 11.19C92.4358 12.1141 92.2863 12.9803 91.9875 13.7916C91.6886 14.6028 91.2555 15.3165 90.6913 15.9265C90.127 16.5364 89.4347 17.0214 88.6143 17.3782C87.7939 17.735 86.8576 17.915 85.8054 17.915C84.7531 17.915 83.8138 17.735 82.9873 17.3782C82.1608 17.0214 81.4654 16.5364 80.9012 15.9265C80.3369 15.3165 79.9069 14.6028 79.6141 13.7916C79.3213 12.9803 79.1749 12.1111 79.1749 11.19C79.1749 10.2689 79.3213 9.39973 79.6141 8.58846C79.9069 7.77719 80.3369 7.06352 80.9012 6.45355C81.4654 5.84357 82.1608 5.35864 82.9873 5.00181C83.8138 4.64497 84.7501 4.46503 85.8054 4.46503C86.8606 4.46503 87.7939 4.64497 88.6143 5.00181C89.4317 5.35864 90.124 5.84357 90.6913 6.45355C91.2555 7.06352 91.6886 7.77719 91.9875 8.58846C92.2863 9.39973 92.4358 10.2689 92.4358 11.19ZM85.8084 15.3805C86.3665 15.3805 86.8606 15.2768 87.2906 15.0694C87.7207 14.8621 88.0806 14.5723 88.3734 14.2002C88.6661 13.8312 88.8827 13.389 89.026 12.8735C89.1694 12.3612 89.2395 11.7969 89.2395 11.187C89.2395 10.577 89.1663 10.0128 89.026 9.50037C88.8827 8.98799 88.6661 8.54576 88.3734 8.17368C88.0806 7.80464 87.7207 7.5149 87.2906 7.30751C86.8606 7.10012 86.3665 6.99642 85.8084 6.99642C85.2503 6.99642 84.7379 7.10012 84.317 7.30751C83.8931 7.5149 83.5362 7.80464 83.2435 8.17368C82.9507 8.54271 82.7341 8.98494 82.5908 9.50037C82.4474 10.0128 82.3773 10.577 82.3773 11.187C82.3773 11.7969 82.4474 12.3612 82.5908 12.8735C82.7341 13.389 82.9507 13.8281 83.2435 14.2002C83.5362 14.5693 83.8931 14.859 84.317 15.0694C84.7409 15.2768 85.2381 15.3805 85.8084 15.3805Z" fill="white"/>
<path d="M100.32 0.975952C100.71 0.975952 101.085 1.00645 101.448 1.0705C101.811 1.13455 102.162 1.25044 102.506 1.42123L102.168 2.79978C101.933 2.69913 101.671 2.61374 101.381 2.54969C101.088 2.48259 100.786 2.44904 100.475 2.44904C100.054 2.44904 99.6761 2.52224 99.3376 2.67168C98.9991 2.82113 98.7093 3.02852 98.4745 3.29691C98.2396 3.5653 98.0566 3.89163 97.9316 4.27287C97.8066 4.6541 97.7456 5.08414 97.7456 5.55687C97.7456 6.24309 97.9316 6.74937 98.3067 7.07571C98.6819 7.40204 99.1851 7.56674 99.8256 7.56674C100.131 7.56674 100.411 7.54844 100.667 7.50879C100.924 7.46914 101.186 7.40509 101.451 7.31055L101.637 8.67689C101.296 8.81719 100.957 8.91173 100.622 8.96358C100.286 9.01543 99.9232 9.03983 99.5358 9.03983C98.9198 9.03983 98.386 8.95138 97.9285 8.77754C97.4741 8.60369 97.0929 8.3597 96.7909 8.05167C96.486 7.74363 96.2603 7.38069 96.1078 6.96591C95.9553 6.55113 95.879 6.1028 95.879 5.62701C95.879 4.96519 95.9797 4.35217 96.1779 3.78794C96.3762 3.22371 96.6659 2.73268 97.041 2.31485C97.4192 1.89702 97.8828 1.57068 98.4379 1.33279C98.9899 1.0949 99.6212 0.975952 100.332 0.975952H100.32Z" fill="white"/>
<path d="M107.865 7.37767H104.955L104.208 8.89651H102.153L106.404 1.11627H108.472L110.015 8.89651H108.1L107.865 7.37767ZM105.681 5.90458H107.642L107.197 2.76321L105.678 5.90458H105.681Z" fill="white"/>
<path d="M117.515 3.31218C117.515 3.62327 117.466 3.90996 117.369 4.1692C117.271 4.43149 117.134 4.66633 116.96 4.87677C116.786 5.08721 116.576 5.2702 116.329 5.42575C116.082 5.58129 115.816 5.71549 115.529 5.82223L117.539 8.89346H115.368L113.675 6.14857H113.221L112.742 8.89346H110.872L112.239 1.11322H114.95C115.346 1.11322 115.706 1.16812 116.024 1.27791C116.344 1.38771 116.612 1.53715 116.835 1.72625C117.057 1.91839 117.225 2.14713 117.344 2.41552C117.463 2.68391 117.518 2.9828 117.518 3.30913L117.515 3.31218ZM113.895 4.71513C114.13 4.71513 114.352 4.69378 114.566 4.65108C114.779 4.60838 114.968 4.53518 115.127 4.43454C115.285 4.33389 115.414 4.1997 115.511 4.03805C115.609 3.87641 115.658 3.67207 115.658 3.43113C115.658 3.11089 115.563 2.8852 115.371 2.75405C115.179 2.62291 114.941 2.55581 114.651 2.55581H113.855L113.471 4.71818H113.892L113.895 4.71513Z" fill="white"/>
<path d="M119.43 1.11627H121.779C122.346 1.11627 122.867 1.18947 123.337 1.33891C123.807 1.48836 124.212 1.7049 124.551 1.99158C124.889 2.28132 125.152 2.62901 125.338 3.04379C125.524 3.45553 125.618 3.93131 125.618 4.46809C125.618 5.14516 125.49 5.75818 125.237 6.30716C124.984 6.85614 124.633 7.32277 124.185 7.70401C123.737 8.08524 123.206 8.38108 122.596 8.58542C121.986 8.78976 121.324 8.89346 120.617 8.89346H118.058L119.424 1.11322L119.43 1.11627ZM120.763 7.42342C121.705 7.41427 122.44 7.15808 122.965 6.6457C123.49 6.13332 123.755 5.43185 123.755 4.53823C123.755 3.88251 123.56 3.39453 123.169 3.07124C122.779 2.74795 122.27 2.58631 121.638 2.58631H121.031L120.177 7.42342H120.763Z" fill="white"/>
</svg>
