<svg width="50" height="50" viewBox="0 0 50 50" fill="none" xmlns="http://www.w3.org/2000/svg">
<path d="M25.0005 50C11.2155 50 0 38.7855 0 25.0005C0 11.2155 11.2155 0 25.0005 0C38.7855 0 50 11.2155 50 25.0005C50 38.7855 38.7855 50 25.0005 50ZM25.0005 3.12518C12.9386 3.12518 3.12518 12.9386 3.12518 25.0005C3.12518 37.0623 12.9386 46.8748 25.0005 46.8748C37.0623 46.8748 46.8748 37.0623 46.8748 25.0005C46.8748 12.9386 37.0623 3.12518 25.0005 3.12518Z" fill="white"/>
<path d="M24.9995 4.811C13.8488 4.811 4.81003 13.8498 4.81003 25.0005C4.81003 36.1512 13.8488 45.19 24.9995 45.19C36.1502 45.19 45.189 36.1512 45.189 25.0005C45.189 13.8498 36.1502 4.811 24.9995 4.811ZM16.0953 19.5709L24.9995 14.0216L27.4119 15.5248L16.0953 22.6853V19.5709ZM16.0953 25.567L29.7064 16.9544L32.594 18.7541L16.0953 29.1929V25.566V25.567ZM33.9038 30.4301L24.9995 35.9794L22.5872 34.4762L33.9038 27.3157V30.4301ZM33.9038 24.434L20.2926 33.0466L17.406 31.2479L33.9038 20.809V24.435V24.434Z" fill="white"/>
</svg>
