<svg width="12" height="14" viewBox="0 0 12 14" fill="none" xmlns="http://www.w3.org/2000/svg">
<path d="M5.9293 0.776855L0 4.06022V10.4829L5.9293 13.7663L11.8586 10.4829V4.06022L5.9293 0.776855Z" fill="#9999FF"/>
<path d="M8.80366 5.53366C8.61921 5.36959 8.3197 5.36969 8.135 5.53366L5.12557 8.20719L3.78801 7.01898C3.60331 6.8549 3.30393 6.8549 3.11923 7.01898C2.93454 7.18305 2.93454 7.44901 3.11923 7.61308L4.79111 9.0983C4.8834 9.18028 5.00442 9.22138 5.12544 9.22138C5.24647 9.22138 5.3676 9.18039 5.45989 9.0983L8.80366 6.12776C8.98836 5.9638 8.98836 5.69772 8.80366 5.53366Z" fill="white"/>
</svg>
