<svg width="12" height="17" viewBox="0 0 12 17" fill="none" xmlns="http://www.w3.org/2000/svg">
<path d="M6 0C4.4087 0 2.88258 0.656632 1.75736 1.82544C0.632141 2.99426 0 4.57951 0 6.23246C0 9.52433 5.34545 16.4877 5.57455 16.788C5.62566 16.8541 5.69042 16.9076 5.76406 16.9443C5.83769 16.9809 5.91833 17 6 17C6.08167 17 6.16231 16.9809 6.23594 16.9443C6.30958 16.9076 6.37435 16.8541 6.42546 16.788C6.65455 16.4877 12 9.52433 12 6.23246C12 4.57951 11.3679 2.99426 10.2426 1.82544C9.11742 0.656632 7.5913 0 6 0ZM6 7.93222C5.56848 7.93222 5.14665 7.7993 4.78785 7.55027C4.42905 7.30124 4.1494 6.94728 3.98426 6.53316C3.81913 6.11904 3.77592 5.66336 3.8601 5.22373C3.94429 4.7841 4.15209 4.38027 4.45722 4.06332C4.76235 3.74637 5.15112 3.53052 5.57435 3.44307C5.99758 3.35562 6.43627 3.4005 6.83495 3.57204C7.23362 3.74357 7.57437 4.03406 7.81412 4.40675C8.05386 4.77945 8.18182 5.21763 8.18182 5.66587C8.18182 6.26694 7.95195 6.8434 7.54278 7.26842C7.13361 7.69344 6.57865 7.93222 6 7.93222Z" fill="white"/>
</svg>
