<svg width="40" height="40" viewBox="0 0 40 40" fill="none" xmlns="http://www.w3.org/2000/svg">
<path d="M20 39C30.4934 39 39 30.4934 39 20C39 9.50659 30.4934 1 20 1C9.50659 1 1 9.50659 1 20C1 30.4934 9.50659 39 20 39Z" stroke="white" stroke-width="1.3" stroke-miterlimit="10"/>
<path d="M20.1294 31.2589C26.2761 31.2589 31.2589 26.2761 31.2589 20.1294C31.2589 13.9828 26.2761 9 20.1294 9C13.9828 9 9 13.9828 9 20.1294C9 26.2761 13.9828 31.2589 20.1294 31.2589Z" stroke="white" stroke-width="1.5" stroke-miterlimit="10"/>
<path d="M20.1295 27.801C24.3663 27.801 27.801 24.3663 27.801 20.1295C27.801 15.8926 24.3663 12.458 20.1295 12.458C15.8926 12.458 12.458 15.8926 12.458 20.1295C12.458 24.3663 15.8926 27.801 20.1295 27.801Z" stroke="white" stroke-width="1.5" stroke-miterlimit="10"/>
<path d="M20.1298 23.9663C22.2488 23.9663 23.9666 22.2485 23.9666 20.1295C23.9666 18.0105 22.2488 16.2927 20.1298 16.2927C18.0108 16.2927 16.293 18.0105 16.293 20.1295C16.293 22.2485 18.0108 23.9663 20.1298 23.9663Z" stroke="white" stroke-width="1.5" stroke-miterlimit="10"/>
</svg>
