<svg width="25" height="25" viewBox="0 0 25 25" fill="none" xmlns="http://www.w3.org/2000/svg">
<path d="M12.5 24C18.8513 24 24 18.8513 24 12.5C24 6.14873 18.8513 1 12.5 1C6.14873 1 1 6.14873 1 12.5C1 18.8513 6.14873 24 12.5 24Z" stroke="white" stroke-width="2" stroke-miterlimit="10"/>
<path d="M12.5002 20.4271C16.8781 20.4271 20.4271 16.8781 20.4271 12.5002C20.4271 8.12224 16.8781 4.57324 12.5002 4.57324C8.12224 4.57324 4.57324 8.12224 4.57324 12.5002C4.57324 16.8781 8.12224 20.4271 12.5002 20.4271Z" stroke="white" stroke-width="2" stroke-miterlimit="10"/>
<path d="M12.4999 16.4647C14.6895 16.4647 16.4645 14.6897 16.4645 12.5002C16.4645 10.3106 14.6895 8.53564 12.4999 8.53564C10.3104 8.53564 8.5354 10.3106 8.5354 12.5002C8.5354 14.6897 10.3104 16.4647 12.4999 16.4647Z" stroke="white" stroke-width="2" stroke-miterlimit="10"/>
</svg>
