<svg width="9" height="12" viewBox="0 0 9 12" fill="none" xmlns="http://www.w3.org/2000/svg">
<path d="M4.5 0L0 2.80507V8.29217L4.5 11.0972L9 8.29217V2.80507L4.5 0Z" fill="white"/>
<path d="M6.68198 4.06408C6.54199 3.92391 6.31468 3.924 6.1745 4.06408L3.89052 6.34815L2.87539 5.33303C2.73521 5.19286 2.508 5.19286 2.36782 5.33303C2.22765 5.4732 2.22765 5.70042 2.36782 5.84059L3.63669 7.10945C3.70673 7.17949 3.79857 7.2146 3.89042 7.2146C3.98227 7.2146 4.07421 7.17958 4.14425 7.10945L6.68198 4.57163C6.82215 4.43156 6.82215 4.20424 6.68198 4.06408Z" fill="#0000FF"/>
</svg>
