<svg width="26" height="25" viewBox="0 0 26 25" fill="none" xmlns="http://www.w3.org/2000/svg">
<path d="M12.5396 24C18.8908 24 24.0396 18.8513 24.0396 12.5C24.0396 6.14873 18.8908 1 12.5396 1C6.18828 1 1.03955 6.14873 1.03955 12.5C1.03955 18.8513 6.18828 24 12.5396 24Z" stroke="#191919" stroke-width="2" stroke-miterlimit="10"/>
<path d="M12.5397 20.4271C16.9176 20.4271 20.4666 16.8781 20.4666 12.5002C20.4666 8.12224 16.9176 4.57324 12.5397 4.57324C8.16179 4.57324 4.61279 8.12224 4.61279 12.5002C4.61279 16.8781 8.16179 20.4271 12.5397 20.4271Z" stroke="#191919" stroke-width="2" stroke-miterlimit="10"/>
<path d="M12.5397 16.4645C14.7293 16.4645 16.5043 14.6895 16.5043 12.4999C16.5043 10.3104 14.7293 8.5354 12.5397 8.5354C10.3502 8.5354 8.5752 10.3104 8.5752 12.4999C8.5752 14.6895 10.3502 16.4645 12.5397 16.4645Z" stroke="#191919" stroke-width="2" stroke-miterlimit="10"/>
</svg>
