<svg width="38" height="38" viewBox="0 0 38 38" fill="none" xmlns="http://www.w3.org/2000/svg">
<path d="M19 38C29.4934 38 38 29.4934 38 19C38 8.50659 29.4934 0 19 0C8.50659 0 0 8.50659 0 19C0 29.4934 8.50659 38 19 38Z" fill="#0000FF"/>
<path d="M19.1294 30.2589C25.2761 30.2589 30.2589 25.2761 30.2589 19.1294C30.2589 12.9828 25.2761 8 19.1294 8C12.9828 8 8 12.9828 8 19.1294C8 25.2761 12.9828 30.2589 19.1294 30.2589Z" stroke="white" stroke-width="1.5" stroke-miterlimit="10"/>
<path d="M19.1295 26.801C23.3663 26.801 26.801 23.3663 26.801 19.1295C26.801 14.8926 23.3663 11.458 19.1295 11.458C14.8926 11.458 11.458 14.8926 11.458 19.1295C11.458 23.3663 14.8926 26.801 19.1295 26.801Z" stroke="white" stroke-width="1.5" stroke-miterlimit="10"/>
<path d="M19.1293 22.9663C21.2483 22.9663 22.9661 21.2485 22.9661 19.1295C22.9661 17.0105 21.2483 15.2927 19.1293 15.2927C17.0103 15.2927 15.2925 17.0105 15.2925 19.1295C15.2925 21.2485 17.0103 22.9663 19.1293 22.9663Z" stroke="white" stroke-width="1.5" stroke-miterlimit="10"/>
</svg>
