<svg width="15" height="15" viewBox="0 0 15 15" fill="none" xmlns="http://www.w3.org/2000/svg">
<path d="M7.5 0C6.01664 0 4.56659 0.439867 3.33323 1.26398C2.09986 2.08809 1.13856 3.25943 0.570907 4.62987C0.00324962 6.00032 -0.145275 7.50832 0.144114 8.96317C0.433503 10.418 1.14781 11.7544 2.1967 12.8033C3.2456 13.8522 4.58197 14.5665 6.03682 14.8559C7.49168 15.1453 8.99968 14.9967 10.3701 14.4291C11.7406 13.8614 12.9119 12.9001 13.736 11.6668C14.5601 10.4334 15 8.98336 15 7.5C15 5.51087 14.2098 3.60322 12.8033 2.1967C11.3968 0.790176 9.48913 0 7.5 0ZM11.5179 3.75C11.8887 3.75 12.2512 3.85997 12.5596 4.06599C12.8679 4.27202 13.1082 4.56486 13.2501 4.90747C13.392 5.25008 13.4292 5.62708 13.3568 5.99079C13.2845 6.35451 13.1059 6.6886 12.8437 6.95082C12.5815 7.21305 12.2474 7.39162 11.8837 7.46397C11.5199 7.53632 11.1429 7.49919 10.8003 7.35727C10.4577 7.21536 10.1649 6.97503 9.95885 6.66669C9.75282 6.35835 9.64286 5.99584 9.64286 5.625C9.64342 5.12789 9.84115 4.65131 10.1927 4.2998C10.5442 3.94829 11.0208 3.75057 11.5179 3.75ZM11.7509 2.69036C11.6734 2.68337 11.5957 2.67944 11.5179 2.67857C11.0985 2.67851 10.6839 2.76827 10.3021 2.94181C9.92027 3.11535 9.58004 3.36864 9.30429 3.68464C9.03933 3.0623 8.631 2.51142 8.11262 2.07692C7.59424 1.64242 6.98049 1.33662 6.32143 1.18446C7.28121 1.0009 8.2704 1.04128 9.21202 1.30247C10.1536 1.56366 11.0223 2.03861 11.7504 2.69036H11.7509ZM7.5 13.9286C7.07618 13.9286 6.66189 13.8029 6.30949 13.5674C5.9571 13.332 5.68245 12.9973 5.52026 12.6057C5.35807 12.2142 5.31564 11.7833 5.39832 11.3677C5.481 10.952 5.68509 10.5702 5.98477 10.2705C6.28446 9.9708 6.66628 9.76671 7.08195 9.68403C7.49762 9.60135 7.92848 9.64378 8.32004 9.80597C8.71159 9.96816 9.04626 10.2428 9.28172 10.5952C9.51718 10.9476 9.64286 11.3619 9.64286 11.7857C9.64215 12.3538 9.41616 12.8984 9.01445 13.3002C8.61274 13.7019 8.0681 13.9279 7.5 13.9286ZM5.35714 8.57143C4.72142 8.57143 4.09997 8.38291 3.57138 8.02972C3.0428 7.67653 2.63081 7.17453 2.38753 6.58719C2.14425 5.99986 2.0806 5.35358 2.20462 4.73007C2.32865 4.10656 2.63478 3.53382 3.0843 3.0843C3.53383 2.63477 4.10656 2.32864 4.73007 2.20462C5.35358 2.08059 5.99987 2.14425 6.5872 2.38753C7.17453 2.63081 7.67653 3.04279 8.02973 3.57138C8.38292 4.09997 8.57143 4.72142 8.57143 5.35714C8.57044 6.20932 8.23147 7.02631 7.62889 7.62889C7.02631 8.23147 6.20932 8.57043 5.35714 8.57143ZM1.07143 7.5C1.07272 7.10467 1.11056 6.71032 1.18447 6.32196C1.39374 7.22519 1.89055 8.03608 2.60023 8.63272C3.3099 9.22937 4.19407 9.57952 5.11982 9.63053C4.67969 10.1127 4.398 10.7183 4.31274 11.3655C4.22749 12.0128 4.34277 12.6706 4.64304 13.2504C3.57186 12.7188 2.67015 11.8991 2.03922 10.8833C1.40828 9.86744 1.07313 8.6958 1.07143 7.5ZM10.3564 13.2504C10.585 12.8078 10.7074 12.3182 10.7137 11.8201C10.7201 11.3221 10.6103 10.8295 10.3931 10.3813C10.1758 9.93306 9.85713 9.54165 9.46226 9.2381C9.06738 8.93455 8.6072 8.7272 8.11822 8.6325C8.53768 8.27895 8.88555 7.84833 9.14304 7.36393C9.41813 7.74113 9.77909 8.0474 10.1961 8.25739C10.613 8.46738 11.074 8.57505 11.5409 8.57149C12.0077 8.56793 12.467 8.45325 12.8807 8.23692C13.2944 8.0206 13.6507 7.70886 13.92 7.3275C13.9216 7.38536 13.9286 7.44214 13.9286 7.5C13.9268 8.69586 13.5916 9.86754 12.9606 10.8834C12.3295 11.8992 11.4277 12.7189 10.3564 13.2504Z" fill="white"/>
</svg>
