<svg width="38" height="38" viewBox="0 0 38 38" fill="none" xmlns="http://www.w3.org/2000/svg">
<circle cx="19" cy="19" r="19" fill="#0000FF"/>
<path d="M15.0567 13C14.3934 13 13.7573 13.2613 13.2883 13.7263C12.8193 14.1914 12.5558 14.8221 12.5558 15.4798V18.9377C12.8833 18.5986 13.2575 18.3072 13.6673 18.072V15.4798C13.6673 15.1144 13.8137 14.764 14.0742 14.5056C14.3348 14.2473 14.6882 14.1021 15.0567 14.1021H21.7258C22.0943 14.1021 22.4477 14.2473 22.7083 14.5056C22.9689 14.764 23.1152 15.1144 23.1152 15.4798V22.0925C23.1152 22.4579 22.9689 22.8083 22.7083 23.0667C22.4477 23.3251 22.0943 23.4702 21.7258 23.4702H21.0461C20.9587 23.8519 20.8257 24.2219 20.6499 24.5723H21.7258C22.3891 24.5723 23.0252 24.3111 23.4943 23.846C23.9633 23.381 24.2268 22.7502 24.2268 22.0925V21.2659L26.561 23.0018C27.2018 23.4785 28.1171 23.0249 28.1171 22.2303V15.342C28.1171 14.5474 27.2018 14.0939 26.561 14.5705L24.2268 16.3064V15.4798C24.2268 14.8221 23.9633 14.1914 23.4943 13.7263C23.0252 13.2613 22.3891 13 21.7258 13H15.0567ZM24.2268 17.684L27.0056 15.6175V21.9548L24.2268 19.8883V17.684ZM20.3364 22.3681C20.3366 23.0808 20.1509 23.7816 19.7973 24.4021C19.4437 25.0227 18.9343 25.5421 18.3185 25.9098C17.7027 26.2775 17.0014 26.481 16.2828 26.5006C15.5642 26.5202 14.8528 26.3552 14.2175 26.0216L12.3479 26.495C12.3012 26.5068 12.2522 26.5063 12.2057 26.4937C12.1592 26.481 12.1169 26.4566 12.0828 26.4228C12.0487 26.389 12.0241 26.347 12.0113 26.3009C11.9985 26.2548 11.9981 26.2063 12.01 26.1599L12.4841 24.3029C12.1881 23.7483 12.0233 23.1342 12.0023 22.5071C11.9813 21.88 12.1045 21.2563 12.3627 20.6835C12.6209 20.1106 13.0072 19.6036 13.4924 19.2008C13.9776 18.798 14.5489 18.51 15.163 18.3587C15.7771 18.2074 16.4179 18.1967 17.0368 18.3275C17.6557 18.4582 18.2365 18.727 18.7351 19.1134C19.2336 19.4998 19.6369 19.9936 19.9144 20.5576C20.1919 21.1215 20.3362 21.7406 20.3364 22.3681ZM14.6399 21.2659C14.5293 21.2659 14.4233 21.3095 14.3451 21.387C14.267 21.4645 14.223 21.5696 14.223 21.6792C14.223 21.7889 14.267 21.894 14.3451 21.9715C14.4233 22.049 14.5293 22.0925 14.6399 22.0925H17.6966C17.8071 22.0925 17.9131 22.049 17.9913 21.9715C18.0695 21.894 18.1134 21.7889 18.1134 21.6792C18.1134 21.5696 18.0695 21.4645 17.9913 21.387C17.9131 21.3095 17.8071 21.2659 17.6966 21.2659H14.6399ZM14.223 23.3324C14.223 23.5606 14.4098 23.7457 14.6399 23.7457H16.585C16.6956 23.7457 16.8016 23.7022 16.8798 23.6247C16.9579 23.5472 17.0019 23.442 17.0019 23.3324C17.0019 23.2228 16.9579 23.1177 16.8798 23.0402C16.8016 22.9627 16.6956 22.9191 16.585 22.9191H14.6399C14.5293 22.9191 14.4233 22.9627 14.3451 23.0402C14.267 23.1177 14.223 23.2228 14.223 23.3324Z" fill="white"/>
</svg>
