<svg width="11" height="13" viewBox="0 0 11 13" fill="none" xmlns="http://www.w3.org/2000/svg">
<path d="M5.5 0L0 3.28336V9.70606L5.5 12.9894L11 9.70606V3.28336L5.5 0Z" fill="#0000FF"/>
<path d="M8.16624 4.75681C7.99514 4.59273 7.71731 4.59284 7.54599 4.75681L4.75446 7.43034L3.51374 6.24212C3.34242 6.07805 3.06471 6.07805 2.89338 6.24212C2.72206 6.4062 2.72206 6.67216 2.89338 6.83623L4.44421 8.32144C4.52982 8.40343 4.64207 8.44452 4.75434 8.44452C4.8666 8.44452 4.97896 8.40353 5.06457 8.32144L8.16624 5.3509C8.33756 5.18694 8.33756 4.92087 8.16624 4.75681Z" fill="white"/>
</svg>
