<svg width="25" height="25" viewBox="0 0 25 25" fill="none" xmlns="http://www.w3.org/2000/svg">
<path d="M12.5 24C18.8513 24 24 18.8513 24 12.5C24 6.14873 18.8513 1 12.5 1C6.14873 1 1 6.14873 1 12.5C1 18.8513 6.14873 24 12.5 24Z" stroke="white" stroke-width="2" stroke-miterlimit="10"/>
<path d="M12.5001 20.427C16.878 20.427 20.427 16.878 20.427 12.5001C20.427 8.12216 16.878 4.57316 12.5001 4.57316C8.12216 4.57316 4.57316 8.12216 4.57316 12.5001C4.57316 16.878 8.12216 20.427 12.5001 20.427Z" stroke="white" stroke-width="2" stroke-miterlimit="10"/>
<path d="M12.5 16.4645C14.6895 16.4645 16.4645 14.6895 16.4645 12.5C16.4645 10.3104 14.6895 8.53544 12.5 8.53544C10.3104 8.53544 8.53544 10.3104 8.53544 12.5C8.53544 14.6895 10.3104 16.4645 12.5 16.4645Z" stroke="white" stroke-width="2" stroke-miterlimit="10"/>
</svg>
