<svg width="12" height="15" viewBox="0 0 12 15" fill="none" xmlns="http://www.w3.org/2000/svg">
<path d="M5.9293 0L0 3.69602V10.9259L5.9293 14.622L11.8586 10.9259V3.69602L5.9293 0Z" fill="#0000FF"/>
<path d="M8.80366 5.35479C8.61921 5.17009 8.3197 5.17021 8.135 5.35479L5.12557 8.36433L3.78801 7.02678C3.60331 6.84209 3.30393 6.84209 3.11923 7.02678C2.93454 7.21148 2.93454 7.51086 3.11923 7.69556L4.79111 9.36744C4.8834 9.45973 5.00442 9.50599 5.12544 9.50599C5.24647 9.50599 5.3676 9.45984 5.45989 9.36744L8.80366 6.02355C8.98836 5.83898 8.98836 5.53947 8.80366 5.35479Z" fill="white"/>
</svg>
