<svg width="38" height="38" viewBox="0 0 38 38" fill="none" xmlns="http://www.w3.org/2000/svg">
<path d="M26.0865 18.3652L16.8622 11.6649C16.5237 11.4197 16.0743 11.3828 15.7033 11.5733C15.3293 11.7624 15.0957 12.1464 15.0957 12.5615V25.9578C15.0957 26.3773 15.3293 26.7599 15.7033 26.9489C15.8614 27.0287 16.0344 27.0686 16.2088 27.0686C16.4365 27.0686 16.6671 26.9962 16.8622 26.8529L26.0865 20.1585C26.3777 19.9443 26.5477 19.6134 26.5477 19.2619C26.5492 18.9044 26.3748 18.575 26.0865 18.3652Z" fill="white"/>
<path d="M19 0C8.52276 0 0 8.52358 0 19C0 29.4764 8.52276 38 19 38C29.4772 38 38 29.4764 38 19C38 8.52358 29.4772 0 19 0ZM19 36.4167C9.39639 36.4167 1.58331 28.6036 1.58331 19C1.58331 9.39639 9.39639 1.58331 19 1.58331C28.6036 1.58331 36.4167 9.39639 36.4167 19C36.4167 28.6036 28.6036 36.4167 19 36.4167Z" fill="white"/>
</svg>
