<svg width="38" height="38" viewBox="0 0 38 38" fill="none" xmlns="http://www.w3.org/2000/svg">
<path d="M14.5088 12.4934C13.8456 12.4934 13.2094 12.7547 12.7404 13.2197C12.2714 13.6848 12.0079 14.3155 12.0079 14.9732V18.4311C12.3354 18.092 12.7096 17.8006 13.1194 17.5654V14.9732C13.1194 14.6078 13.2658 14.2574 13.5264 13.999C13.7869 13.7407 14.1403 13.5955 14.5088 13.5955H21.178C21.5465 13.5955 21.8999 13.7407 22.1604 13.999C22.421 14.2574 22.5674 14.6078 22.5674 14.9732V21.5859C22.5674 21.9513 22.421 22.3017 22.1604 22.5601C21.8999 22.8185 21.5465 22.9636 21.178 22.9636H20.4983C20.4108 23.3453 20.2778 23.7153 20.102 24.0657H21.178C21.8413 24.0657 22.4774 23.8045 22.9464 23.3394C23.4154 22.8744 23.6789 22.2436 23.6789 21.5859V20.7594L26.0131 22.4952C26.6539 22.9719 27.5693 22.5183 27.5693 21.7237V14.8354C27.5693 14.0408 26.6539 13.5873 26.0131 14.0639L23.6789 15.7998V14.9732C23.6789 14.3155 23.4154 13.6848 22.9464 13.2197C22.4774 12.7547 21.8413 12.4934 21.178 12.4934H14.5088ZM23.6789 17.1774L26.4577 15.111V21.4482L23.6789 19.3817V17.1774ZM19.7886 21.8615C19.7888 22.5743 19.6031 23.275 19.2495 23.8955C18.8959 24.5161 18.3864 25.0355 17.7706 25.4032C17.1548 25.7709 16.4535 25.9744 15.735 25.994C15.0164 26.0136 14.3049 25.8486 13.6696 25.515L11.8001 25.9884C11.7533 26.0002 11.7043 25.9998 11.6579 25.9871C11.6114 25.9744 11.569 25.95 11.5349 25.9162C11.5008 25.8824 11.4762 25.8404 11.4635 25.7943C11.4507 25.7482 11.4502 25.6997 11.4622 25.6533L11.9362 23.7963C11.6402 23.2417 11.4755 22.6276 11.4545 22.0005C11.4334 21.3734 11.5567 20.7497 11.8148 20.1769C12.073 19.604 12.4593 19.097 12.9445 18.6942C13.4297 18.2914 14.001 18.0034 14.6152 17.8521C15.2293 17.7008 15.8701 17.6901 16.489 17.8209C17.1079 17.9516 17.6886 18.2204 18.1872 18.6068C18.6858 18.9932 19.0891 19.487 19.3666 20.051C19.644 20.6149 19.7883 21.234 19.7886 21.8615ZM14.092 20.7594C13.9815 20.7594 13.8755 20.8029 13.7973 20.8804C13.7191 20.9579 13.6752 21.063 13.6752 21.1727C13.6752 21.2823 13.7191 21.3874 13.7973 21.4649C13.8755 21.5424 13.9815 21.5859 14.092 21.5859H17.1487C17.2593 21.5859 17.3653 21.5424 17.4434 21.4649C17.5216 21.3874 17.5655 21.2823 17.5655 21.1727C17.5655 21.063 17.5216 20.9579 17.4434 20.8804C17.3653 20.8029 17.2593 20.7594 17.1487 20.7594H14.092ZM13.6752 22.8258C13.6752 23.054 13.8619 23.2391 14.092 23.2391H16.0372C16.1477 23.2391 16.2538 23.1956 16.3319 23.1181C16.4101 23.0406 16.454 22.9355 16.454 22.8258C16.454 22.7162 16.4101 22.6111 16.3319 22.5336C16.2538 22.4561 16.1477 22.4125 16.0372 22.4125H14.092C13.9815 22.4125 13.8755 22.4561 13.7973 22.5336C13.7191 22.6111 13.6752 22.7162 13.6752 22.8258Z" fill="white"/>
<path d="M19 0C8.52276 0 0 8.52358 0 19C0 29.4764 8.52276 38 19 38C29.4772 38 38 29.4764 38 19C38 8.52358 29.4772 0 19 0ZM19 36.4167C9.39639 36.4167 1.58331 28.6036 1.58331 19C1.58331 9.39639 9.39639 1.58331 19 1.58331C28.6036 1.58331 36.4167 9.39639 36.4167 19C36.4167 28.6036 28.6036 36.4167 19 36.4167Z" fill="white"/>
</svg>
