<svg width="39" height="39" viewBox="0 0 39 39" fill="none" xmlns="http://www.w3.org/2000/svg">
<circle cx="19.5" cy="19.5" r="19.5" fill="white"/>
<path d="M15.0567 14C14.3934 14 13.7573 14.2613 13.2883 14.7263C12.8193 15.1914 12.5558 15.8221 12.5558 16.4798V19.9377C12.8833 19.5986 13.2575 19.3072 13.6673 19.072V16.4798C13.6673 16.1144 13.8137 15.764 14.0742 15.5056C14.3348 15.2473 14.6882 15.1021 15.0567 15.1021H21.7258C22.0943 15.1021 22.4477 15.2473 22.7083 15.5056C22.9689 15.764 23.1152 16.1144 23.1152 16.4798V23.0925C23.1152 23.4579 22.9689 23.8083 22.7083 24.0667C22.4477 24.3251 22.0943 24.4702 21.7258 24.4702H21.0461C20.9587 24.8519 20.8257 25.2219 20.6499 25.5723H21.7258C22.3891 25.5723 23.0252 25.3111 23.4943 24.846C23.9633 24.381 24.2268 23.7502 24.2268 23.0925V22.2659L26.561 24.0018C27.2018 24.4785 28.1171 24.0249 28.1171 23.2303V16.342C28.1171 15.5474 27.2018 15.0939 26.561 15.5705L24.2268 17.3064V16.4798C24.2268 15.8221 23.9633 15.1914 23.4943 14.7263C23.0252 14.2613 22.3891 14 21.7258 14H15.0567ZM24.2268 18.684L27.0056 16.6175V22.9548L24.2268 20.8883V18.684ZM20.3364 23.3681C20.3366 24.0808 20.1509 24.7816 19.7973 25.4021C19.4437 26.0227 18.9343 26.5421 18.3185 26.9098C17.7027 27.2775 17.0014 27.481 16.2828 27.5006C15.5642 27.5202 14.8528 27.3552 14.2175 27.0216L12.3479 27.495C12.3012 27.5068 12.2522 27.5063 12.2057 27.4937C12.1592 27.481 12.1169 27.4566 12.0828 27.4228C12.0487 27.389 12.0241 27.347 12.0113 27.3009C11.9985 27.2548 11.9981 27.2063 12.01 27.1599L12.4841 25.3029C12.1881 24.7483 12.0233 24.1342 12.0023 23.5071C11.9813 22.88 12.1045 22.2563 12.3627 21.6835C12.6209 21.1106 13.0072 20.6036 13.4924 20.2008C13.9776 19.798 14.5489 19.51 15.163 19.3587C15.7771 19.2074 16.4179 19.1967 17.0368 19.3275C17.6557 19.4582 18.2365 19.727 18.7351 20.1134C19.2336 20.4998 19.6369 20.9936 19.9144 21.5576C20.1919 22.1215 20.3362 22.7406 20.3364 23.3681ZM14.6399 22.2659C14.5293 22.2659 14.4233 22.3095 14.3451 22.387C14.267 22.4645 14.223 22.5696 14.223 22.6792C14.223 22.7889 14.267 22.894 14.3451 22.9715C14.4233 23.049 14.5293 23.0925 14.6399 23.0925H17.6966C17.8071 23.0925 17.9131 23.049 17.9913 22.9715C18.0695 22.894 18.1134 22.7889 18.1134 22.6792C18.1134 22.5696 18.0695 22.4645 17.9913 22.387C17.9131 22.3095 17.8071 22.2659 17.6966 22.2659H14.6399ZM14.223 24.3324C14.223 24.5606 14.4098 24.7457 14.6399 24.7457H16.585C16.6956 24.7457 16.8016 24.7022 16.8798 24.6247C16.9579 24.5472 17.0019 24.442 17.0019 24.3324C17.0019 24.2228 16.9579 24.1177 16.8798 24.0402C16.8016 23.9627 16.6956 23.9191 16.585 23.9191H14.6399C14.5293 23.9191 14.4233 23.9627 14.3451 24.0402C14.267 24.1177 14.223 24.2228 14.223 24.3324Z" fill="#0000FF"/>
</svg>
