<svg width="39" height="39" viewBox="0 0 39 39" fill="none" xmlns="http://www.w3.org/2000/svg">
<path d="M19.5 39C30.2696 39 39 30.2696 39 19.5C39 8.73045 30.2696 0 19.5 0C8.73045 0 0 8.73045 0 19.5C0 30.2696 8.73045 39 19.5 39Z" fill="white"/>
<path d="M19.6323 31.0553C25.9407 31.0553 31.0546 25.9414 31.0546 19.633C31.0546 13.3246 25.9407 8.21069 19.6323 8.21069C13.3239 8.21069 8.20996 13.3246 8.20996 19.633C8.20996 25.9414 13.3239 31.0553 19.6323 31.0553Z" fill="white" stroke="#0000FF" stroke-width="1.5" stroke-miterlimit="10"/>
<path d="M19.6322 27.5065C23.9805 27.5065 27.5055 23.9815 27.5055 19.6331C27.5055 15.2848 23.9805 11.7598 19.6322 11.7598C15.2838 11.7598 11.7588 15.2848 11.7588 19.6331C11.7588 23.9815 15.2838 27.5065 19.6322 27.5065Z" fill="white" stroke="#0000FF" stroke-width="1.5" stroke-miterlimit="10"/>
<path d="M19.6331 23.5708C21.8078 23.5708 23.5708 21.8078 23.5708 19.6331C23.5708 17.4583 21.8078 15.6953 19.6331 15.6953C17.4583 15.6953 15.6953 17.4583 15.6953 19.6331C15.6953 21.8078 17.4583 23.5708 19.6331 23.5708Z" fill="white" stroke="#0000FF" stroke-width="1.5" stroke-miterlimit="10"/>
</svg>
