<svg width="15" height="13" viewBox="0 0 15 13" fill="none" xmlns="http://www.w3.org/2000/svg">
<path d="M7.07379 2.10827L7.49562 2.77115L7.91745 2.10827C8.5407 1.12889 9.64181 0.5 10.9027 0.5C12.8753 0.5 14.4912 2.11598 14.4912 4.08852C14.4912 4.96021 14.089 5.87872 13.4169 6.79535C12.7485 7.70678 11.8464 8.57088 10.9268 9.32326C10.0097 10.0736 9.09009 10.7008 8.39838 11.141C8.05301 11.3608 7.76567 11.5332 7.56542 11.6502C7.54117 11.6644 7.5182 11.6777 7.49657 11.6903C7.47478 11.6776 7.45163 11.664 7.42718 11.6496C7.22687 11.5317 6.93945 11.3581 6.594 11.137C5.90214 10.6941 4.9823 10.0636 4.06496 9.31091C3.14513 8.55624 2.24276 7.69087 1.57416 6.78065C0.901459 5.86486 0.5 4.95088 0.5 4.08852C0.5 2.11598 2.11598 0.5 4.08852 0.5C5.34943 0.5 6.45055 1.12889 7.07379 2.10827Z" stroke="#0000FF"/>
</svg>
