<svg width="16" height="16" viewBox="0 0 16 16" fill="none" xmlns="http://www.w3.org/2000/svg">
<path d="M8.07587 2.10267C10.0201 2.10267 10.2514 2.11093 11.0198 2.14398C11.7303 2.17703 12.1158 2.29544 12.372 2.39458C12.7107 2.52677 12.9558 2.68374 13.2091 2.93986C13.4652 3.19597 13.6222 3.43831 13.7544 3.77704C13.8535 4.03315 13.972 4.4187 14.005 5.1292C14.0408 5.89754 14.0463 6.12887 14.0463 8.07312C14.0463 10.0174 14.0381 10.2487 14.005 11.017C13.972 11.7275 13.8535 12.1131 13.7544 12.3692C13.6222 12.7107 13.4652 12.953 13.2091 13.2064C12.953 13.4625 12.7107 13.6195 12.372 13.7517C12.1158 13.8508 11.7303 13.9692 11.0198 14.0023C10.2514 14.0381 10.0201 14.0436 8.07587 14.0436C6.13162 14.0436 5.90029 14.0353 5.13196 14.0023C4.42145 13.9692 4.03591 13.8508 3.77979 13.7517C3.43831 13.6195 3.19597 13.4625 2.94261 13.2064C2.6865 12.9503 2.52952 12.7079 2.39734 12.3692C2.2982 12.1131 2.17978 11.7275 2.14673 11.017C2.11093 10.2487 2.10542 10.0174 2.10542 8.07312C2.10542 6.12887 2.11369 5.89754 2.14673 5.1292C2.17978 4.4187 2.2982 4.03315 2.39734 3.77704C2.52952 3.43831 2.6865 3.19321 2.94261 2.93986C3.19872 2.68374 3.44107 2.52677 3.77979 2.39458C4.03591 2.29544 4.42145 2.17703 5.13196 2.14398C5.90029 2.10818 6.13162 2.10267 8.07587 2.10267ZM8.07587 0.789062C6.09582 0.789062 5.84797 0.797324 5.07137 0.833125C4.29477 0.868925 3.76602 0.992851 3.30337 1.17185C2.82419 1.35912 2.41661 1.60697 2.01179 2.01179C1.60697 2.41662 1.35637 2.82419 1.17185 3.30337C0.992851 3.76602 0.868924 4.29753 0.833124 5.07137C0.797323 5.84797 0.789062 6.09582 0.789062 8.07587C0.789062 10.0559 0.797323 10.3038 0.833124 11.0804C0.868924 11.857 0.992851 12.3857 1.17185 12.8484C1.35912 13.3276 1.60697 13.7351 2.01179 14.14C2.41661 14.5448 2.82419 14.7954 3.30337 14.9799C3.76602 15.1589 4.29753 15.2828 5.07137 15.3186C5.84797 15.3544 6.09582 15.3627 8.07587 15.3627C10.0559 15.3627 10.3038 15.3544 11.0804 15.3186C11.857 15.2828 12.3857 15.1589 12.8484 14.9799C13.3276 14.7926 13.7351 14.5448 14.14 14.14C14.5448 13.7351 14.7954 13.3276 14.9799 12.8484C15.1589 12.3857 15.2828 11.8542 15.3186 11.0804C15.3544 10.3038 15.3627 10.0559 15.3627 8.07587C15.3627 6.09582 15.3544 5.84797 15.3186 5.07137C15.2828 4.29477 15.1589 3.76602 14.9799 3.30337C14.7926 2.82419 14.5448 2.41662 14.14 2.01179C13.7351 1.60697 13.3276 1.35637 12.8484 1.17185C12.3857 0.992851 11.8542 0.868925 11.0804 0.833125C10.3038 0.797324 10.0559 0.789062 8.07587 0.789062Z" fill="#0000FF"/>
<path d="M8.07604 4.3335C6.01062 4.3335 4.3335 6.00787 4.3335 8.07604C4.3335 10.1442 6.00787 11.8186 8.07604 11.8186C10.1442 11.8186 11.8186 10.1442 11.8186 8.07604C11.8186 6.00787 10.1442 4.3335 8.07604 4.3335ZM8.07604 10.505C6.7349 10.505 5.64711 9.41719 5.64711 8.07604C5.64711 6.73489 6.7349 5.6471 8.07604 5.6471C9.41719 5.6471 10.505 6.73489 10.505 8.07604C10.505 9.41719 9.41719 10.505 8.07604 10.505Z" fill="#0000FF"/>
<path d="M12.8374 4.18475C12.8374 4.66668 12.4464 5.06049 11.9617 5.06049C11.477 5.06049 11.0859 4.66944 11.0859 4.18475C11.0859 3.70007 11.477 3.31177 11.9617 3.31177C12.4464 3.31177 12.8374 3.70282 12.8374 4.18475Z" fill="#0000FF"/>
</svg>
