<svg width="15" height="14" viewBox="0 0 15 14" fill="none" xmlns="http://www.w3.org/2000/svg">
<path d="M0.432969 13.5618H3.23519V4.22173H0.432969V13.5618ZM11.35 3.89821C9.99001 3.89821 8.77316 4.39485 7.90995 5.49108V4.19101H5.09745V13.5619H7.90995V8.49436C7.90995 7.42341 8.89111 6.37865 10.1201 6.37865C11.3491 6.37865 11.6521 7.42341 11.6521 8.46817V13.561H14.4544V8.2596C14.4543 4.57721 12.7109 3.89821 11.35 3.89821ZM1.82098 3.28834C2.59543 3.28834 3.22399 2.65978 3.22399 1.88533C3.22399 1.11088 2.59543 0.482422 1.82098 0.482422C1.04653 0.482422 0.417969 1.11098 0.417969 1.88543C0.417969 2.65988 1.04653 3.28834 1.82098 3.28834Z" fill="#0000FF"/>
</svg>
