<svg width="37" height="37" viewBox="0 0 37 37" fill="none" xmlns="http://www.w3.org/2000/svg">
<path d="M18.5 36C28.165 36 36 28.165 36 18.5C36 8.83502 28.165 1 18.5 1C8.83502 1 1 8.83502 1 18.5C1 28.165 8.83502 36 18.5 36Z" stroke="#0B24FA" stroke-width="2" stroke-miterlimit="10"/>
<path d="M18.4999 30.5626C25.162 30.5626 30.5626 25.162 30.5626 18.4999C30.5626 11.8379 25.162 6.43726 18.4999 6.43726C11.8379 6.43726 6.43726 11.8379 6.43726 18.4999C6.43726 25.162 11.8379 30.5626 18.4999 30.5626Z" stroke="#0B24FA" stroke-width="2" stroke-miterlimit="10"/>
<path d="M18.4999 24.533C21.8319 24.533 24.5329 21.832 24.5329 18.5C24.5329 15.1681 21.8319 12.467 18.4999 12.467C15.168 12.467 12.4669 15.1681 12.4669 18.5C12.4669 21.832 15.168 24.533 18.4999 24.533Z" stroke="#0B24FA" stroke-width="2" stroke-miterlimit="10"/>
</svg>
