<svg width="42" height="42" viewBox="0 0 42 42" fill="none" xmlns="http://www.w3.org/2000/svg">
<path d="M20.735 2.73712L25.441 7.44317L26.0091 8.01125H33.4652V15.4673L34.0333 16.0354L38.7393 20.7415L34.0333 25.4475L33.4652 26.0156V33.4717H26.0091L25.441 34.0397L20.735 38.7458L16.029 34.0397L15.4609 33.4717H8.01125V26.0156L7.44317 25.4475L2.73712 20.7415L7.44317 16.0354L8.01125 15.4673V8.01125H15.4673L16.0354 7.44317L20.7415 2.73712H20.735ZM20.7415 0L14.6669 6.07461H6.07461V14.6604L0 20.735L6.07461 26.8096V35.3954H14.6604L20.735 41.47L26.8096 35.3954H35.3954V26.8096L41.47 20.735L35.3954 14.6604V6.07461H26.8096L20.735 0L20.7415 0Z" fill="#0B24FA"/>
</svg>
