<svg width="39" height="39" viewBox="0 0 39 39" fill="none" xmlns="http://www.w3.org/2000/svg">
<path d="M19.5 39C30.2696 39 39 30.2696 39 19.5C39 8.73045 30.2696 0 19.5 0C8.73045 0 0 8.73045 0 19.5C0 30.2696 8.73045 39 19.5 39Z" fill="white"/>
<path d="M27.652 24.0168L26.4971 22.3478C26.3394 22.1209 26.2546 21.851 26.2539 21.5744V16.7845C26.2539 14.9851 25.5423 13.2595 24.2757 11.9871C23.0091 10.7148 21.2913 10 19.5 10C17.7087 10 15.9909 10.7148 14.7243 11.9871C13.4577 13.2595 12.7461 14.9851 12.7461 16.7845V21.5744C12.7454 21.851 12.6606 22.1209 12.5029 22.3478L11.348 24.0168C11.1731 24.2114 11.0582 24.4528 11.0169 24.7117C10.9757 24.9706 11.0101 25.2359 11.1158 25.4756C11.2216 25.7153 11.3942 25.9191 11.6128 26.0624C11.8314 26.2056 12.0866 26.2822 12.3476 26.2828H16.1906C16.3456 27.0496 16.7598 27.7391 17.3629 28.2343C17.966 28.7295 18.721 29 19.5 29C20.279 29 21.034 28.7295 21.6371 28.2343C22.2402 27.7391 22.6544 27.0496 22.8094 26.2828H26.6524C26.9134 26.2822 27.1686 26.2056 27.3872 26.0624C27.6058 25.9191 27.7784 25.7153 27.8842 25.4756C27.9899 25.2359 28.0243 24.9706 27.9831 24.7117C27.9418 24.4528 27.8269 24.2114 27.652 24.0168ZM19.5 27.6397C19.082 27.6385 18.6745 27.5075 18.3336 27.2646C17.9926 27.0216 17.7347 26.6787 17.5954 26.2828H21.4046C21.2653 26.6787 21.0074 27.0216 20.6664 27.2646C20.3255 27.5075 19.918 27.6385 19.5 27.6397ZM12.3476 24.9259C12.3781 24.8974 12.4053 24.8656 12.4286 24.8309L13.6106 23.1212C13.9259 22.6675 14.0956 22.1277 14.0969 21.5744V16.7845C14.0969 15.345 14.6661 13.9645 15.6794 12.9466C16.6927 11.9287 18.067 11.3569 19.5 11.3569C20.933 11.3569 22.3073 11.9287 23.3206 12.9466C24.3339 13.9645 24.9031 15.345 24.9031 16.7845V21.5744C24.9044 22.1277 25.0741 22.6675 25.3894 23.1212L26.5714 24.8309C26.5947 24.8656 26.6219 24.8974 26.6524 24.9259H12.3476Z" fill="#0000FF"/>
</svg>
