<svg width="38" height="38" viewBox="0 0 38 38" fill="none" xmlns="http://www.w3.org/2000/svg">
<path d="M19 0C8.52276 0 0 8.52358 0 19C0 29.4764 8.52276 38 19 38C29.4772 38 38 29.4764 38 19C38 8.52358 29.4772 0 19 0ZM19 36.4167C9.39639 36.4167 1.58331 28.6036 1.58331 19C1.58331 9.39639 9.39639 1.58331 19 1.58331C28.6036 1.58331 36.4167 9.39639 36.4167 19C36.4167 28.6036 28.6036 36.4167 19 36.4167Z" fill="white"/>
<path d="M26.652 23.0168L25.4971 21.3478C25.3394 21.1209 25.2546 20.851 25.2539 20.5744V15.7845C25.2539 13.9851 24.5423 12.2595 23.2757 10.9871C22.0091 9.71479 20.2913 9 18.5 9C16.7087 9 14.9909 9.71479 13.7243 10.9871C12.4577 12.2595 11.7461 13.9851 11.7461 15.7845V20.5744C11.7454 20.851 11.6606 21.1209 11.5029 21.3478L10.348 23.0168C10.1731 23.2114 10.0582 23.4528 10.0169 23.7117C9.97573 23.9706 10.0101 24.2359 10.1158 24.4756C10.2216 24.7153 10.3942 24.9191 10.6128 25.0624C10.8314 25.2056 11.0866 25.2822 11.3476 25.2828H15.1906C15.3456 26.0496 15.7598 26.7391 16.3629 27.2343C16.966 27.7295 17.721 28 18.5 28C19.279 28 20.034 27.7295 20.6371 27.2343C21.2402 26.7391 21.6544 26.0496 21.8094 25.2828H25.6524C25.9134 25.2822 26.1686 25.2056 26.3872 25.0624C26.6058 24.9191 26.7784 24.7153 26.8842 24.4756C26.9899 24.2359 27.0243 23.9706 26.9831 23.7117C26.9418 23.4528 26.8269 23.2114 26.652 23.0168ZM18.5 26.6397C18.082 26.6385 17.6745 26.5075 17.3336 26.2646C16.9926 26.0216 16.7347 25.6787 16.5954 25.2828H20.4046C20.2653 25.6787 20.0074 26.0216 19.6664 26.2646C19.3255 26.5075 18.918 26.6385 18.5 26.6397ZM11.3476 23.9259C11.3781 23.8974 11.4053 23.8656 11.4286 23.8309L12.6106 22.1212C12.9259 21.6675 13.0956 21.1277 13.0969 20.5744V15.7845C13.0969 14.345 13.6661 12.9645 14.6794 11.9466C15.6927 10.9287 17.067 10.3569 18.5 10.3569C19.933 10.3569 21.3073 10.9287 22.3206 11.9466C23.3339 12.9645 23.9031 14.345 23.9031 15.7845V20.5744C23.9044 21.1277 24.0741 21.6675 24.3894 22.1212L25.5714 23.8309C25.5947 23.8656 25.6219 23.8974 25.6524 23.9259H11.3476Z" fill="white"/>
</svg>
