<svg width="12" height="13" viewBox="0 0 12 13" fill="none" xmlns="http://www.w3.org/2000/svg">
<path d="M5.9293 0L0 3.28336V9.70606L5.9293 12.9894L11.8586 9.70606V3.28336L5.9293 0Z" fill="#0000FF"/>
<path d="M8.80366 4.75681C8.61921 4.59273 8.3197 4.59284 8.135 4.75681L5.12557 7.43034L3.78801 6.24212C3.60331 6.07805 3.30393 6.07805 3.11923 6.24212C2.93454 6.4062 2.93454 6.67216 3.11923 6.83623L4.79111 8.32144C4.8834 8.40343 5.00442 8.44452 5.12544 8.44452C5.24647 8.44452 5.3676 8.40353 5.45989 8.32144L8.80366 5.3509C8.98836 5.18694 8.98836 4.92087 8.80366 4.75681Z" fill="white"/>
</svg>
