<svg width="39" height="39" viewBox="0 0 39 39" fill="none" xmlns="http://www.w3.org/2000/svg">
<path d="M19.5 39C30.2696 39 39 30.2696 39 19.5C39 8.73045 30.2696 0 19.5 0C8.73045 0 0 8.73045 0 19.5C0 30.2696 8.73045 39 19.5 39Z" fill="white"/>
<path d="M27.5433 13.0706L20.284 10.0566C20.1022 9.98114 19.8978 9.98111 19.716 10.0566L12.4567 13.0706C12.1802 13.1854 12 13.4553 12 13.7547V17.4186C12 22.4635 15.0492 27.0015 19.7201 28.908C19.8995 28.9813 20.1005 28.9813 20.2799 28.908C24.9507 27.0016 28 22.4636 28 17.4186V13.7547C28 13.4553 27.8198 13.1854 27.5433 13.0706ZM26.5185 17.4186C26.5185 21.7073 24 25.6553 20 27.4176C16.1069 25.7024 13.4815 21.8235 13.4815 17.4186V14.2492L20 11.5428L26.5185 14.2492V17.4186ZM19.1813 19.9154L22.3651 16.7316C22.6544 16.4423 23.1234 16.4423 23.4127 16.7316C23.702 17.0209 23.7019 17.4899 23.4126 17.7791L19.705 21.4867C19.4157 21.7761 18.9467 21.776 18.6575 21.4867L16.5873 19.4166C16.298 19.1273 16.298 18.6583 16.5873 18.369C16.8766 18.0798 17.3456 18.0797 17.6349 18.369L19.1813 19.9154Z" fill="#0000FF"/>
</svg>
