<svg width="38" height="38" viewBox="0 0 38 38" fill="none" xmlns="http://www.w3.org/2000/svg">
<path d="M19 0C8.52276 0 0 8.52358 0 19C0 29.4764 8.52276 38 19 38C29.4772 38 38 29.4764 38 19C38 8.52358 29.4772 0 19 0ZM19 36.4167C9.39639 36.4167 1.58331 28.6036 1.58331 19C1.58331 9.39639 9.39639 1.58331 19 1.58331C28.6036 1.58331 36.4167 9.39639 36.4167 19C36.4167 28.6036 28.6036 36.4167 19 36.4167Z" fill="white"/>
<path d="M26.5433 13.0706L19.284 10.0566C19.1022 9.98114 18.8978 9.98111 18.716 10.0566L11.4567 13.0706C11.1802 13.1854 11 13.4553 11 13.7547V17.4186C11 22.4635 14.0492 27.0015 18.7201 28.908C18.8995 28.9813 19.1005 28.9813 19.2799 28.908C23.9507 27.0016 27 22.4636 27 17.4186V13.7547C27 13.4553 26.8198 13.1854 26.5433 13.0706ZM25.5185 17.4186C25.5185 21.7073 23 25.6553 19 27.4176C15.1069 25.7024 12.4815 21.8235 12.4815 17.4186V14.2492L19 11.5428L25.5185 14.2492V17.4186ZM18.1813 19.9154L21.3651 16.7316C21.6544 16.4423 22.1234 16.4423 22.4127 16.7316C22.702 17.0209 22.7019 17.4899 22.4126 17.7791L18.705 21.4867C18.4157 21.7761 17.9467 21.776 17.6575 21.4867L15.5873 19.4166C15.298 19.1273 15.298 18.6583 15.5873 18.369C15.8766 18.0798 16.3456 18.0797 16.6349 18.369L18.1813 19.9154Z" fill="white"/>
</svg>
