<svg width="21" height="20" viewBox="0 0 21 20" fill="none" xmlns="http://www.w3.org/2000/svg">
<circle cx="10.435" cy="9.88701" r="9.88701" fill="white"/>
<path d="M10.5095 6.01452C11.7942 6.01452 11.947 6.01998 12.4547 6.04181C12.9242 6.06365 13.1789 6.14189 13.3481 6.2074C13.572 6.29474 13.7339 6.39846 13.9013 6.56769C14.0705 6.73692 14.1743 6.89705 14.2616 7.12086C14.3271 7.29009 14.4054 7.54484 14.4272 8.01431C14.4508 8.52199 14.4545 8.67484 14.4545 9.95952C14.4545 11.2442 14.449 11.397 14.4272 11.9047C14.4054 12.3742 14.3271 12.6289 14.2616 12.7982C14.1743 13.0238 14.0705 13.1839 13.9013 13.3513C13.7321 13.5206 13.572 13.6243 13.3481 13.7116C13.1789 13.7771 12.9242 13.8554 12.4547 13.8772C11.947 13.9009 11.7942 13.9045 10.5095 13.9045C9.22482 13.9045 9.07197 13.8991 8.56428 13.8772C8.09481 13.8554 7.84006 13.7771 7.67084 13.7116C7.4452 13.6243 7.28507 13.5206 7.11766 13.3513C6.94844 13.1821 6.84472 13.022 6.75737 12.7982C6.69187 12.6289 6.61362 12.3742 6.59179 11.9047C6.56813 11.397 6.56449 11.2442 6.56449 9.95952C6.56449 8.67484 6.56995 8.52199 6.59179 8.01431C6.61362 7.54484 6.69187 7.29009 6.75737 7.12086C6.84472 6.89705 6.94844 6.7351 7.11766 6.56769C7.28689 6.39846 7.44702 6.29474 7.67084 6.2074C7.84006 6.14189 8.09481 6.06365 8.56428 6.04181C9.07197 6.01816 9.22482 6.01452 10.5095 6.01452ZM10.5095 5.14655C9.20116 5.14655 9.03739 5.152 8.52425 5.17566C8.01111 5.19932 7.66174 5.2812 7.35604 5.39948C7.03942 5.52321 6.77011 5.68698 6.50262 5.95447C6.23513 6.22196 6.06955 6.49127 5.94763 6.80788C5.82935 7.11359 5.74747 7.46478 5.72381 7.9761C5.70016 8.48924 5.6947 8.65301 5.6947 9.96134C5.6947 11.2697 5.70016 11.4334 5.72381 11.9466C5.74747 12.4597 5.82935 12.8091 5.94763 13.1148C6.07137 13.4314 6.23513 13.7007 6.50262 13.9682C6.77011 14.2357 7.03942 14.4013 7.35604 14.5232C7.66174 14.6415 8.01293 14.7234 8.52425 14.747C9.03739 14.7707 9.20116 14.7761 10.5095 14.7761C11.8178 14.7761 11.9816 14.7707 12.4947 14.747C13.0079 14.7234 13.3572 14.6415 13.6629 14.5232C13.9796 14.3995 14.2489 14.2357 14.5164 13.9682C14.7838 13.7007 14.9494 13.4314 15.0713 13.1148C15.1896 12.8091 15.2715 12.4579 15.2952 11.9466C15.3188 11.4334 15.3243 11.2697 15.3243 9.96134C15.3243 8.65301 15.3188 8.48924 15.2952 7.9761C15.2715 7.46296 15.1896 7.11359 15.0713 6.80788C14.9476 6.49127 14.7838 6.22196 14.5164 5.95447C14.2489 5.68698 13.9796 5.52139 13.6629 5.39948C13.3572 5.2812 13.006 5.19932 12.4947 5.17566C11.9816 5.152 11.8178 5.14655 10.5095 5.14655Z" fill="#0000FF"/>
<path d="M10.5095 7.48862C9.14475 7.48862 8.03658 8.59496 8.03658 9.96152C8.03658 11.3281 9.14293 12.4344 10.5095 12.4344C11.876 12.4344 12.9824 11.3281 12.9824 9.96152C12.9824 8.59496 11.876 7.48862 10.5095 7.48862ZM10.5095 11.5664C9.62332 11.5664 8.90456 10.8477 8.90456 9.96152C8.90456 9.07535 9.62332 8.35659 10.5095 8.35659C11.3957 8.35659 12.1144 9.07535 12.1144 9.96152C12.1144 10.8477 11.3957 11.5664 10.5095 11.5664Z" fill="#0000FF"/>
<path d="M13.6557 7.39012C13.6557 7.70856 13.3973 7.96877 13.077 7.96877C12.7567 7.96877 12.4984 7.71038 12.4984 7.39012C12.4984 7.06986 12.7567 6.81329 13.077 6.81329C13.3973 6.81329 13.6557 7.07168 13.6557 7.39012Z" fill="#0000FF"/>
</svg>
