<svg width="20" height="20" viewBox="0 0 20 20" fill="none" xmlns="http://www.w3.org/2000/svg">
<circle cx="10.113" cy="9.88701" r="9.88701" fill="white"/>
<path d="M5.37446 12.9544C6.21073 13.4971 7.20281 13.8147 8.27009 13.8147C11.7782 13.8147 13.7587 10.8128 13.6405 8.11947C14.0094 7.84904 14.33 7.51328 14.5825 7.12852C14.244 7.28097 13.8787 7.38442 13.4973 7.4298C13.8877 7.19386 14.1867 6.81817 14.3282 6.36988C13.9629 6.58949 13.5582 6.7492 13.1284 6.8345C12.7828 6.46244 12.2921 6.23013 11.7495 6.23013C10.53 6.23013 9.63464 7.38261 9.90863 8.58045C8.33814 8.5006 6.94673 7.73833 6.01554 6.58041C5.5213 7.44068 5.75947 8.56775 6.59933 9.13764C6.28953 9.12856 5.99763 9.04144 5.74335 8.89807C5.72365 9.78556 6.35041 10.615 7.25832 10.8001C6.9915 10.8727 6.7014 10.8908 6.40593 10.8328C6.64589 11.5932 7.34428 12.1468 8.16981 12.1631C7.37651 12.7947 6.37548 13.076 5.37267 12.9562L5.37446 12.9544Z" fill="#0000FF"/>
</svg>
