<svg width="15" height="18" viewBox="0 0 15 18" fill="none" xmlns="http://www.w3.org/2000/svg">
<path d="M14.9976 7.28247C14.8544 7.2968 14.7105 7.30423 14.5667 7.30488C12.9882 7.3051 11.5159 6.48806 10.6513 5.13196V12.5312C10.6513 15.5516 8.26701 18 5.32573 18C2.38444 18 0 15.5516 0 12.5313C0 9.5111 2.38434 7.06256 5.32562 7.06256C5.43684 7.06256 5.54544 7.07279 5.65477 7.07991V9.77486C5.54544 9.76139 5.4381 9.74092 5.32562 9.74092C3.82444 9.74092 2.60751 10.9906 2.60751 12.5321C2.60751 14.0736 3.82444 15.3233 5.32562 15.3233C6.8268 15.3233 8.15295 14.1085 8.15295 12.5668L8.17919 0H10.69C10.9267 2.31202 12.7422 4.11796 15 4.28744V7.28258" fill="white"/>
</svg>
