<svg width="10" height="11" viewBox="0 0 10 11" fill="none" xmlns="http://www.w3.org/2000/svg">
<path d="M9.12287 4.63416C9.04195 4.64226 8.96068 4.64646 8.87941 4.64683C7.9876 4.64695 7.15584 4.18534 6.66737 3.41919V7.59956C6.66737 9.30597 5.32028 10.6893 3.65854 10.6893C1.9968 10.6893 0.649658 9.30597 0.649658 7.59963C0.649658 5.89328 1.99674 4.50992 3.65848 4.50992C3.72132 4.50992 3.78268 4.5157 3.84444 4.51972V6.04229C3.78268 6.03469 3.72203 6.02312 3.65848 6.02312C2.81036 6.02312 2.12283 6.72913 2.12283 7.60005C2.12283 8.47097 2.81036 9.17698 3.65848 9.17698C4.5066 9.17698 5.25585 8.49069 5.25585 7.61965L5.27067 0.519775H6.68918C6.82292 1.826 7.84864 2.84631 9.12423 2.94206V4.63423" fill="white"/>
</svg>
