<svg width="14" height="16" viewBox="0 0 14 16" fill="none" xmlns="http://www.w3.org/2000/svg">
<path d="M13.3743 6.22681C13.2519 6.23906 13.1289 6.24542 13.0059 6.24597C11.6562 6.24616 10.3974 5.54755 9.65812 4.38803V10.7147C9.65812 13.2972 7.61941 15.3907 5.10449 15.3907C2.58958 15.3907 0.550781 13.2972 0.550781 10.7148C0.550781 8.13238 2.58949 6.03878 5.1044 6.03878C5.1995 6.03878 5.29236 6.04753 5.38584 6.05361V8.3579C5.29236 8.34639 5.20058 8.32888 5.1044 8.32888C3.82084 8.32888 2.78031 9.39738 2.78031 10.7154C2.78031 12.0335 3.82084 13.102 5.1044 13.102C6.38797 13.102 7.52189 12.0634 7.52189 10.7451L7.54432 0H9.69113C9.89353 1.97687 11.4459 3.52102 13.3764 3.66594V6.2269" fill="#0000FF"/>
</svg>
