<svg width="42" height="42" viewBox="0 0 42 42" fill="none" xmlns="http://www.w3.org/2000/svg">
<path d="M21 42C9.42153 42 0 32.5785 0 21C0 9.42153 9.41879 0 21 0C32.5812 0 42 9.42153 42 21C42 32.5785 32.5785 42 21 42ZM21 2.625C10.8695 2.625 2.625 10.8668 2.625 21C2.625 31.1332 10.8668 39.375 21 39.375C31.1332 39.375 39.375 31.1332 39.375 21C39.375 10.8668 31.1305 2.625 21 2.625Z" fill="#0000FF"/>
<path d="M20.9999 4.04016C11.6331 4.04016 4.04004 11.6332 4.04004 21C4.04004 30.3668 11.6331 37.9599 20.9999 37.9599C30.3667 37.9599 37.9598 30.3668 37.9598 21C37.9598 11.6332 30.3667 4.04016 20.9999 4.04016ZM13.5191 16.4371L20.9999 11.7756L23.0254 13.0374L13.5191 19.0511V16.4343V16.4371ZM13.5191 21.4736L24.9524 14.2391L27.3776 15.75L13.5191 24.5201V21.4736ZM28.478 25.5575L20.9972 30.219L18.9716 28.9571L28.478 22.9434V25.5602V25.5575ZM28.478 20.521L17.0446 27.7555L14.6194 26.2445L28.478 17.4772V20.5237V20.521Z" fill="#0000FF"/>
</svg>
