<svg width="42" height="42" viewBox="0 0 42 42" fill="none" xmlns="http://www.w3.org/2000/svg">
<path d="M20.9999 37.3659C11.9753 37.3659 4.63403 30.0247 4.63403 21C4.63403 11.9754 11.9753 4.63416 20.9999 4.63416C30.0245 4.63416 37.3658 11.9754 37.3658 21C37.3658 30.0247 30.0245 37.3659 20.9999 37.3659ZM20.9999 6.6816C13.103 6.6816 6.68148 13.1059 6.68148 21C6.68148 28.8942 13.1057 35.3185 20.9999 35.3185C28.8941 35.3185 35.3183 28.8942 35.3183 21C35.3183 13.1059 28.8941 6.6816 20.9999 6.6816Z" fill="#0000FF"/>
<path d="M21 42C9.42153 42 0 32.5785 0 21C0 9.42153 9.42153 0 21 0C32.5785 0 42 9.42153 42 21C42 32.5785 32.5785 42 21 42ZM21 2.625C10.8695 2.625 2.625 10.8668 2.625 21C2.625 31.1332 10.8668 39.375 21 39.375C31.1332 39.375 39.375 31.1332 39.375 21C39.375 10.8668 31.1332 2.625 21 2.625Z" fill="#0000FF"/>
<path d="M13.519 16.4398L20.9999 11.7783L23.0254 13.0402L13.519 19.0566V16.4398Z" fill="#0000FF"/>
<path d="M13.519 21.4763L24.9524 14.2418L27.3776 15.7528L13.519 24.5228V21.4763Z" fill="#0000FF"/>
<path d="M28.4781 25.5602L21 30.2217L18.9717 28.9599L28.4781 22.9462V25.5602Z" fill="#0000FF"/>
<path d="M28.478 20.5238L17.0446 27.7583L14.6194 26.2473L28.478 17.48V20.5238Z" fill="#0000FF"/>
</svg>
