<svg width="15" height="12" viewBox="0 0 15 12" fill="none" xmlns="http://www.w3.org/2000/svg">
<path d="M0.791771 10.6056C2.05741 11.4269 3.55884 11.9076 5.1741 11.9076C10.4833 11.9076 13.4807 7.36448 13.3019 3.28831C13.8602 2.87905 14.3453 2.3709 14.7274 1.78859C14.2152 2.01932 13.6623 2.17588 13.085 2.24455C13.6759 1.88747 14.1285 1.3189 14.3426 0.640454C13.7897 0.97281 13.1772 1.21452 12.5268 1.34362C12.0037 0.780538 11.2611 0.428955 10.4399 0.428955C8.59432 0.428955 7.23924 2.17314 7.65389 3.98598C5.27708 3.86513 3.17129 2.7115 1.76201 0.959076C1.014 2.26103 1.37445 3.96676 2.64552 4.82923C2.17666 4.8155 1.73491 4.68366 1.35006 4.46666C1.32025 5.80982 2.26881 7.06508 3.64286 7.34525C3.23904 7.45512 2.8 7.48259 2.35282 7.39469C2.71599 8.54558 3.77294 9.38333 5.02233 9.40805C3.82173 10.3639 2.30675 10.7897 0.789062 10.6084L0.791771 10.6056Z" fill="#0000FF"/>
</svg>
