<svg width="47" height="47" viewBox="0 0 47 47" fill="none" xmlns="http://www.w3.org/2000/svg">
<path d="M23.5 30.7769C16.9374 30.7769 11.5976 36.1158 11.5976 42.6792C11.5976 43.0593 11.616 43.4347 11.6518 43.8047C15.2089 45.8885 19.2681 47.001 23.5 47.001C27.7318 47.001 31.7911 45.8885 35.3482 43.8047C35.3831 43.4338 35.4024 43.0593 35.4024 42.6792C35.4024 36.1167 30.0635 30.7769 23.5 30.7769Z" fill="#0000FF"/>
<path d="M40.1171 6.88293C35.6787 2.44455 29.7771 0 23.5 0C17.2229 0 11.3213 2.44455 6.88293 6.88293C2.44455 11.3213 0 17.2229 0 23.5C0 29.7771 2.44455 35.6787 6.88293 40.1171C7.51449 40.7495 8.17727 41.3389 8.86574 41.8887C9.17418 36.1184 12.835 31.2238 17.9307 29.1226C15.129 27.2967 13.2738 24.1362 13.2738 20.5496C13.2738 14.9106 17.8609 10.3235 23.5 10.3235C29.1391 10.3235 33.7262 14.9106 33.7262 20.5496C33.7262 24.1362 31.871 27.2958 29.0693 29.1226C34.1659 31.2238 37.8267 36.1184 38.1343 41.8887C38.8227 41.3389 39.4846 40.7486 40.1171 40.1171C44.5554 35.6787 47 29.7771 47 23.5C47 17.2229 44.5554 11.3213 40.1171 6.88293Z" fill="#0000FF"/>
<path d="M30.9722 20.5506C30.9722 16.4299 27.6198 13.0784 23.5 13.0784C19.3801 13.0784 16.0277 16.4308 16.0277 20.5506C16.0277 24.6705 19.3801 28.0229 23.5 28.0229C27.6198 28.0229 30.9722 24.6705 30.9722 20.5506Z" fill="#0000FF"/>
</svg>
