<svg width="32" height="32" viewBox="0 0 32 32" fill="none" xmlns="http://www.w3.org/2000/svg">
<path d="M15.7811 31.5612C7.07913 31.5612 0 24.482 0 15.7811C0 7.08014 7.07913 0 15.7811 0C24.483 0 31.5612 7.07913 31.5612 15.7811C31.5612 24.483 24.482 31.5612 15.7811 31.5612ZM15.7811 1.97251C8.16738 1.97251 1.97251 8.16738 1.97251 15.7811C1.97251 23.3948 8.16638 29.5887 15.7801 29.5887C23.3938 29.5887 29.5877 23.3948 29.5877 15.7811C29.5877 8.16738 23.3948 1.97251 15.7811 1.97251Z" fill="white"/>
<path d="M15.7811 3.03662C8.74314 3.03662 3.03662 8.74213 3.03662 15.7811C3.03662 22.82 8.74213 28.5255 15.7811 28.5255C22.82 28.5255 28.5255 22.82 28.5255 15.7811C28.5255 8.74213 22.819 3.03662 15.7811 3.03662ZM10.16 12.3535L15.7811 8.85065L17.3034 9.79923L10.16 14.319V12.3535ZM10.16 16.1388L18.7514 10.7026L20.5742 11.8381L10.16 18.4278V16.1388ZM21.4012 19.2086L15.7801 22.7115L14.2577 21.7629L21.4012 17.2431V19.2086ZM21.4012 15.4233L12.8097 20.8596L10.988 19.7241L21.4022 13.1343V15.4233H21.4012Z" fill="white"/>
</svg>
