<svg width="26" height="26" viewBox="0 0 26 26" fill="none" xmlns="http://www.w3.org/2000/svg">
<path d="M13.0005 0.886414C6.31072 0.886414 0.886475 6.3097 0.886475 13.0005C0.886475 19.6912 6.30976 25.1145 13.0005 25.1145C19.6913 25.1145 25.1146 19.6912 25.1146 13.0005C25.1146 6.3097 19.6903 0.886414 13.0005 0.886414ZM7.65746 9.74247L13.0005 6.41285L14.4476 7.31451L7.65746 11.6107V9.74247ZM7.65746 13.3405L15.8239 8.17318L17.5565 9.25249L7.65746 15.5163V13.3405V13.3405ZM18.3426 16.2584L12.9996 19.5881L11.5525 18.6864L18.3426 14.3902V16.2584V16.2584ZM18.3426 12.6604L10.1762 17.8277L8.4445 16.7484L18.3436 10.4846V12.6604H18.3426Z" fill="white"/>
</svg>
