<svg width="37" height="37" viewBox="0 0 37 37" fill="none" xmlns="http://www.w3.org/2000/svg">
<path d="M18.5 1.49321L23.1646 6.15786L23.4686 6.46179H30.5118V13.505L30.8157 13.8089L35.4804 18.4736L30.8157 23.1382L30.5118 23.4421V30.4854H23.4686L23.1646 30.7893L18.5 35.4539L13.8354 30.7893L13.5314 30.4854H6.475V23.4421L6.17107 23.1382L1.50643 18.4736L6.17107 13.8089L6.475 13.505V6.475H13.5182L13.8221 6.17107L18.4868 1.50643L18.5 1.49321ZM18.4868 0.0132143L13.0689 5.43107H5.41786V13.0954L0 18.5L5.41786 23.9179V31.5821H13.0821L18.5 37L23.9179 31.5821H31.5821V23.9179L37 18.5L31.5821 13.0821V5.41786H23.9179L18.5 0L18.4868 0.0132143Z" fill="#0000FF"/>
</svg>
