<svg width="22" height="23" viewBox="0 0 22 23" fill="none" xmlns="http://www.w3.org/2000/svg">
<path d="M3.91114 9.2682C3.93248 9.75062 4.3021 10.1576 4.80053 10.1576C5.26618 10.1576 5.71202 9.74834 5.68992 9.2682C5.66858 8.78655 5.29895 8.37881 4.80053 8.37881C4.33564 8.37881 3.8898 8.78807 3.91114 9.2682Z" fill="white"/>
<path d="M21.3949 0.0473601C21.0344 -0.0753405 20.635 0.0458359 20.4034 0.347634C20.3706 0.390312 17.0409 4.64368 11.6223 4.64368H4.62452C2.07448 4.64368 0 6.71816 0 9.2682C0 11.8182 2.07448 13.8927 4.62452 13.8927H4.77085V19.3586C4.77085 20.9461 6.06263 22.2379 7.65012 22.2379C9.23761 22.2379 10.5286 20.9461 10.5286 19.3586V13.8927H11.623C13.8705 13.8927 16.0242 14.6068 18.0233 16.016C19.5429 17.0875 20.3973 18.1796 20.4049 18.1888C20.5764 18.4121 20.8393 18.5363 21.1106 18.5363C21.2059 18.5363 21.3027 18.521 21.3964 18.489C21.7569 18.3663 22 18.028 22 17.6469V0.89026C22 0.509202 21.7576 0.170061 21.3964 0.0473601H21.3949ZM8.74909 19.3586C8.74909 19.9653 8.256 20.4583 7.64936 20.4583C7.04271 20.4583 6.54962 19.9653 6.54962 19.3586V13.8927H8.74909V19.3586ZM10.7329 12.1132H4.62452C3.05608 12.1132 1.77954 10.8366 1.77954 9.2682C1.77954 7.69977 3.05608 6.42322 4.62452 6.42322H10.7329V12.1132ZM20.2197 15.4772C19.8935 15.1952 19.5208 14.8972 19.1017 14.5992C17.076 13.158 14.8148 12.3182 12.5124 12.1459V6.38969C14.8148 6.21745 17.076 5.3776 19.1017 3.93644C19.5208 3.63845 19.8943 3.3397 20.2197 3.05848V15.4772Z" fill="white"/>
</svg>
