<svg width="42" height="42" viewBox="0 0 42 42" fill="none" xmlns="http://www.w3.org/2000/svg">
<path d="M21 0C9.40129 0 0 9.40128 0 21C0 32.5987 9.40129 42 21 42C32.5987 42 42 32.5987 42 21C42 9.40128 32.5987 0 21 0ZM21 39.4778C10.7941 39.4778 2.52223 31.2059 2.52223 21C2.52223 10.7941 10.7941 2.52222 21 2.52222C31.2059 2.52222 39.4778 10.7941 39.4778 21C39.4778 31.2059 31.2059 39.4778 21 39.4778Z" fill="#0B24FA"/>
<path d="M31.6916 24.4264L30.1876 16.2891C30.1291 15.9731 29.8511 15.7419 29.5292 15.7419H27.6742L28.3471 13.5943C28.4554 13.2431 28.2623 12.8715 27.9141 12.7574L19.1741 9.93966C19.0044 9.88406 18.8171 9.90162 18.6591 9.98355C18.5011 10.0655 18.3811 10.2089 18.3285 10.3815L16.6899 15.7419H12.4677C12.1458 15.7419 11.8678 15.9731 11.8093 16.2891L10.3053 24.4264C10.2702 24.6224 10.3229 24.8243 10.4487 24.9764C10.5745 25.1286 10.7647 25.2164 10.9637 25.2164H31.0332C31.2322 25.2164 31.4194 25.1286 31.5482 24.9764C31.674 24.8243 31.7267 24.6224 31.6916 24.4264ZM19.4082 11.4231L26.8724 13.8283L24.9998 19.8091H16.845L19.4082 11.4202V11.4231ZM11.7683 23.8792L13.0236 17.0791H16.2803L15.4463 19.8091H14.7031C14.3345 19.8091 14.0331 20.1076 14.0331 20.4792C14.0331 20.8508 14.3315 21.1492 14.7031 21.1492H27.2967C27.6654 21.1492 27.9668 20.8508 27.9668 20.4792C27.9668 20.1076 27.6683 19.8091 27.2967 19.8091H26.4013L27.2557 17.0791H28.9733L30.2286 23.8792H11.7683Z" fill="#0B24FA"/>
<path d="M15.5519 32.0076H14.2761L12.7166 27.3904H13.9074L14.914 30.9045L15.9176 27.3904H17.1085L15.5489 32.0076H15.5519Z" fill="#0B24FA"/>
<path d="M21.9919 29.7019C21.9919 30.0297 21.9392 30.3398 21.8339 30.6266C21.7286 30.9162 21.5735 31.1679 21.3716 31.3844C21.1697 31.6009 20.9239 31.7736 20.6342 31.9023C20.3416 32.0281 20.011 32.0925 19.6365 32.0925C19.2619 32.0925 18.9284 32.0281 18.6358 31.9023C18.3432 31.7765 18.0944 31.6039 17.8955 31.3844C17.6936 31.1679 17.5414 30.9133 17.439 30.6266C17.3337 30.3369 17.2839 30.0297 17.2839 29.7019C17.2839 29.3742 17.3366 29.0641 17.439 28.7773C17.5444 28.4877 17.6965 28.236 17.8955 28.0195C18.0974 27.803 18.3432 27.6303 18.6358 27.5016C18.9284 27.3758 19.2619 27.3114 19.6365 27.3114C20.011 27.3114 20.3445 27.3758 20.6342 27.5016C20.9239 27.6274 21.1726 27.8 21.3716 28.0195C21.5735 28.236 21.7256 28.4906 21.8339 28.7773C21.9392 29.067 21.9919 29.3742 21.9919 29.7019ZM19.6365 31.1913C19.8354 31.1913 20.011 31.1533 20.1631 31.0801C20.3153 31.007 20.444 30.9045 20.5464 30.7729C20.6518 30.6412 20.7279 30.4832 20.7776 30.3018C20.8273 30.1204 20.8537 29.9185 20.8537 29.7019C20.8537 29.4854 20.8273 29.2835 20.7776 29.1021C20.7279 28.9207 20.6488 28.7627 20.5464 28.631C20.4411 28.4994 20.3153 28.397 20.1631 28.3238C20.011 28.2506 19.8354 28.2126 19.6365 28.2126C19.4375 28.2126 19.2561 28.2506 19.1068 28.3238C18.9576 28.397 18.8289 28.4994 18.7265 28.631C18.624 28.7627 18.5451 28.9207 18.4953 29.1021C18.4456 29.2835 18.4192 29.4854 18.4192 29.7019C18.4192 29.9185 18.4456 30.1204 18.4953 30.3018C18.5451 30.4832 18.624 30.6412 18.7265 30.7729C18.8318 30.9045 18.9576 31.007 19.1068 31.0801C19.2561 31.1533 19.4346 31.1913 19.6365 31.1913Z" fill="#0B24FA"/>
<path d="M25.8368 27.3933V28.2945H24.5961V32.0106H23.4579V28.2945H22.2173V27.3933H25.8368Z" fill="#0B24FA"/>
<path d="M26.3838 27.3933H29.2601V28.2945H27.5191V29.2221H29.1752V30.1233H27.5191V31.1064H29.2805V32.0076H26.3838V27.3904V27.3933Z" fill="#0B24FA"/>
</svg>
