<svg width="42" height="42" viewBox="0 0 42 42" fill="none" xmlns="http://www.w3.org/2000/svg">
<circle cx="21" cy="21" r="21" fill="#0000FF"/>
<path d="M15.9686 19.2957C15.9849 19.6641 16.2671 19.9749 16.6478 19.9749C17.0033 19.9749 17.3438 19.6624 17.3269 19.2957C17.3106 18.9279 17.0284 18.6166 16.6478 18.6166C16.2927 18.6166 15.9523 18.9291 15.9686 19.2957Z" fill="white"/>
<path d="M29.3197 12.2544C29.0444 12.1607 28.7394 12.2532 28.5625 12.4837C28.5375 12.5162 25.9948 15.7643 21.8569 15.7643H16.5132C14.5659 15.7643 12.9818 17.3484 12.9818 19.2957C12.9818 21.243 14.5659 22.8272 16.5132 22.8272H16.6249V27.0011C16.6249 28.2134 17.6114 29.1999 18.8237 29.1999C20.0359 29.1999 21.0218 28.2134 21.0218 27.0011V22.8272H21.8575C23.5738 22.8272 25.2184 23.3725 26.745 24.4486C27.9054 25.2668 28.5578 26.1008 28.5637 26.1078C28.6946 26.2783 28.8954 26.3732 29.1026 26.3732C29.1753 26.3732 29.2492 26.3615 29.3208 26.3371C29.5961 26.2434 29.7817 25.985 29.7817 25.694V12.898C29.7817 12.607 29.5967 12.3481 29.3208 12.2544H29.3197ZM19.6629 27.0011C19.6629 27.4644 19.2863 27.8409 18.8231 27.8409C18.3598 27.8409 17.9833 27.4644 17.9833 27.0011V22.8272H19.6629V27.0011ZM21.1778 21.4683H16.5132C15.3155 21.4683 14.3407 20.4934 14.3407 19.2957C14.3407 18.098 15.3155 17.1232 16.5132 17.1232H21.1778V21.4683ZM28.4222 24.0371C28.1732 23.8218 27.8886 23.5942 27.5685 23.3667C26.0216 22.2661 24.2948 21.6248 22.5367 21.4933V17.0976C24.2948 16.9661 26.0216 16.3247 27.5685 15.2242C27.8886 14.9966 28.1737 14.7685 28.4222 14.5538V24.0371Z" fill="white"/>
</svg>
