<svg width="42" height="42" viewBox="0 0 42 42" fill="none" xmlns="http://www.w3.org/2000/svg">
<path d="M26.8724 13.8283L19.4082 11.4231L16.845 19.8091H24.9998L26.8724 13.8283Z" fill="#0B24FA"/>
<path d="M20.5464 28.6281C20.4411 28.4965 20.3152 28.3941 20.1631 28.3209C20.0109 28.2478 19.8354 28.2097 19.6364 28.2097C19.4374 28.2097 19.256 28.2478 19.1068 28.3209C18.9576 28.3941 18.8288 28.4965 18.7264 28.6281C18.624 28.7598 18.545 28.9178 18.4953 29.0992C18.4455 29.2806 18.4192 29.4825 18.4192 29.6991C18.4192 29.9156 18.4455 30.1175 18.4953 30.2989C18.545 30.4803 18.624 30.6383 18.7264 30.77C18.8318 30.9016 18.9576 31.0041 19.1068 31.0772C19.256 31.1504 19.4345 31.1884 19.6364 31.1884C19.8383 31.1884 20.0109 31.1504 20.1631 31.0772C20.3152 31.0041 20.444 30.9016 20.5464 30.77C20.6517 30.6383 20.7278 30.4803 20.7776 30.2989C20.8273 30.1175 20.8536 29.9156 20.8536 29.6991C20.8536 29.4825 20.8273 29.2806 20.7776 29.0992C20.7278 28.9178 20.6488 28.7598 20.5464 28.6281Z" fill="#0B24FA"/>
<path d="M27.2557 17.0791L26.4013 19.8091H27.2967C27.6653 19.8091 27.9667 20.1075 27.9667 20.4791C27.9667 20.8507 27.6683 21.1492 27.2967 21.1492H14.7031C14.3344 21.1492 14.0331 20.8507 14.0331 20.4791C14.0331 20.1075 14.3315 19.8091 14.7031 19.8091H15.4463L16.2802 17.0791H13.0236L11.7683 23.8792H30.2285L28.9733 17.0791H27.2557Z" fill="#0B24FA"/>
<path d="M21 0C9.40129 0 0 9.40128 0 21C0 32.5987 9.40129 42 21 42C32.5987 42 42 32.5987 42 21C42 9.40128 32.5958 0 21 0ZM15.5518 32.0077H14.276L12.7165 27.3904H13.9073L14.9139 30.9046L15.9175 27.3904H17.1084L15.5488 32.0077H15.5518ZM21.831 30.6237C21.7257 30.9133 21.5706 31.165 21.3687 31.3815C21.1668 31.598 20.921 31.7707 20.6313 31.8994C20.3387 32.0252 20.0081 32.0896 19.6336 32.0896C19.259 32.0896 18.9255 32.0252 18.6329 31.8994C18.3403 31.7736 18.0915 31.6009 17.8926 31.3815C17.6907 31.165 17.5385 30.9104 17.4361 30.6237C17.3308 30.334 17.281 30.0268 17.281 29.699C17.281 29.3713 17.3337 29.0612 17.4361 28.7744C17.5415 28.4847 17.6936 28.2331 17.8926 28.0166C18.0945 27.8001 18.3403 27.6274 18.6329 27.4987C18.9255 27.3729 19.259 27.3085 19.6336 27.3085C20.0081 27.3085 20.3416 27.3729 20.6313 27.4987C20.921 27.6245 21.1697 27.7971 21.3687 28.0166C21.5706 28.2331 21.7227 28.4877 21.831 28.7744C21.9363 29.0641 21.989 29.3713 21.989 29.699C21.989 30.0268 21.9363 30.3369 21.831 30.6237ZM25.8367 28.2916H24.5961V32.0077H23.4579V28.2916H22.2172V27.3904H25.8367V28.2916ZM29.2806 32.0077H26.3839V27.3904H29.2601V28.2916H27.5192V29.2192H29.1753V30.1204H27.5192V31.1035H29.2806V32.0047V32.0077ZM31.5454 24.9735C31.4195 25.1257 31.2293 25.2135 31.0304 25.2135H10.9609C10.7619 25.2135 10.5746 25.1257 10.4459 24.9735C10.3201 24.8214 10.2674 24.6195 10.3025 24.4234L11.8065 16.2862C11.865 15.9702 12.143 15.739 12.4648 15.739H16.6871L18.3256 10.3786C18.3783 10.2059 18.4983 10.0626 18.6563 9.98063C18.8143 9.8987 19.0015 9.88115 19.1712 9.93674L27.9112 12.7545C28.2594 12.8686 28.4555 13.2402 28.3443 13.5913L27.6713 15.739H29.5264C29.8483 15.739 30.1262 15.9702 30.1848 16.2862L31.6887 24.4234C31.7238 24.6195 31.6712 24.8214 31.5454 24.9735Z" fill="#0B24FA"/>
</svg>
