<svg width="25" height="22" viewBox="0 0 25 22" fill="none" xmlns="http://www.w3.org/2000/svg">
<path d="M21.2535 4.60231H3.64176C2.18276 4.60231 1 5.78507 1 7.24407V17.8111C1 19.2701 2.18276 20.4529 3.64176 20.4529H21.2535C22.7125 20.4529 23.8953 19.2701 23.8953 17.8111V7.24407C23.8953 5.78507 22.7125 4.60231 21.2535 4.60231Z" stroke="#0000FF" stroke-width="2" stroke-linejoin="round"/>
<path d="M1.04347 6.82084C0.800203 5.59242 1.64777 4.38987 2.93728 4.13395L18.5033 1.04804C19.7928 0.79267 21.0355 1.5808 21.2788 2.80921L21.7345 5.107" stroke="#0000FF" stroke-width="2" stroke-linejoin="round"/>
<path d="M19.5556 14.0053C20.3717 14.0053 21.0334 13.3437 21.0334 12.5276C21.0334 11.7115 20.3717 11.0499 19.5556 11.0499C18.7395 11.0499 18.0779 11.7115 18.0779 12.5276C18.0779 13.3437 18.7395 14.0053 19.5556 14.0053Z" fill="#0000FF"/>
</svg>
