<svg width="16" height="15" viewBox="0 0 16 15" fill="none" xmlns="http://www.w3.org/2000/svg">
<path fill-rule="evenodd" clip-rule="evenodd" d="M15.3599 7.29969C15.2635 3.46076 12.0993 0.37915 8.20806 0.37915C4.3168 0.37915 1.22694 3.39191 1.05895 7.17026C1.05619 7.27491 1.05344 7.3768 1.05344 7.48145C1.05344 8.82535 1.42796 10.0784 2.07788 11.1496L0.789062 14.9583L4.75192 13.697C5.77637 14.2588 6.95779 14.581 8.21082 14.581C12.1654 14.581 15.3682 11.4002 15.3682 7.4787C15.3682 7.41811 15.3682 7.35752 15.3654 7.29694L15.3599 7.29969ZM8.20806 13.4519C6.98533 13.4519 5.84797 13.0911 4.89788 12.4632L2.58736 13.2013L3.33642 10.9844C2.6149 9.99851 2.19079 8.78955 2.19079 7.4842C2.19079 7.28868 2.20181 7.0959 2.22109 6.90589C2.51576 3.88486 5.0879 1.51376 8.20806 1.51376C11.3282 1.51376 13.9637 3.94269 14.206 7.0188C14.2198 7.17301 14.2253 7.32723 14.2253 7.4842C14.2253 10.7779 11.5238 13.4547 8.20806 13.4547V13.4519Z" fill="#0000FF"/>
<path fill-rule="evenodd" clip-rule="evenodd" d="M11.4878 8.91324C11.3115 8.82512 10.4496 8.40377 10.2871 8.34594C10.1274 8.28536 10.0089 8.25782 9.89053 8.43407C9.77211 8.60756 9.43613 9.00137 9.33424 9.11428C9.22959 9.2327 9.13045 9.24371 8.95145 9.15834C8.77795 9.07022 8.21065 8.89121 7.54145 8.29362C7.02097 7.83372 6.66571 7.26641 6.56657 7.09017C6.46743 6.91667 6.55556 6.82304 6.64368 6.73491C6.72354 6.65505 6.81717 6.53112 6.90805 6.42923C6.93284 6.39894 6.95212 6.3714 6.9714 6.34661C7.0127 6.28327 7.043 6.22269 7.08155 6.14007C7.14214 6.02165 7.11185 5.92251 7.06778 5.83439C7.02372 5.74626 6.67122 4.8898 6.52527 4.54006C6.38206 4.19307 6.23335 4.2509 6.1287 4.2509C6.02406 4.2509 5.91115 4.23438 5.79273 4.23438C5.67431 4.23438 5.48429 4.27844 5.32456 4.45193C5.16484 4.62543 4.71045 5.04953 4.71045 5.90599C4.71045 6.10702 4.74625 6.30806 4.80132 6.49808C4.97757 7.1122 5.36036 7.61616 5.42921 7.70428C5.51734 7.81719 6.64093 9.63477 8.42545 10.3343C10.21 11.0282 10.21 10.7969 10.5322 10.7666C10.8544 10.7391 11.5704 10.348 11.7136 9.93769C11.8623 9.53287 11.8623 9.18313 11.8183 9.10877C11.7742 9.03717 11.6585 8.99586 11.4823 8.90774L11.4878 8.91324Z" fill="#0000FF"/>
</svg>
