<svg width="45" height="46" viewBox="0 0 45 46" fill="none" xmlns="http://www.w3.org/2000/svg">
<path d="M22.0118 38.7088C27.8356 38.7088 32.5734 33.9707 32.5734 28.1469C32.5734 22.3231 27.8356 17.5853 22.0118 17.5853C16.1877 17.5853 11.4499 22.3231 11.4499 28.1469C11.4499 33.9707 16.188 38.7088 22.0118 38.7088ZM22.0118 20.2461C26.3684 20.2461 29.9127 23.7903 29.9127 28.1469C29.9127 32.5035 26.3684 36.0481 22.0118 36.0481C17.6553 36.0481 14.1107 32.5035 14.1107 28.1469C14.1107 23.7903 17.6553 20.2461 22.0118 20.2461Z" fill="white"/>
<path d="M39.7204 2.833H37.2937V1.33038C37.2937 0.595751 36.698 0 35.9633 0C35.2287 0 34.6329 0.595751 34.6329 1.33038V2.833H32.0186V1.33038C32.0186 0.595751 31.4228 0 30.6879 0C29.9532 0 29.3575 0.595751 29.3575 1.33038V2.833H14.6662V1.33038C14.6662 0.595751 14.0704 0 13.3355 0C12.6008 0 12.0051 0.595751 12.0051 1.33038V2.833H9.39072V1.33038C9.39072 0.595751 8.79497 0 8.05999 0C7.32536 0 6.72961 0.595751 6.72961 1.33038V2.833H4.30261C1.93026 2.833 0 4.76325 0 7.13594V40.7558C0 43.1282 1.93026 45.0584 4.30261 45.0584H39.7204C42.0931 45.0584 44.023 43.1282 44.023 40.7558V7.13594C44.023 4.76325 42.0927 2.833 39.7204 2.833ZM41.3619 40.7558C41.3619 41.6609 40.6255 42.3976 39.7204 42.3976H4.30261C3.39746 42.3976 2.66077 41.6609 2.66077 40.7558V13.8958H41.3619V40.7558ZM2.66077 7.13594C2.66077 6.23046 3.39746 5.49411 4.30261 5.49411H6.72961V6.99672C6.72961 7.73135 7.32536 8.3271 8.06034 8.3271C8.79497 8.3271 9.39072 7.73135 9.39072 6.99672V5.49411H12.0051V6.99672C12.0051 7.73135 12.6008 8.3271 13.3358 8.3271C14.0704 8.3271 14.6662 7.73135 14.6662 6.99672V5.49411H29.3575V6.99672C29.3575 7.73135 29.9532 8.3271 30.6882 8.3271C31.4228 8.3271 32.0186 7.73135 32.0186 6.99672V5.49411H34.6329V6.99672C34.6329 7.73135 35.2287 8.3271 35.9633 8.3271C36.6983 8.3271 37.2941 7.73135 37.2941 6.99672V5.49411H39.7204C40.6255 5.49411 41.3622 6.23046 41.3622 7.13594V11.2347H2.66077V7.13594Z" fill="white"/>
<path d="M21.0799 31.9489L22.0451 32.5504L25.6093 30.329V29.0821L21.0799 31.9489Z" fill="white"/>
<path d="M23.9294 24.9354L18.481 28.3829V29.8342L25.0851 25.6558L23.9294 24.9354Z" fill="white"/>
<path d="M25.6094 26.4778L19.0052 30.6562L20.1609 31.3766L25.6094 27.9291V26.4778Z" fill="white"/>
<path d="M22.0451 23.7612L18.481 25.9826V27.2296L23.0104 24.3628L22.0451 23.7612Z" fill="white"/>
</svg>
