<svg width="122" height="30" viewBox="0 0 122 30" fill="none" xmlns="http://www.w3.org/2000/svg">
<path d="M8.73266 27.5156L11.9788 29.5384L23.9577 22.0731V17.8824L8.73266 27.5156Z" fill="white"/>
<path d="M18.3109 3.94675L0 15.5324V20.4105L22.194 6.36711L18.3109 3.94675Z" fill="white"/>
<path d="M23.9577 9.12756L1.76368 23.1709L5.64681 25.5913L23.9577 14.0056V9.12756Z" fill="white"/>
<path d="M11.9788 0L0 7.46535V11.6538L15.2228 2.02283L11.9788 0Z" fill="white"/>
<path d="M49.3077 23.3377V16.3644H43.0305V23.3377H38.8092V6.19971H43.0305V12.9161H49.3077V6.19971H53.5268V23.3377H49.3077Z" fill="white"/>
<path d="M63.0479 6.19971H73.7265V9.54473H67.2671V12.993H73.4168V16.338H67.2671V19.9927H73.8012V23.3377H63.0457V6.19971H63.0479Z" fill="white"/>
<path d="M95.8041 11.6291C95.8041 12.7799 95.4812 13.7815 94.8377 14.6402C94.1942 15.4968 93.2981 16.1491 92.1494 16.595L97.7852 23.3355H92.5864L87.8775 17.3922H87.1066V23.3355H82.8852V6.19971H88.3409C89.4039 6.19971 90.3901 6.31172 91.2994 6.53355C92.2087 6.75538 92.9972 7.09142 93.667 7.53728C94.3369 7.98313 94.8597 8.5454 95.2374 9.22187C95.6152 9.90054 95.8041 10.7022 95.8041 11.6269V11.6291ZM91.7387 11.7059C91.7387 10.935 91.4378 10.364 90.8382 9.99498C90.2364 9.62599 89.3974 9.4415 88.3146 9.4415H87.1066V14.2537H88.1367C89.2678 14.2537 90.1507 14.0318 90.7854 13.5838C91.4202 13.1379 91.7387 12.512 91.7387 11.7059Z" fill="white"/>
<path d="M122 14.7678C122 15.9868 121.802 17.1311 121.407 18.2029C121.012 19.2747 120.443 20.2147 119.696 21.0208C118.949 21.8268 118.035 22.466 116.955 22.9382C115.874 23.4104 114.638 23.6454 113.25 23.6454C111.862 23.6454 110.621 23.4082 109.531 22.9382C108.442 22.466 107.524 21.8268 106.777 21.0208C106.032 20.2147 105.466 19.2747 105.079 18.2029C104.693 17.1311 104.499 15.9868 104.499 14.7678C104.499 13.5488 104.693 12.4045 105.079 11.3327C105.466 10.2609 106.032 9.32088 106.777 8.51482C107.524 7.70877 108.442 7.06963 109.531 6.59742C110.621 6.12521 111.859 5.8902 113.25 5.8902C114.64 5.8902 115.874 6.12521 116.955 6.59742C118.035 7.06963 118.949 7.70877 119.696 8.51482C120.443 9.32088 121.012 10.2609 121.407 11.3327C121.802 12.4045 122 13.5488 122 14.7678ZM113.252 20.3004C113.99 20.3004 114.64 20.162 115.207 19.8897C115.773 19.6151 116.248 19.2329 116.634 18.7432C117.021 18.2556 117.306 17.6714 117.495 16.9927C117.684 16.3162 117.778 15.5739 117.778 14.7678C117.778 13.9617 117.684 13.2194 117.495 12.5407C117.306 11.8642 117.019 11.28 116.634 10.7902C116.248 10.3026 115.773 9.92048 115.207 9.64593C114.64 9.37139 113.988 9.23522 113.252 9.23522C112.516 9.23522 111.842 9.37359 111.284 9.64593C110.726 9.92048 110.254 10.3026 109.869 10.7902C109.483 11.28 109.197 11.862 109.009 12.5407C108.82 13.2194 108.725 13.9595 108.725 14.7678C108.725 15.576 108.82 16.3162 109.009 16.9927C109.197 17.6714 109.485 18.2534 109.869 18.7432C110.256 19.2329 110.726 19.6151 111.284 19.8897C111.842 20.1642 112.498 20.3004 113.252 20.3004Z" fill="white"/>
</svg>
