<svg width="34" height="50" viewBox="0 0 34 50" fill="none" xmlns="http://www.w3.org/2000/svg">
<path d="M25 20.8906C29.6875 21.4087 33.3333 25.3829 33.3333 30.2083V48.9583C33.3333 49.5337 32.8668 49.9999 32.2916 49.9999C31.7164 49.9999 31.25 49.5337 31.25 48.9583V30.2083C31.25 26.535 28.5335 23.496 25 22.9906V35.4166C25 37.7179 23.1346 39.5833 20.8333 39.5833C18.9731 39.5833 17.3296 39.0841 15.9341 38.0845C15.4035 37.7045 14.7671 37.5002 14.1135 37.5002C13.5777 37.5 13.1475 37.8102 12.9942 38.2702C12.7629 38.9635 12.9017 39.6391 13.331 40.1222L20.5702 48.2664C20.9525 48.6962 20.9137 49.3547 20.4837 49.7368C20.0537 50.1191 19.3954 50.0804 19.0131 49.6504L13.7498 43.7293C13.6825 43.7429 13.6129 43.7499 13.5417 43.7499H5.20833C2.33185 43.7499 0 41.4183 0 38.5416V5.20833C0 2.33185 2.33185 1.25e-06 5.20833 1.25e-06L19.7916 0C22.6681 8.54166e-07 25 2.33185 25 5.20833V20.8906ZM11.774 41.5064C10.8495 40.4664 10.5509 39.0116 10.9909 37.6914C11.4545 36.3008 12.681 35.4166 14.0633 35.4166C15.2023 35.4168 16.2629 35.7575 17.1473 36.391C18.1791 37.13 19.3973 37.5 20.8333 37.5C21.9839 37.5 22.9166 36.5672 22.9166 35.4166V5.20833C22.9166 3.48243 21.5175 2.08333 19.7916 2.08333H5.20833C3.48243 2.08333 2.08333 3.48243 2.08333 5.20833V38.5416C2.08333 40.2677 3.48243 41.6666 5.20833 41.6666H11.9165L11.774 41.5064ZM9.37499 6.25008C8.7997 6.25008 8.33332 5.7837 8.33332 5.20841C8.33332 4.63312 8.7997 4.16675 9.37499 4.16675H15.625C16.2002 4.16675 16.6666 4.63312 16.6666 5.20841C16.6666 5.7837 16.2002 6.25008 15.625 6.25008H9.37499Z" fill="white"/>
<path d="M11.5989 25.1877L12.5642 25.7892L16.1283 23.5678V22.3209L11.5989 25.1877Z" fill="white"/>
<path d="M14.4484 18.1741L9 21.6217V23.073L15.6042 18.8946L14.4484 18.1741Z" fill="white"/>
<path d="M16.1284 19.7166L9.52423 23.895L10.68 24.6154L16.1284 21.1679V19.7166Z" fill="white"/>
<path d="M12.5642 17L9 19.2214V20.4683L13.5294 17.6015L12.5642 17Z" fill="white"/>
</svg>
