<svg width="20" height="20" viewBox="0 0 20 20" fill="none" xmlns="http://www.w3.org/2000/svg">
<circle cx="9.88701" cy="9.88701" r="9.88701" fill="white"/>
<path d="M14.1229 8.63416C14.042 8.64226 13.9607 8.64646 13.8795 8.64683C12.9877 8.64695 12.1559 8.18534 11.6674 7.41919V11.5996C11.6674 13.306 10.3203 14.6893 8.6586 14.6893C6.99686 14.6893 5.64972 13.306 5.64972 11.5996C5.64972 9.89328 6.9968 8.50992 8.65854 8.50992C8.72138 8.50992 8.78274 8.5157 8.84451 8.51972V10.0423C8.78274 10.0347 8.72209 10.0231 8.65854 10.0231C7.81042 10.0231 7.12289 10.7291 7.12289 11.6001C7.12289 12.471 7.81042 13.177 8.65854 13.177C9.50667 13.177 10.2559 12.4907 10.2559 11.6197L10.2707 4.51978H11.6892C11.823 5.826 12.8487 6.84631 14.1243 6.94206V8.63423" fill="#0000FF"/>
</svg>
