<svg width="40" height="33" viewBox="0 0 40 33" fill="none" xmlns="http://www.w3.org/2000/svg">
<path d="M39.166 32.3529C39.0907 32.3529 39.0154 32.3442 38.9401 32.321L0.605227 21.4548C0.246145 21.3532 0 21.025 0 20.6503V12.2908C0 11.8929 0.280895 11.5472 0.674727 11.4717L4.70571 10.6816L38.9314 0.62298C39.1834 0.54746 39.4556 0.596839 39.6641 0.753688C39.8726 0.910537 40 1.16033 40 1.42465V31.5164C40 31.7778 39.8784 32.0276 39.6699 32.1816C39.5222 32.2948 39.3455 32.3529 39.166 32.3529ZM1.66799 20.0171L38.332 30.4098V2.54002L5.09954 12.3024L1.66799 12.9792V20.02V20.0171Z" fill="white"/>
<path d="M39.4118 32.9383C39.087 32.9383 38.8235 32.5692 38.8235 32.1141V0.824173C38.8235 0.369161 39.087 0 39.4118 0C39.7365 0 40 0.369161 40 0.824173V32.117C40 32.572 39.7365 32.9412 39.4118 32.9412V32.9383Z" fill="white"/>
<path d="M0.882353 22.3529C0.395221 22.3529 0 21.9763 0 21.512V11.4292C0 10.9649 0.395221 10.5882 0.882353 10.5882C1.36949 10.5882 1.76471 10.9649 1.76471 11.4292V21.512C1.76471 21.9763 1.36949 22.3529 0.882353 22.3529V22.3529Z" fill="white"/>
<path d="M13.2768 31.1737C9.52183 31.1737 6.47058 28.2641 6.47058 24.6834C6.47058 23.7897 6.64502 22.9693 6.98799 22.2419C7.18017 21.8359 7.68576 21.6526 8.11151 21.8359C8.54022 22.0191 8.72945 22.4984 8.53727 22.9072C8.29482 23.426 8.17065 24.0209 8.17065 24.6834C8.17065 27.3675 10.462 29.5525 13.2768 29.5525C15.7751 29.5525 17.8921 27.8496 18.3089 25.5067C18.3858 25.0669 18.8323 24.768 19.2905 24.8441C19.7547 24.9203 20.0652 25.3404 19.9883 25.7802C19.4295 28.9069 16.6089 31.1765 13.2768 31.1765V31.1737Z" fill="white"/>
<path d="M21.5989 20.1291L22.5642 20.7306L26.1283 18.5092V17.2623L21.5989 20.1291Z" fill="white"/>
<path d="M24.4484 13.1155L19 16.5631V18.0144L25.6042 13.836L24.4484 13.1155Z" fill="white"/>
<path d="M26.1284 14.658L19.5242 18.8364L20.68 19.5568L26.1284 16.1093V14.658Z" fill="white"/>
<path d="M22.5642 11.9414L19 14.1628V15.4097L23.5294 12.5429L22.5642 11.9414Z" fill="white"/>
</svg>
