<svg width="6" height="8" viewBox="0 0 6 8" fill="none" xmlns="http://www.w3.org/2000/svg">
<path d="M3 0L0 1.87005V5.52811L3 7.39816L6 5.52811V1.87005L3 0Z" fill="white"/>
<path d="M4.45431 2.70932C4.36099 2.61587 4.20945 2.61593 4.116 2.70932L2.59334 4.23203L1.91659 3.55528C1.82314 3.46183 1.67166 3.46183 1.57821 3.55528C1.48476 3.64873 1.48476 3.80021 1.57821 3.89366L2.42412 4.73956C2.47081 4.78626 2.53204 4.80966 2.59328 4.80966C2.65451 4.80966 2.7158 4.78632 2.76249 4.73956L4.45431 3.04768C4.54776 2.9543 4.54776 2.80276 4.45431 2.70932Z" fill="#0000FF"/>
</svg>
