<svg width="40" height="44" viewBox="0 0 40 44" fill="none" xmlns="http://www.w3.org/2000/svg">
<path d="M39.7517 17.996L32.0788 10.3333C31.9195 10.1739 31.7042 10.085 31.4796 10.085H29.6449L31.8263 7.9036C32.1576 7.57224 32.1576 7.0358 31.8263 6.70529L25.3695 0.248517C25.0381 -0.0828389 24.5017 -0.0828389 24.1712 0.248517L21.4898 2.92987L14.3254 10.0943C14.2873 10.0892 14.2491 10.085 14.2093 10.085H8.50593C8.28051 10.085 8.06525 10.1739 7.90678 10.3333L0.248305 17.996C0.0949152 18.1494 0 18.3612 0 18.5951V42.5426C0 43.0104 0.379661 43.39 0.847457 43.39H39.1525C39.6203 43.39 40 43.0104 40 42.5426V33.9587C40 33.4909 39.6203 33.1112 39.1525 33.1112C38.6847 33.1112 38.3051 33.4909 38.3051 33.9587V41.6951H1.69491V19.4434H38.3051V27.1799C38.3051 27.6477 38.6847 28.0273 39.1525 28.0273C39.6203 28.0273 40 27.6477 40 27.1799V18.596C40 18.3612 39.9051 18.1494 39.7517 17.996ZM22.6873 4.12818L24.7695 2.04597L30.028 7.30445L23.4161 13.9163H16.4381L14.6686 12.1468L22.6873 4.12818V4.12818ZM2.89237 17.7485L8.85678 11.7799H12.7076C12.5559 12.0951 12.6093 12.485 12.8712 12.7468L14.0415 13.9163H11.3695C10.9017 13.9163 10.522 14.296 10.522 14.7638C10.522 15.2316 10.9017 15.6112 11.3695 15.6112H28.6313C29.0991 15.6112 29.4788 15.2316 29.4788 14.7638C29.4788 14.296 29.0991 13.9163 28.6313 13.9163H25.8135L27.95 11.7799H31.1288L37.1051 17.7485H2.89237Z" fill="white"/>
<path d="M39.1526 29.7212C38.9297 29.7212 38.711 29.8119 38.5534 29.9695C38.3958 30.1272 38.3051 30.3458 38.3051 30.5687C38.3051 30.7916 38.3958 31.0102 38.5534 31.1687C38.711 31.3263 38.9297 31.4161 39.1526 31.4161C39.3755 31.4161 39.5941 31.3263 39.7517 31.1687C39.9094 31.0102 40 30.7916 40 30.5687C40 30.3458 39.9094 30.128 39.7517 29.9695C39.5941 29.8119 39.3755 29.7212 39.1526 29.7212Z" fill="white"/>
<path d="M12.5406 30.2821C12.5406 34.394 15.8864 37.7397 19.9983 37.7397C24.1101 37.7397 27.4559 34.394 27.4559 30.2821C27.4559 26.1702 24.1101 22.8245 19.9983 22.8245C15.8864 22.8245 12.5406 26.1702 12.5406 30.2821V30.2821ZM25.761 30.2821C25.761 33.4601 23.1762 36.0448 19.9983 36.0448C16.8203 36.0448 14.2356 33.4592 14.2356 30.2821C14.2356 27.105 16.8212 24.5194 19.9983 24.5194C23.1754 24.5194 25.761 27.1041 25.761 30.2821Z" fill="white"/>
<path d="M19.2898 33.067L19.9983 33.5085L22.6144 31.878V30.9627L19.2898 33.067Z" fill="white"/>
<path d="M21.3814 27.919L17.3822 30.4495V31.5147L22.2297 28.4478L21.3814 27.919Z" fill="white"/>
<path d="M22.6144 29.0509L17.767 32.1178L18.6153 32.6466L22.6144 30.1161V29.0509Z" fill="white"/>
<path d="M19.9983 27.0569L17.3822 28.6874V29.6027L20.7068 27.4984L19.9983 27.0569Z" fill="white"/>
</svg>
