<svg width="183" height="45" viewBox="0 0 183 45" fill="none" xmlns="http://www.w3.org/2000/svg">
<path d="M13.099 41.2736L17.9683 44.3078L35.9365 33.1098V26.8239L13.099 41.2736Z" fill="white"/>
<path d="M27.4663 5.92026L0 23.2988V30.6159L33.291 9.5508L27.4663 5.92026Z" fill="white"/>
<path d="M35.9365 13.692L2.64551 34.7571L8.4702 38.3876L35.9365 21.0091V13.692Z" fill="white"/>
<path d="M17.9682 0L0 11.198V17.4807L22.8342 3.03424L17.9682 0Z" fill="white"/>
<path d="M73.9616 35.0074V24.5474H64.5459V35.0074H58.2139V9.30038H64.5459V19.375H73.9616V9.30038H80.2904V35.0074H73.9616Z" fill="white"/>
<path d="M94.572 9.30038H110.59V14.3179H100.901V19.4903H110.125V24.5078H100.901V29.9899H110.702V35.0074H94.5687V9.30038H94.572Z" fill="white"/>
<path d="M143.706 17.4444C143.706 19.1707 143.222 20.673 142.257 21.9612C141.291 23.246 139.947 24.2245 138.224 24.8933L146.678 35.0041H138.88L131.816 26.0892H130.66V35.0041H124.328V9.30038H132.511C134.106 9.30038 135.585 9.4684 136.949 9.80115C138.313 10.1339 139.496 10.638 140.501 11.3067C141.506 11.9755 142.29 12.8189 142.856 13.8336C143.423 14.8516 143.706 16.0541 143.706 17.4411V17.4444ZM137.608 17.5597C137.608 16.4033 137.157 15.5468 136.257 14.9933C135.355 14.4398 134.096 14.1631 132.472 14.1631H130.66V21.3813H132.205C133.902 21.3813 135.226 21.0486 136.178 20.3765C137.13 19.7077 137.608 18.7688 137.608 17.5597Z" fill="white"/>
<path d="M183 22.1522C183 23.9807 182.703 25.6971 182.11 27.3049C181.517 28.9126 180.664 30.3226 179.544 31.5317C178.424 32.7408 177.053 33.6995 175.432 34.4078C173.812 35.1161 171.957 35.4686 169.875 35.4686C167.793 35.4686 165.931 35.1128 164.297 34.4078C162.663 33.6995 161.286 32.7408 160.166 31.5317C159.049 30.3226 158.199 28.9126 157.619 27.3049C157.039 25.6971 156.749 23.9807 156.749 22.1522C156.749 20.3238 157.039 18.6074 157.619 16.9996C158.199 15.3919 159.049 13.9819 160.166 12.7728C161.286 11.5637 162.663 10.605 164.297 9.89668C165.931 9.18836 167.789 8.83585 169.875 8.83585C171.96 8.83585 173.812 9.18836 175.432 9.89668C177.053 10.605 178.424 11.5637 179.544 12.7728C180.664 13.9819 181.517 15.3919 182.11 16.9996C182.703 18.6074 183 20.3238 183 22.1522ZM169.878 30.4511C170.985 30.4511 171.96 30.2436 172.81 29.835C173.66 29.4232 174.372 28.85 174.951 28.1153C175.531 27.3839 175.96 26.5076 176.243 25.4896C176.526 24.4749 176.668 23.3613 176.668 22.1522C176.668 20.9432 176.526 19.8296 176.243 18.8116C175.96 17.7969 175.528 16.9206 174.951 16.1859C174.372 15.4545 173.66 14.8813 172.81 14.4695C171.96 14.0576 170.982 13.8534 169.878 13.8534C168.774 13.8534 167.763 14.0609 166.926 14.4695C166.089 14.8813 165.381 15.4545 164.804 16.1859C164.225 16.9206 163.796 17.7936 163.513 18.8116C163.23 19.8296 163.088 20.9399 163.088 22.1522C163.088 23.3646 163.23 24.4749 163.513 25.4896C163.796 26.5076 164.228 27.3806 164.804 28.1153C165.384 28.85 166.089 29.4232 166.926 29.835C167.763 30.2468 168.748 30.4511 169.878 30.4511Z" fill="white"/>
</svg>
