<svg width="122" height="30" viewBox="0 0 122 30" fill="none" xmlns="http://www.w3.org/2000/svg">
<path d="M8.73267 27.5155L11.9789 29.5383L23.9577 22.0729V17.8823L8.73267 27.5155Z" fill="white"/>
<path d="M18.3109 3.94678L0 15.5325V20.4105L22.194 6.36714L18.3109 3.94678Z" fill="white"/>
<path d="M23.9577 9.12744L1.76367 23.1708L5.6468 25.5912L23.9577 14.0055V9.12744Z" fill="white"/>
<path d="M11.9788 0L0 7.46535V11.6538L15.2228 2.02283L11.9788 0Z" fill="white"/>
<path d="M49.3077 23.3377V16.3644H43.0306V23.3377H38.8092V6.19971H43.0306V12.9161H49.3077V6.19971H53.5269V23.3377H49.3077Z" fill="white"/>
<path d="M63.0479 6.19971H73.7265V9.54473H67.2671V12.993H73.4168V16.338H67.2671V19.9927H73.8012V23.3377H63.0457V6.19971H63.0479Z" fill="white"/>
<path d="M95.8041 11.6291C95.8041 12.7799 95.4812 13.7815 94.8377 14.6402C94.1942 15.4968 93.2981 16.1491 92.1494 16.595L97.7852 23.3355H92.5865L87.8775 17.3922H87.1066V23.3355H82.8853V6.19971H88.341C89.404 6.19971 90.3901 6.31172 91.2994 6.53355C92.2087 6.75538 92.9972 7.09142 93.6671 7.53728C94.337 7.98313 94.8597 8.5454 95.2375 9.22187C95.6152 9.90054 95.8041 10.7022 95.8041 11.6269V11.6291ZM91.7387 11.7059C91.7387 10.935 91.4378 10.364 90.8382 9.99498C90.2364 9.62599 89.3974 9.4415 88.3146 9.4415H87.1066V14.2537H88.1367C89.2678 14.2537 90.1507 14.0318 90.7855 13.5838C91.4202 13.1379 91.7387 12.512 91.7387 11.7059Z" fill="white"/>
<path d="M122 14.7682C122 15.9872 121.802 17.1315 121.407 18.2033C121.012 19.2751 120.443 20.2151 119.696 21.0212C118.949 21.8273 118.035 22.4664 116.955 22.9386C115.874 23.4108 114.638 23.6458 113.25 23.6458C111.862 23.6458 110.621 23.4086 109.531 22.9386C108.442 22.4664 107.524 21.8273 106.777 21.0212C106.032 20.2151 105.466 19.2751 105.079 18.2033C104.693 17.1315 104.499 15.9872 104.499 14.7682C104.499 13.5493 104.693 12.405 105.079 11.3331C105.466 10.2613 106.032 9.3213 106.777 8.51525C107.524 7.70919 108.442 7.07006 109.531 6.59785C110.621 6.12563 111.859 5.89062 113.25 5.89062C114.64 5.89062 115.874 6.12563 116.955 6.59785C118.035 7.07006 118.949 7.70919 119.696 8.51525C120.443 9.3213 121.012 10.2613 121.407 11.3331C121.802 12.405 122 13.5493 122 14.7682ZM113.252 20.3008C113.99 20.3008 114.64 20.1624 115.207 19.8901C115.773 19.6155 116.248 19.2334 116.634 18.7436C117.021 18.256 117.306 17.6718 117.495 16.9931C117.684 16.3166 117.779 15.5743 117.779 14.7682C117.779 13.9622 117.684 13.2198 117.495 12.5411C117.306 11.8647 117.019 11.2804 116.634 10.7907C116.248 10.3031 115.773 9.9209 115.207 9.64636C114.64 9.37182 113.988 9.23565 113.252 9.23565C112.516 9.23565 111.842 9.37402 111.284 9.64636C110.726 9.9209 110.254 10.3031 109.869 10.7907C109.483 11.2804 109.197 11.8625 109.009 12.5411C108.82 13.2198 108.725 13.96 108.725 14.7682C108.725 15.5765 108.82 16.3166 109.009 16.9931C109.197 17.6718 109.485 18.2538 109.869 18.7436C110.256 19.2334 110.726 19.6155 111.284 19.8901C111.842 20.1646 112.499 20.3008 113.252 20.3008Z" fill="white"/>
</svg>
